<svg width="375" height="812" viewBox="0 0 375 812" fill="none" xmlns="http://www.w3.org/2000/svg">
<g clip-path="url(#clip0)">
<rect width="375" height="812" fill="#FDFFFC"/>
<path d="M56.0547 449H58.7002V440.694H58.7529L64.501 449H66.8037V436.317H64.1582V444.562H64.1055L58.375 436.317H56.0547V449ZM74.2393 449.22C77.5088 449.22 79.5479 447.33 79.5479 444.518V436.317H76.8936V444.28C76.8936 445.924 75.9443 446.97 74.2393 446.97C72.5342 446.97 71.5762 445.924 71.5762 444.28V436.317H68.9219V444.518C68.9219 447.339 70.9873 449.22 74.2393 449.22ZM86.2979 449.22C89.4971 449.22 91.4131 447.673 91.4131 445.238V445.229C91.4131 443.234 90.2178 442.153 87.5635 441.626L86.2188 441.354C84.7598 441.063 84.1094 440.598 84.1094 439.798V439.789C84.1094 438.884 84.9268 438.26 86.2891 438.251C87.5986 438.251 88.5127 438.857 88.6445 439.851L88.6533 439.956H91.1582L91.1494 439.789C91.0264 437.565 89.2246 436.098 86.2891 436.098C83.4766 436.098 81.4551 437.627 81.4551 439.947V439.956C81.4551 441.863 82.7207 443.059 85.2256 443.56L86.5615 443.823C88.1348 444.148 88.7588 444.579 88.7588 445.44V445.449C88.7588 446.416 87.8359 447.058 86.3682 447.058C84.918 447.058 83.8721 446.442 83.7051 445.458L83.6875 445.361H81.1826L81.1914 445.502C81.3408 447.84 83.2832 449.22 86.2979 449.22ZM92.8193 452.076H95.3857V447.392H95.4385C95.9482 448.508 97.0117 449.193 98.3564 449.193C100.712 449.193 102.171 447.348 102.171 444.289V444.28C102.171 441.213 100.712 439.385 98.3213 439.385C96.9854 439.385 95.957 440.079 95.4473 441.222H95.3857V439.578H92.8193V452.076ZM97.4775 447.066C96.2295 447.066 95.377 445.994 95.377 444.298V444.289C95.377 442.584 96.2295 441.512 97.4775 441.512C98.752 441.512 99.5605 442.558 99.5605 444.28V444.289C99.5605 446.003 98.752 447.066 97.4775 447.066ZM107.831 449.193C110.679 449.193 112.498 447.365 112.498 444.289V444.271C112.498 441.222 110.644 439.385 107.822 439.385C105.01 439.385 103.164 441.239 103.164 444.271V444.289C103.164 447.356 104.966 449.193 107.831 449.193ZM107.84 447.181C106.574 447.181 105.774 446.135 105.774 444.289V444.271C105.774 442.452 106.583 441.397 107.822 441.397C109.07 441.397 109.888 442.452 109.888 444.271V444.289C109.888 446.126 109.088 447.181 107.84 447.181ZM117.569 449.193C118.105 449.193 118.519 449.141 118.809 449.097V447.216C118.65 447.233 118.483 447.26 118.255 447.26C117.481 447.26 117.086 446.961 117.086 446.082V441.512H118.809V439.578H117.086V437.275H114.493V439.578H113.184V441.512H114.493V446.363C114.493 448.385 115.478 449.193 117.569 449.193ZM124.1 449.193C126.525 449.193 128.222 447.98 128.222 446.135V446.126C128.222 444.737 127.413 443.964 125.444 443.551L123.845 443.208C122.896 443.006 122.57 442.689 122.57 442.206V442.197C122.57 441.591 123.124 441.195 124.012 441.195C124.961 441.195 125.515 441.705 125.603 442.382L125.611 442.452H127.976V442.364C127.914 440.712 126.517 439.385 124.012 439.385C121.612 439.385 120.065 440.545 120.065 442.338V442.347C120.065 443.753 120.988 444.667 122.816 445.054L124.416 445.388C125.339 445.59 125.655 445.88 125.655 446.381V446.39C125.655 446.996 125.066 447.374 124.1 447.374C123.071 447.374 122.518 446.943 122.351 446.205L122.333 446.126H119.828L119.837 446.205C120.039 447.989 121.489 449.193 124.1 449.193ZM134.277 438.33C134.901 438.33 135.385 437.838 135.385 437.24C135.385 436.634 134.901 436.142 134.277 436.142C133.662 436.142 133.17 436.634 133.17 437.24C133.17 437.838 133.662 438.33 134.277 438.33ZM133.328 449H135.227V439.754H133.328V449ZM140.649 449.185C142.829 449.185 144.411 448.024 144.411 446.337V446.328C144.411 445.001 143.69 444.254 141.801 443.814L140.298 443.472C139.305 443.234 138.927 442.848 138.927 442.276V442.268C138.927 441.529 139.568 441.046 140.588 441.046C141.66 441.046 142.293 441.608 142.407 442.417L142.416 442.479H144.2L144.191 442.373C144.095 440.8 142.776 439.578 140.588 439.578C138.461 439.578 137.02 440.712 137.02 442.364V442.373C137.02 443.718 137.89 444.562 139.647 444.966L141.159 445.309C142.152 445.546 142.486 445.889 142.486 446.486V446.495C142.486 447.242 141.801 447.717 140.658 447.717C139.489 447.717 138.856 447.216 138.681 446.363L138.663 446.275H136.782L136.791 446.354C136.984 448.042 138.338 449.185 140.649 449.185ZM150.634 452.085C152.444 452.085 153.411 451.347 154.097 449.431L157.542 439.754H155.538L153.209 447.277H153.147L150.818 439.754H148.762L152.128 449.009L151.97 449.448C151.653 450.345 151.161 450.582 150.265 450.582C150.01 450.582 149.79 450.547 149.641 450.512V451.997C149.869 452.041 150.265 452.085 150.634 452.085ZM162.271 449.185C164.916 449.185 166.656 447.356 166.656 444.377V444.359C166.656 441.397 164.898 439.578 162.262 439.578C159.634 439.578 157.885 441.406 157.885 444.359V444.377C157.885 447.348 159.616 449.185 162.271 449.185ZM162.279 447.594C160.794 447.594 159.827 446.425 159.827 444.377V444.359C159.827 442.338 160.803 441.169 162.262 441.169C163.747 441.169 164.714 442.338 164.714 444.359V444.377C164.714 446.416 163.765 447.594 162.279 447.594ZM171.271 449.185C172.677 449.185 173.617 448.543 174.101 447.611H174.145V449H176.052V439.754H174.145V445.15C174.145 446.592 173.283 447.55 171.947 447.55C170.629 447.55 169.979 446.776 169.979 445.379V439.754H168.08V445.748C168.08 447.875 169.24 449.185 171.271 449.185ZM177.933 449H179.831V443.489C179.831 442.109 180.587 441.31 181.809 441.31C182.178 441.31 182.512 441.354 182.661 441.415V439.648C182.512 439.622 182.274 439.578 182.002 439.578C180.947 439.578 180.174 440.255 179.875 441.336H179.831V439.754H177.933V449ZM191.547 452.261C194.157 452.261 195.792 450.854 195.792 448.745V439.754H193.885V441.327H193.841C193.296 440.281 192.276 439.578 190.976 439.578C188.629 439.578 187.082 441.397 187.082 444.298V444.307C187.082 447.189 188.611 449.009 190.932 449.009C192.259 449.009 193.313 448.367 193.841 447.365H193.885V448.631C193.885 449.923 193.05 450.731 191.538 450.731C190.352 450.731 189.552 450.327 189.297 449.738L189.262 449.668H187.381L187.39 449.747C187.671 451.162 189.174 452.261 191.547 452.261ZM191.468 447.462C189.965 447.462 189.024 446.267 189.024 444.333V444.324C189.024 442.417 189.965 441.204 191.468 441.204C192.909 441.204 193.885 442.426 193.885 444.324V444.333C193.885 446.24 192.918 447.462 191.468 447.462ZM201.646 449.185C204.291 449.185 206.031 447.356 206.031 444.377V444.359C206.031 441.397 204.273 439.578 201.637 439.578C199.009 439.578 197.26 441.406 197.26 444.359V444.377C197.26 447.348 198.991 449.185 201.646 449.185ZM201.654 447.594C200.169 447.594 199.202 446.425 199.202 444.377V444.359C199.202 442.338 200.178 441.169 201.637 441.169C203.122 441.169 204.089 442.338 204.089 444.359V444.377C204.089 446.416 203.14 447.594 201.654 447.594ZM207.631 444.711H213.282V442.997H207.631V444.711ZM218.547 449.185C218.934 449.185 219.294 449.141 219.514 449.105V447.638C219.373 447.655 219.206 447.673 219.004 447.673C218.204 447.673 217.782 447.392 217.782 446.451V441.266H219.514V439.754H217.782V437.346H215.84V439.754H214.513V441.266H215.84V446.565C215.84 448.411 216.719 449.185 218.547 449.185ZM224.831 449.185C227.477 449.185 229.217 447.356 229.217 444.377V444.359C229.217 441.397 227.459 439.578 224.822 439.578C222.194 439.578 220.445 441.406 220.445 444.359V444.377C220.445 447.348 222.177 449.185 224.831 449.185ZM224.84 447.594C223.354 447.594 222.388 446.425 222.388 444.377V444.359C222.388 442.338 223.363 441.169 224.822 441.169C226.308 441.169 227.274 442.338 227.274 444.359V444.377C227.274 446.416 226.325 447.594 224.84 447.594ZM234.895 449H236.802V441.266H238.647V439.754H236.767V438.805C236.767 437.987 237.171 437.574 238.023 437.574C238.261 437.574 238.498 437.592 238.683 437.618V436.212C238.428 436.168 238.006 436.133 237.619 436.133C235.738 436.133 234.895 436.977 234.895 438.77V439.754H233.62V441.266H234.895V449ZM243.306 449.185C245.951 449.185 247.691 447.356 247.691 444.377V444.359C247.691 441.397 245.934 439.578 243.297 439.578C240.669 439.578 238.92 441.406 238.92 444.359V444.377C238.92 447.348 240.651 449.185 243.306 449.185ZM243.314 447.594C241.829 447.594 240.862 446.425 240.862 444.377V444.359C240.862 442.338 241.838 441.169 243.297 441.169C244.782 441.169 245.749 442.338 245.749 444.359V444.377C245.749 446.416 244.8 447.594 243.314 447.594ZM249.159 449H251.058V443.489C251.058 442.109 251.813 441.31 253.035 441.31C253.404 441.31 253.738 441.354 253.888 441.415V439.648C253.738 439.622 253.501 439.578 253.229 439.578C252.174 439.578 251.4 440.255 251.102 441.336H251.058V439.754H249.159V449ZM56.4941 481H58.4014V473.266H60.2471V471.754H58.3662V470.805C58.3662 469.987 58.7705 469.574 59.623 469.574C59.8604 469.574 60.0977 469.592 60.2822 469.618V468.212C60.0273 468.168 59.6055 468.133 59.2188 468.133C57.3379 468.133 56.4941 468.977 56.4941 470.77V471.754H55.2197V473.266H56.4941V481ZM62.7695 470.33C63.3936 470.33 63.877 469.838 63.877 469.24C63.877 468.634 63.3936 468.142 62.7695 468.142C62.1543 468.142 61.6621 468.634 61.6621 469.24C61.6621 469.838 62.1543 470.33 62.7695 470.33ZM61.8203 481H63.7188V471.754H61.8203V481ZM65.6787 481H67.5771V475.612C67.5771 474.171 68.4385 473.204 69.7744 473.204C71.0928 473.204 71.7432 473.986 71.7432 475.375V481H73.6504V475.015C73.6504 472.888 72.4814 471.578 70.4512 471.578C69.0537 471.578 68.1045 472.211 67.6211 473.151H67.5771V471.754H65.6787V481ZM78.9414 481.185C80.2686 481.185 81.2881 480.517 81.8418 479.436H81.877V481H83.7842V468.317H81.877V473.327H81.8418C81.2881 472.237 80.2334 471.578 78.9238 471.578C76.6035 471.578 75.0742 473.424 75.0742 476.368V476.377C75.0742 479.321 76.5859 481.185 78.9414 481.185ZM79.4424 479.55C77.9395 479.55 77.0166 478.346 77.0166 476.377V476.368C77.0166 474.417 77.9482 473.204 79.4424 473.204C80.8662 473.204 81.8857 474.452 81.8857 476.368V476.377C81.8857 478.302 80.875 479.55 79.4424 479.55ZM86.7637 470.33C87.3877 470.33 87.8711 469.838 87.8711 469.24C87.8711 468.634 87.3877 468.142 86.7637 468.142C86.1484 468.142 85.6562 468.634 85.6562 469.24C85.6562 469.838 86.1484 470.33 86.7637 470.33ZM85.8145 481H87.7129V471.754H85.8145V481ZM89.6729 481H91.5713V475.612C91.5713 474.171 92.4326 473.204 93.7686 473.204C95.0869 473.204 95.7373 473.986 95.7373 475.375V481H97.6445V475.015C97.6445 472.888 96.4756 471.578 94.4453 471.578C93.0479 471.578 92.0986 472.211 91.6152 473.151H91.5713V471.754H89.6729V481ZM103.533 484.261C106.144 484.261 107.778 482.854 107.778 480.745V471.754H105.871V473.327H105.827C105.282 472.281 104.263 471.578 102.962 471.578C100.615 471.578 99.0684 473.397 99.0684 476.298V476.307C99.0684 479.189 100.598 481.009 102.918 481.009C104.245 481.009 105.3 480.367 105.827 479.365H105.871V480.631C105.871 481.923 105.036 482.731 103.524 482.731C102.338 482.731 101.538 482.327 101.283 481.738L101.248 481.668H99.3672L99.376 481.747C99.6572 483.162 101.16 484.261 103.533 484.261ZM103.454 479.462C101.951 479.462 101.011 478.267 101.011 476.333V476.324C101.011 474.417 101.951 473.204 103.454 473.204C104.896 473.204 105.871 474.426 105.871 476.324V476.333C105.871 478.24 104.904 479.462 103.454 479.462ZM116.778 481.185C118.958 481.185 120.54 480.024 120.54 478.337V478.328C120.54 477.001 119.819 476.254 117.93 475.814L116.427 475.472C115.434 475.234 115.056 474.848 115.056 474.276V474.268C115.056 473.529 115.697 473.046 116.717 473.046C117.789 473.046 118.422 473.608 118.536 474.417L118.545 474.479H120.329L120.32 474.373C120.224 472.8 118.905 471.578 116.717 471.578C114.59 471.578 113.148 472.712 113.148 474.364V474.373C113.148 475.718 114.019 476.562 115.776 476.966L117.288 477.309C118.281 477.546 118.615 477.889 118.615 478.486V478.495C118.615 479.242 117.93 479.717 116.787 479.717C115.618 479.717 114.985 479.216 114.81 478.363L114.792 478.275H112.911L112.92 478.354C113.113 480.042 114.467 481.185 116.778 481.185ZM122.017 484.076H123.915V479.444H123.959C124.504 480.517 125.567 481.185 126.877 481.185C129.197 481.185 130.718 479.33 130.718 476.386V476.377C130.718 473.424 129.206 471.578 126.851 471.578C125.532 471.578 124.513 472.246 123.959 473.345H123.915V471.754H122.017V484.076ZM126.358 479.55C124.926 479.55 123.906 478.302 123.906 476.386V476.377C123.906 474.452 124.917 473.204 126.358 473.204C127.844 473.204 128.784 474.408 128.784 476.377V476.386C128.784 478.337 127.853 479.55 126.358 479.55ZM134.91 481.167C136.132 481.167 137.204 480.534 137.74 479.541H137.775V481H139.683V474.628C139.683 472.773 138.25 471.578 135.991 471.578C133.715 471.578 132.335 472.8 132.203 474.391L132.194 474.487H133.987L134.005 474.408C134.163 473.67 134.84 473.151 135.938 473.151C137.116 473.151 137.775 473.767 137.775 474.786V475.48L135.262 475.63C133.073 475.762 131.825 476.746 131.825 478.354V478.372C131.825 480.033 133.064 481.167 134.91 481.167ZM133.741 478.328V478.311C133.741 477.528 134.374 477.027 135.517 476.957L137.775 476.816V477.537C137.775 478.741 136.765 479.646 135.429 479.646C134.409 479.646 133.741 479.137 133.741 478.328ZM145.501 481.185C147.725 481.185 149.271 479.761 149.474 477.906L149.482 477.845H147.654L147.646 477.915C147.417 478.917 146.67 479.594 145.501 479.594C144.033 479.594 143.058 478.407 143.058 476.386V476.377C143.058 474.399 144.016 473.169 145.492 473.169C146.731 473.169 147.435 473.934 147.637 474.839L147.654 474.909H149.465L149.456 474.848C149.298 473.107 147.856 471.578 145.475 471.578C142.838 471.578 141.115 473.433 141.115 476.359V476.368C141.115 479.33 142.803 481.185 145.501 481.185ZM154.773 481.185C157.015 481.185 158.438 479.849 158.737 478.381L158.755 478.284H156.953L156.927 478.354C156.689 479.049 155.942 479.629 154.817 479.629C153.306 479.629 152.348 478.609 152.312 476.86H158.86V476.219C158.86 473.441 157.27 471.578 154.677 471.578C152.084 471.578 150.414 473.512 150.414 476.403V476.412C150.414 479.33 152.058 481.185 154.773 481.185ZM154.686 473.134C155.925 473.134 156.821 473.916 156.979 475.516H152.339C152.506 473.969 153.455 473.134 154.686 473.134ZM163.8 481.185C165.979 481.185 167.562 480.024 167.562 478.337V478.328C167.562 477.001 166.841 476.254 164.951 475.814L163.448 475.472C162.455 475.234 162.077 474.848 162.077 474.276V474.268C162.077 473.529 162.719 473.046 163.738 473.046C164.811 473.046 165.443 473.608 165.558 474.417L165.566 474.479H167.351L167.342 474.373C167.245 472.8 165.927 471.578 163.738 471.578C161.611 471.578 160.17 472.712 160.17 474.364V474.373C160.17 475.718 161.04 476.562 162.798 476.966L164.31 477.309C165.303 477.546 165.637 477.889 165.637 478.486V478.495C165.637 479.242 164.951 479.717 163.809 479.717C162.64 479.717 162.007 479.216 161.831 478.363L161.813 478.275H159.933L159.941 478.354C160.135 480.042 161.488 481.185 163.8 481.185ZM176.667 481.185C179.312 481.185 181.053 479.356 181.053 476.377V476.359C181.053 473.397 179.295 471.578 176.658 471.578C174.03 471.578 172.281 473.406 172.281 476.359V476.377C172.281 479.348 174.013 481.185 176.667 481.185ZM176.676 479.594C175.19 479.594 174.224 478.425 174.224 476.377V476.359C174.224 474.338 175.199 473.169 176.658 473.169C178.144 473.169 179.11 474.338 179.11 476.359V476.377C179.11 478.416 178.161 479.594 176.676 479.594ZM182.521 481H184.419V475.612C184.419 474.171 185.28 473.204 186.616 473.204C187.935 473.204 188.585 473.986 188.585 475.375V481H190.492V475.015C190.492 472.888 189.323 471.578 187.293 471.578C185.896 471.578 184.946 472.211 184.463 473.151H184.419V471.754H182.521V481ZM199.958 481.185C202.182 481.185 203.729 479.761 203.931 477.906L203.939 477.845H202.111L202.103 477.915C201.874 478.917 201.127 479.594 199.958 479.594C198.49 479.594 197.515 478.407 197.515 476.386V476.377C197.515 474.399 198.473 473.169 199.949 473.169C201.188 473.169 201.892 473.934 202.094 474.839L202.111 474.909H203.922L203.913 474.848C203.755 473.107 202.313 471.578 199.932 471.578C197.295 471.578 195.572 473.433 195.572 476.359V476.368C195.572 479.33 197.26 481.185 199.958 481.185ZM208 481.167C209.222 481.167 210.294 480.534 210.83 479.541H210.865V481H212.772V474.628C212.772 472.773 211.34 471.578 209.081 471.578C206.805 471.578 205.425 472.8 205.293 474.391L205.284 474.487H207.077L207.095 474.408C207.253 473.67 207.93 473.151 209.028 473.151C210.206 473.151 210.865 473.767 210.865 474.786V475.48L208.352 475.63C206.163 475.762 204.915 476.746 204.915 478.354V478.372C204.915 480.033 206.154 481.167 208 481.167ZM206.831 478.328V478.311C206.831 477.528 207.464 477.027 208.606 476.957L210.865 476.816V477.537C210.865 478.741 209.854 479.646 208.519 479.646C207.499 479.646 206.831 479.137 206.831 478.328ZM214.618 481H216.517V475.287C216.517 474.092 217.316 473.204 218.441 473.204C219.514 473.204 220.19 473.89 220.19 474.962V481H222.054V475.217C222.054 474.048 222.836 473.204 223.961 473.204C225.086 473.204 225.728 473.898 225.728 475.103V481H227.635V474.646C227.635 472.791 226.439 471.578 224.611 471.578C223.293 471.578 222.203 472.272 221.729 473.397H221.685C221.315 472.237 220.384 471.578 219.109 471.578C217.896 471.578 216.956 472.22 216.561 473.187H216.517V471.754H214.618V481ZM229.472 484.076H231.37V479.444H231.414C231.959 480.517 233.022 481.185 234.332 481.185C236.652 481.185 238.173 479.33 238.173 476.386V476.377C238.173 473.424 236.661 471.578 234.306 471.578C232.987 471.578 231.968 472.246 231.414 473.345H231.37V471.754H229.472V484.076ZM233.813 479.55C232.381 479.55 231.361 478.302 231.361 476.386V476.377C231.361 474.452 232.372 473.204 233.813 473.204C235.299 473.204 236.239 474.408 236.239 476.377V476.386C236.239 478.337 235.308 479.55 233.813 479.55ZM242.796 481.185C244.202 481.185 245.143 480.543 245.626 479.611H245.67V481H247.577V471.754H245.67V477.15C245.67 478.592 244.809 479.55 243.473 479.55C242.154 479.55 241.504 478.776 241.504 477.379V471.754H239.605V477.748C239.605 479.875 240.766 481.185 242.796 481.185ZM252.921 481.185C255.101 481.185 256.683 480.024 256.683 478.337V478.328C256.683 477.001 255.962 476.254 254.072 475.814L252.569 475.472C251.576 475.234 251.198 474.848 251.198 474.276V474.268C251.198 473.529 251.84 473.046 252.859 473.046C253.932 473.046 254.564 473.608 254.679 474.417L254.688 474.479H256.472L256.463 474.373C256.366 472.8 255.048 471.578 252.859 471.578C250.732 471.578 249.291 472.712 249.291 474.364V474.373C249.291 475.718 250.161 476.562 251.919 476.966L253.431 477.309C254.424 477.546 254.758 477.889 254.758 478.486V478.495C254.758 479.242 254.072 479.717 252.93 479.717C251.761 479.717 251.128 479.216 250.952 478.363L250.935 478.275H249.054L249.062 478.354C249.256 480.042 250.609 481.185 252.921 481.185ZM265.059 481.185C265.445 481.185 265.806 481.141 266.025 481.105V479.638C265.885 479.655 265.718 479.673 265.516 479.673C264.716 479.673 264.294 479.392 264.294 478.451V473.266H266.025V471.754H264.294V469.346H262.352V471.754H261.024V473.266H262.352V478.565C262.352 480.411 263.23 481.185 265.059 481.185ZM267.669 481H269.567V475.647C269.567 474.206 270.438 473.204 271.747 473.204C273.083 473.204 273.856 474.118 273.856 475.647V481H275.755V475.287C275.755 473.055 274.454 471.578 272.477 471.578C271.097 471.578 270.104 472.202 269.611 473.274H269.567V468.317H267.669V481ZM280.316 481.167C281.538 481.167 282.61 480.534 283.146 479.541H283.182V481H285.089V474.628C285.089 472.773 283.656 471.578 281.397 471.578C279.121 471.578 277.741 472.8 277.609 474.391L277.601 474.487H279.394L279.411 474.408C279.569 473.67 280.246 473.151 281.345 473.151C282.522 473.151 283.182 473.767 283.182 474.786V475.48L280.668 475.63C278.479 475.762 277.231 476.746 277.231 478.354V478.372C277.231 480.033 278.471 481.167 280.316 481.167ZM279.147 478.328V478.311C279.147 477.528 279.78 477.027 280.923 476.957L283.182 476.816V477.537C283.182 478.741 282.171 479.646 280.835 479.646C279.815 479.646 279.147 479.137 279.147 478.328ZM290.178 481.185C290.564 481.185 290.925 481.141 291.145 481.105V479.638C291.004 479.655 290.837 479.673 290.635 479.673C289.835 479.673 289.413 479.392 289.413 478.451V473.266H291.145V471.754H289.413V469.346H287.471V471.754H286.144V473.266H287.471V478.565C287.471 480.411 288.35 481.185 290.178 481.185ZM56.4941 513H58.4014V505.266H60.2471V503.754H58.3662V502.805C58.3662 501.987 58.7705 501.574 59.623 501.574C59.8604 501.574 60.0977 501.592 60.2822 501.618V500.212C60.0273 500.168 59.6055 500.133 59.2188 500.133C57.3379 500.133 56.4941 500.977 56.4941 502.77V503.754H55.2197V505.266H56.4941V513ZM62.7695 502.33C63.3936 502.33 63.877 501.838 63.877 501.24C63.877 500.634 63.3936 500.142 62.7695 500.142C62.1543 500.142 61.6621 500.634 61.6621 501.24C61.6621 501.838 62.1543 502.33 62.7695 502.33ZM61.8203 513H63.7188V503.754H61.8203V513ZM68.9219 513.185C69.3086 513.185 69.6689 513.141 69.8887 513.105V511.638C69.748 511.655 69.5811 511.673 69.3789 511.673C68.5791 511.673 68.1572 511.392 68.1572 510.451V505.266H69.8887V503.754H68.1572V501.346H66.2148V503.754H64.8877V505.266H66.2148V510.565C66.2148 512.411 67.0938 513.185 68.9219 513.185ZM76.208 516.085C78.0186 516.085 78.9854 515.347 79.6709 513.431L83.1162 503.754H81.1123L78.7832 511.277H78.7217L76.3926 503.754H74.3359L77.7021 513.009L77.5439 513.448C77.2275 514.345 76.7354 514.582 75.8389 514.582C75.584 514.582 75.3643 514.547 75.2148 514.512V515.997C75.4434 516.041 75.8389 516.085 76.208 516.085ZM87.8447 513.185C90.4902 513.185 92.2305 511.356 92.2305 508.377V508.359C92.2305 505.397 90.4727 503.578 87.8359 503.578C85.208 503.578 83.459 505.406 83.459 508.359V508.377C83.459 511.348 85.1904 513.185 87.8447 513.185ZM87.8535 511.594C86.3682 511.594 85.4014 510.425 85.4014 508.377V508.359C85.4014 506.338 86.377 505.169 87.8359 505.169C89.3213 505.169 90.2881 506.338 90.2881 508.359V508.377C90.2881 510.416 89.3389 511.594 87.8535 511.594ZM96.8447 513.185C98.251 513.185 99.1914 512.543 99.6748 511.611H99.7188V513H101.626V503.754H99.7188V509.15C99.7188 510.592 98.8574 511.55 97.5215 511.55C96.2031 511.55 95.5527 510.776 95.5527 509.379V503.754H93.6543V509.748C93.6543 511.875 94.8145 513.185 96.8447 513.185ZM103.507 513H105.405V507.489C105.405 506.109 106.161 505.31 107.383 505.31C107.752 505.31 108.086 505.354 108.235 505.415V503.648C108.086 503.622 107.849 503.578 107.576 503.578C106.521 503.578 105.748 504.255 105.449 505.336H105.405V503.754H103.507V513ZM113.069 513H114.968V507.612C114.968 506.171 115.829 505.204 117.165 505.204C118.483 505.204 119.134 505.986 119.134 507.375V513H121.041V507.015C121.041 504.888 119.872 503.578 117.842 503.578C116.444 503.578 115.495 504.211 115.012 505.151H114.968V503.754H113.069V513ZM126.824 513.185C129.065 513.185 130.489 511.849 130.788 510.381L130.806 510.284H129.004L128.978 510.354C128.74 511.049 127.993 511.629 126.868 511.629C125.356 511.629 124.398 510.609 124.363 508.86H130.911V508.219C130.911 505.441 129.32 503.578 126.728 503.578C124.135 503.578 122.465 505.512 122.465 508.403V508.412C122.465 511.33 124.108 513.185 126.824 513.185ZM126.736 505.134C127.976 505.134 128.872 505.916 129.03 507.516H124.39C124.557 505.969 125.506 505.134 126.736 505.134ZM136.334 513.185C138.575 513.185 139.999 511.849 140.298 510.381L140.315 510.284H138.514L138.487 510.354C138.25 511.049 137.503 511.629 136.378 511.629C134.866 511.629 133.908 510.609 133.873 508.86H140.421V508.219C140.421 505.441 138.83 503.578 136.237 503.578C133.645 503.578 131.975 505.512 131.975 508.403V508.412C131.975 511.33 133.618 513.185 136.334 513.185ZM136.246 505.134C137.485 505.134 138.382 505.916 138.54 507.516H133.899C134.066 505.969 135.016 505.134 136.246 505.134ZM145.352 513.185C146.679 513.185 147.698 512.517 148.252 511.436H148.287V513H150.194V500.317H148.287V505.327H148.252C147.698 504.237 146.644 503.578 145.334 503.578C143.014 503.578 141.484 505.424 141.484 508.368V508.377C141.484 511.321 142.996 513.185 145.352 513.185ZM145.853 511.55C144.35 511.55 143.427 510.346 143.427 508.377V508.368C143.427 506.417 144.358 505.204 145.853 505.204C147.276 505.204 148.296 506.452 148.296 508.368V508.377C148.296 510.302 147.285 511.55 145.853 511.55ZM155.608 513.185C157.788 513.185 159.37 512.024 159.37 510.337V510.328C159.37 509.001 158.649 508.254 156.76 507.814L155.257 507.472C154.264 507.234 153.886 506.848 153.886 506.276V506.268C153.886 505.529 154.527 505.046 155.547 505.046C156.619 505.046 157.252 505.608 157.366 506.417L157.375 506.479H159.159L159.15 506.373C159.054 504.8 157.735 503.578 155.547 503.578C153.42 503.578 151.979 504.712 151.979 506.364V506.373C151.979 507.718 152.849 508.562 154.606 508.966L156.118 509.309C157.111 509.546 157.445 509.889 157.445 510.486V510.495C157.445 511.242 156.76 511.717 155.617 511.717C154.448 511.717 153.815 511.216 153.64 510.363L153.622 510.275H151.741L151.75 510.354C151.943 512.042 153.297 513.185 155.608 513.185ZM161.928 513.132C162.569 513.132 163.079 512.622 163.079 511.98C163.079 511.33 162.569 510.829 161.928 510.829C161.277 510.829 160.768 511.33 160.768 511.98C160.768 512.622 161.277 513.132 161.928 513.132Z" fill="#011627"/>
<path d="M525.389 292.01C723.858 359.771 688.499 303.583 589.5 386C454.328 486.454 322.639 495.628 330.5 375C338.361 254.372 -109.744 364.113 -135.174 41.7387C-160.604 -280.635 408.387 0.0428599 496.569 64.7243C584.751 129.406 277.303 207.308 525.389 292.01Z" fill="url(#paint0_linear)"/>
<path d="M26.5 171.5C62.2441 110.225 -77.8698 85.4532 -147.425 78.9847C-195.917 95.1645 -202.835 138.054 -194.846 233.761C-186.857 329.467 55.1395 453.389 136.981 338.82C194 259 -18.1801 248.094 26.5 171.5Z" fill="url(#paint1_linear)"/>
<path d="M40.8671 8.00024C-32.3329 -32.7998 125.034 -28.6664 212.867 -34.9998C292.367 -34.9996 404.867 -17.7999 446.867 23.0001C499.367 74.0001 422.867 171 261.367 215.5C99.8669 260 29.8669 214 118.867 140C207.867 66.0001 132.367 59.0002 40.8671 8.00024Z" fill="url(#paint2_linear)"/>
</g>
<defs>
<linearGradient id="paint0_linear" x1="754.882" y1="752.785" x2="285.127" y2="-73.9754" gradientUnits="userSpaceOnUse">
<stop stop-color="#963AC1"/>
<stop offset="1" stop-color="#011627"/>
</linearGradient>
<linearGradient id="paint1_linear" x1="-184.349" y1="80.4753" x2="151.908" y2="397.565" gradientUnits="userSpaceOnUse">
<stop stop-color="#CC2A14"/>
<stop offset="1" stop-color="#FF9F1C"/>
<stop offset="1" stop-color="#CC2A14" stop-opacity="0"/>
</linearGradient>
<linearGradient id="paint2_linear" x1="242.642" y1="-34.9998" x2="92.8672" y2="232.5" gradientUnits="userSpaceOnUse">
<stop stop-color="#2FC6B7"/>
<stop offset="0.991219" stop-color="#FFD499"/>
</linearGradient>
<clipPath id="clip0">
<rect width="375" height="812" fill="white"/>
</clipPath>
</defs>
</svg>
