<svg width="375" height="812" viewBox="0 0 375 812" fill="none" xmlns="http://www.w3.org/2000/svg">
<g clip-path="url(#clip0)">
<rect width="375" height="812" fill="#FDFFFC"/>
<path d="M265.305 711.181C393.024 755.299 507.708 623.078 604.887 725.71C641.159 766.01 642.025 832.849 606.48 944.584C562.05 1084.25 306.221 1125.65 66.0562 983.91C-149.096 856.931 -281.164 814.071 -164.196 676.088C-162.612 674.219 -162.282 675.407 -162.716 678.877L-90.5 815C-39.792 754.209 -3 618.5 265.305 711.181Z" fill="url(#paint0_linear)"/>
<path d="M49.8057 252H51.6953L54.4287 242.438H54.4727L57.1973 252H59.0869L62.5146 239.317H60.4668L58.1025 249.258H58.0586L55.3779 239.317H53.5146L50.834 249.258H50.7988L48.4346 239.317H46.3867L49.8057 252ZM66.7949 252.185C69.0361 252.185 70.46 250.849 70.7588 249.381L70.7764 249.284H68.9746L68.9482 249.354C68.7109 250.049 67.9639 250.629 66.8389 250.629C65.3271 250.629 64.3691 249.609 64.334 247.86H70.8818V247.219C70.8818 244.441 69.291 242.578 66.6982 242.578C64.1055 242.578 62.4355 244.512 62.4355 247.403V247.412C62.4355 250.33 64.0791 252.185 66.7949 252.185ZM66.707 244.134C67.9463 244.134 68.8428 244.916 69.001 246.516H64.3604C64.5273 244.969 65.4766 244.134 66.707 244.134ZM71.4971 243.817H72.833L74.1162 239.317H72.2178L71.4971 243.817ZM75.6104 252H77.5088V239.317H75.6104V252ZM79.5303 252H81.4287V239.317H79.5303V252ZM87.1064 252H89.0049V239.317H87.1064V252ZM94.9023 252.185C97.1436 252.185 98.5674 250.849 98.8662 249.381L98.8838 249.284H97.082L97.0557 249.354C96.8184 250.049 96.0713 250.629 94.9463 250.629C93.4346 250.629 92.4766 249.609 92.4414 247.86H98.9893V247.219C98.9893 244.441 97.3984 242.578 94.8057 242.578C92.2129 242.578 90.543 244.512 90.543 247.403V247.412C90.543 250.33 92.1865 252.185 94.9023 252.185ZM94.8145 244.134C96.0537 244.134 96.9502 244.916 97.1084 246.516H92.4678C92.6348 244.969 93.584 244.134 94.8145 244.134ZM103.709 252.185C104.096 252.185 104.456 252.141 104.676 252.105V250.638C104.535 250.655 104.368 250.673 104.166 250.673C103.366 250.673 102.944 250.392 102.944 249.451V244.266H104.676V242.754H102.944V240.346H101.002V242.754H99.6748V244.266H101.002V249.565C101.002 251.411 101.881 252.185 103.709 252.185ZM110.995 255.085C112.806 255.085 113.772 254.347 114.458 252.431L117.903 242.754H115.899L113.57 250.277H113.509L111.18 242.754H109.123L112.489 252.009L112.331 252.448C112.015 253.345 111.522 253.582 110.626 253.582C110.371 253.582 110.151 253.547 110.002 253.512V254.997C110.23 255.041 110.626 255.085 110.995 255.085ZM122.632 252.185C125.277 252.185 127.018 250.356 127.018 247.377V247.359C127.018 244.397 125.26 242.578 122.623 242.578C119.995 242.578 118.246 244.406 118.246 247.359V247.377C118.246 250.348 119.978 252.185 122.632 252.185ZM122.641 250.594C121.155 250.594 120.188 249.425 120.188 247.377V247.359C120.188 245.338 121.164 244.169 122.623 244.169C124.108 244.169 125.075 245.338 125.075 247.359V247.377C125.075 249.416 124.126 250.594 122.641 250.594ZM131.632 252.185C133.038 252.185 133.979 251.543 134.462 250.611H134.506V252H136.413V242.754H134.506V248.15C134.506 249.592 133.645 250.55 132.309 250.55C130.99 250.55 130.34 249.776 130.34 248.379V242.754H128.441V248.748C128.441 250.875 129.602 252.185 131.632 252.185ZM142.056 252H143.954V248.669L144.745 247.887L147.883 252H150.089L146.143 246.744L149.939 242.754H147.707L143.998 246.7H143.954V239.317H142.056V252ZM151.038 252H152.937V246.612C152.937 245.171 153.798 244.204 155.134 244.204C156.452 244.204 157.103 244.986 157.103 246.375V252H159.01V246.015C159.01 243.888 157.841 242.578 155.811 242.578C154.413 242.578 153.464 243.211 152.98 244.151H152.937V242.754H151.038V252ZM164.819 252.185C167.465 252.185 169.205 250.356 169.205 247.377V247.359C169.205 244.397 167.447 242.578 164.811 242.578C162.183 242.578 160.434 244.406 160.434 247.359V247.377C160.434 250.348 162.165 252.185 164.819 252.185ZM164.828 250.594C163.343 250.594 162.376 249.425 162.376 247.377V247.359C162.376 245.338 163.352 244.169 164.811 244.169C166.296 244.169 167.263 245.338 167.263 247.359V247.377C167.263 249.416 166.313 250.594 164.828 250.594ZM172.457 252H174.417L176.342 245.074H176.386L178.328 252H180.306L182.837 242.754H180.956L179.269 250.031H179.225L177.291 242.754H175.463L173.538 250.031H173.503L171.815 242.754H169.917L172.457 252ZM189.473 252H191.433L193.357 245.074H193.401L195.344 252H197.321L199.853 242.754H197.972L196.284 250.031H196.24L194.307 242.754H192.479L190.554 250.031H190.519L188.831 242.754H186.933L189.473 252ZM201.083 252H202.981V246.647C202.981 245.206 203.852 244.204 205.161 244.204C206.497 244.204 207.271 245.118 207.271 246.647V252H209.169V246.287C209.169 244.055 207.868 242.578 205.891 242.578C204.511 242.578 203.518 243.202 203.025 244.274H202.981V239.317H201.083V252ZM214.961 252.185C217.202 252.185 218.626 250.849 218.925 249.381L218.942 249.284H217.141L217.114 249.354C216.877 250.049 216.13 250.629 215.005 250.629C213.493 250.629 212.535 249.609 212.5 247.86H219.048V247.219C219.048 244.441 217.457 242.578 214.864 242.578C212.271 242.578 210.602 244.512 210.602 247.403V247.412C210.602 250.33 212.245 252.185 214.961 252.185ZM214.873 244.134C216.112 244.134 217.009 244.916 217.167 246.516H212.526C212.693 244.969 213.643 244.134 214.873 244.134ZM220.524 252H222.423V246.612C222.423 245.171 223.284 244.204 224.62 244.204C225.938 244.204 226.589 244.986 226.589 246.375V252H228.496V246.015C228.496 243.888 227.327 242.578 225.297 242.578C223.899 242.578 222.95 243.211 222.467 244.151H222.423V242.754H220.524V252ZM236.705 252.167C237.927 252.167 238.999 251.534 239.535 250.541H239.57V252H241.478V245.628C241.478 243.773 240.045 242.578 237.786 242.578C235.51 242.578 234.13 243.8 233.998 245.391L233.989 245.487H235.782L235.8 245.408C235.958 244.67 236.635 244.151 237.733 244.151C238.911 244.151 239.57 244.767 239.57 245.786V246.48L237.057 246.63C234.868 246.762 233.62 247.746 233.62 249.354V249.372C233.62 251.033 234.859 252.167 236.705 252.167ZM235.536 249.328V249.311C235.536 248.528 236.169 248.027 237.312 247.957L239.57 247.816V248.537C239.57 249.741 238.56 250.646 237.224 250.646C236.204 250.646 235.536 250.137 235.536 249.328ZM250.442 252.185C252.622 252.185 254.204 251.024 254.204 249.337V249.328C254.204 248.001 253.483 247.254 251.594 246.814L250.091 246.472C249.098 246.234 248.72 245.848 248.72 245.276V245.268C248.72 244.529 249.361 244.046 250.381 244.046C251.453 244.046 252.086 244.608 252.2 245.417L252.209 245.479H253.993L253.984 245.373C253.888 243.8 252.569 242.578 250.381 242.578C248.254 242.578 246.812 243.712 246.812 245.364V245.373C246.812 246.718 247.683 247.562 249.44 247.966L250.952 248.309C251.945 248.546 252.279 248.889 252.279 249.486V249.495C252.279 250.242 251.594 250.717 250.451 250.717C249.282 250.717 248.649 250.216 248.474 249.363L248.456 249.275H246.575L246.584 249.354C246.777 251.042 248.131 252.185 250.442 252.185ZM255.681 255.076H257.579V250.444H257.623C258.168 251.517 259.231 252.185 260.541 252.185C262.861 252.185 264.382 250.33 264.382 247.386V247.377C264.382 244.424 262.87 242.578 260.515 242.578C259.196 242.578 258.177 243.246 257.623 244.345H257.579V242.754H255.681V255.076ZM260.022 250.55C258.59 250.55 257.57 249.302 257.57 247.386V247.377C257.57 245.452 258.581 244.204 260.022 244.204C261.508 244.204 262.448 245.408 262.448 247.377V247.386C262.448 249.337 261.517 250.55 260.022 250.55ZM268.574 252.167C269.796 252.167 270.868 251.534 271.404 250.541H271.439V252H273.347V245.628C273.347 243.773 271.914 242.578 269.655 242.578C267.379 242.578 265.999 243.8 265.867 245.391L265.858 245.487H267.651L267.669 245.408C267.827 244.67 268.504 244.151 269.603 244.151C270.78 244.151 271.439 244.767 271.439 245.786V246.48L268.926 246.63C266.737 246.762 265.489 247.746 265.489 249.354V249.372C265.489 251.033 266.729 252.167 268.574 252.167ZM267.405 249.328V249.311C267.405 248.528 268.038 248.027 269.181 247.957L271.439 247.816V248.537C271.439 249.741 270.429 250.646 269.093 250.646C268.073 250.646 267.405 250.137 267.405 249.328ZM279.165 252.185C281.389 252.185 282.936 250.761 283.138 248.906L283.146 248.845H281.318L281.31 248.915C281.081 249.917 280.334 250.594 279.165 250.594C277.697 250.594 276.722 249.407 276.722 247.386V247.377C276.722 245.399 277.68 244.169 279.156 244.169C280.396 244.169 281.099 244.934 281.301 245.839L281.318 245.909H283.129L283.12 245.848C282.962 244.107 281.521 242.578 279.139 242.578C276.502 242.578 274.779 244.433 274.779 247.359V247.368C274.779 250.33 276.467 252.185 279.165 252.185ZM288.438 252.185C290.679 252.185 292.103 250.849 292.401 249.381L292.419 249.284H290.617L290.591 249.354C290.354 250.049 289.606 250.629 288.481 250.629C286.97 250.629 286.012 249.609 285.977 247.86H292.524V247.219C292.524 244.441 290.934 242.578 288.341 242.578C285.748 242.578 284.078 244.512 284.078 247.403V247.412C284.078 250.33 285.722 252.185 288.438 252.185ZM288.35 244.134C289.589 244.134 290.485 244.916 290.644 246.516H286.003C286.17 244.969 287.119 244.134 288.35 244.134ZM298.686 241.33C299.31 241.33 299.793 240.838 299.793 240.24C299.793 239.634 299.31 239.142 298.686 239.142C298.07 239.142 297.578 239.634 297.578 240.24C297.578 240.838 298.07 241.33 298.686 241.33ZM297.736 252H299.635V242.754H297.736V252ZM305.058 252.185C307.237 252.185 308.819 251.024 308.819 249.337V249.328C308.819 248.001 308.099 247.254 306.209 246.814L304.706 246.472C303.713 246.234 303.335 245.848 303.335 245.276V245.268C303.335 244.529 303.977 244.046 304.996 244.046C306.068 244.046 306.701 244.608 306.815 245.417L306.824 245.479H308.608L308.6 245.373C308.503 243.8 307.185 242.578 304.996 242.578C302.869 242.578 301.428 243.712 301.428 245.364V245.373C301.428 246.718 302.298 247.562 304.056 247.966L305.567 248.309C306.561 248.546 306.895 248.889 306.895 249.486V249.495C306.895 250.242 306.209 250.717 305.066 250.717C303.897 250.717 303.265 250.216 303.089 249.363L303.071 249.275H301.19L301.199 249.354C301.393 251.042 302.746 252.185 305.058 252.185ZM50.1836 284.185C50.5703 284.185 50.9307 284.141 51.1504 284.105V282.638C51.0098 282.655 50.8428 282.673 50.6406 282.673C49.8408 282.673 49.4189 282.392 49.4189 281.451V276.266H51.1504V274.754H49.4189V272.346H47.4766V274.754H46.1494V276.266H47.4766V281.565C47.4766 283.411 48.3555 284.185 50.1836 284.185ZM56.4678 284.185C59.1133 284.185 60.8535 282.356 60.8535 279.377V279.359C60.8535 276.397 59.0957 274.578 56.459 274.578C53.8311 274.578 52.082 276.406 52.082 279.359V279.377C52.082 282.348 53.8135 284.185 56.4678 284.185ZM56.4766 282.594C54.9912 282.594 54.0244 281.425 54.0244 279.377V279.359C54.0244 277.338 55 276.169 56.459 276.169C57.9443 276.169 58.9111 277.338 58.9111 279.359V279.377C58.9111 281.416 57.9619 282.594 56.4766 282.594ZM66.2939 284.185C68.9395 284.185 70.6797 282.356 70.6797 279.377V279.359C70.6797 276.397 68.9219 274.578 66.2852 274.578C63.6572 274.578 61.9082 276.406 61.9082 279.359V279.377C61.9082 282.348 63.6396 284.185 66.2939 284.185ZM66.3027 282.594C64.8174 282.594 63.8506 281.425 63.8506 279.377V279.359C63.8506 277.338 64.8262 276.169 66.2852 276.169C67.7705 276.169 68.7373 277.338 68.7373 279.359V279.377C68.7373 281.416 67.7881 282.594 66.3027 282.594ZM79.7764 284.185C82 284.185 83.5469 282.761 83.749 280.906L83.7578 280.845H81.9297L81.9209 280.915C81.6924 281.917 80.9453 282.594 79.7764 282.594C78.3086 282.594 77.333 281.407 77.333 279.386V279.377C77.333 277.399 78.291 276.169 79.7676 276.169C81.0068 276.169 81.71 276.934 81.9121 277.839L81.9297 277.909H83.7402L83.7314 277.848C83.5732 276.107 82.1318 274.578 79.75 274.578C77.1133 274.578 75.3906 276.433 75.3906 279.359V279.368C75.3906 282.33 77.0781 284.185 79.7764 284.185ZM85.1025 284H87.001V278.489C87.001 277.109 87.7568 276.31 88.9785 276.31C89.3477 276.31 89.6816 276.354 89.8311 276.415V274.648C89.6816 274.622 89.4443 274.578 89.1719 274.578C88.1172 274.578 87.3438 275.255 87.0449 276.336H87.001V274.754H85.1025V284ZM94.5771 284.185C97.2227 284.185 98.9629 282.356 98.9629 279.377V279.359C98.9629 276.397 97.2051 274.578 94.5684 274.578C91.9404 274.578 90.1914 276.406 90.1914 279.359V279.377C90.1914 282.348 91.9229 284.185 94.5771 284.185ZM94.5859 282.594C93.1006 282.594 92.1338 281.425 92.1338 279.377V279.359C92.1338 277.338 93.1094 276.169 94.5684 276.169C96.0537 276.169 97.0205 277.338 97.0205 279.359V279.377C97.0205 281.416 96.0713 282.594 94.5859 282.594ZM102.215 284H104.175L106.1 277.074H106.144L108.086 284H110.063L112.595 274.754H110.714L109.026 282.031H108.982L107.049 274.754H105.221L103.296 282.031H103.261L101.573 274.754H99.6748L102.215 284ZM117.156 284.185C118.483 284.185 119.503 283.517 120.057 282.436H120.092V284H121.999V271.317H120.092V276.327H120.057C119.503 275.237 118.448 274.578 117.139 274.578C114.818 274.578 113.289 276.424 113.289 279.368V279.377C113.289 282.321 114.801 284.185 117.156 284.185ZM117.657 282.55C116.154 282.55 115.231 281.346 115.231 279.377V279.368C115.231 277.417 116.163 276.204 117.657 276.204C119.081 276.204 120.101 277.452 120.101 279.368V279.377C120.101 281.302 119.09 282.55 117.657 282.55ZM127.896 284.185C130.138 284.185 131.562 282.849 131.86 281.381L131.878 281.284H130.076L130.05 281.354C129.812 282.049 129.065 282.629 127.94 282.629C126.429 282.629 125.471 281.609 125.436 279.86H131.983V279.219C131.983 276.441 130.393 274.578 127.8 274.578C125.207 274.578 123.537 276.512 123.537 279.403V279.412C123.537 282.33 125.181 284.185 127.896 284.185ZM127.809 276.134C129.048 276.134 129.944 276.916 130.103 278.516H125.462C125.629 276.969 126.578 276.134 127.809 276.134ZM136.914 284.185C138.241 284.185 139.261 283.517 139.814 282.436H139.85V284H141.757V271.317H139.85V276.327H139.814C139.261 275.237 138.206 274.578 136.896 274.578C134.576 274.578 133.047 276.424 133.047 279.368V279.377C133.047 282.321 134.559 284.185 136.914 284.185ZM137.415 282.55C135.912 282.55 134.989 281.346 134.989 279.377V279.368C134.989 277.417 135.921 276.204 137.415 276.204C138.839 276.204 139.858 277.452 139.858 279.368V279.377C139.858 281.302 138.848 282.55 137.415 282.55ZM150.827 284.185C153.007 284.185 154.589 283.024 154.589 281.337V281.328C154.589 280.001 153.868 279.254 151.979 278.814L150.476 278.472C149.482 278.234 149.104 277.848 149.104 277.276V277.268C149.104 276.529 149.746 276.046 150.766 276.046C151.838 276.046 152.471 276.608 152.585 277.417L152.594 277.479H154.378L154.369 277.373C154.272 275.8 152.954 274.578 150.766 274.578C148.639 274.578 147.197 275.712 147.197 277.364V277.373C147.197 278.718 148.067 279.562 149.825 279.966L151.337 280.309C152.33 280.546 152.664 280.889 152.664 281.486V281.495C152.664 282.242 151.979 282.717 150.836 282.717C149.667 282.717 149.034 282.216 148.858 281.363L148.841 281.275H146.96L146.969 281.354C147.162 283.042 148.516 284.185 150.827 284.185ZM160.038 284.185C162.684 284.185 164.424 282.356 164.424 279.377V279.359C164.424 276.397 162.666 274.578 160.029 274.578C157.401 274.578 155.652 276.406 155.652 279.359V279.377C155.652 282.348 157.384 284.185 160.038 284.185ZM160.047 282.594C158.562 282.594 157.595 281.425 157.595 279.377V279.359C157.595 277.338 158.57 276.169 160.029 276.169C161.515 276.169 162.481 277.338 162.481 279.359V279.377C162.481 281.416 161.532 282.594 160.047 282.594ZM170.638 287.085C172.448 287.085 173.415 286.347 174.101 284.431L177.546 274.754H175.542L173.213 282.277H173.151L170.822 274.754H168.766L172.132 284.009L171.974 284.448C171.657 285.345 171.165 285.582 170.269 285.582C170.014 285.582 169.794 285.547 169.645 285.512V286.997C169.873 287.041 170.269 287.085 170.638 287.085ZM182.274 284.185C184.92 284.185 186.66 282.356 186.66 279.377V279.359C186.66 276.397 184.902 274.578 182.266 274.578C179.638 274.578 177.889 276.406 177.889 279.359V279.377C177.889 282.348 179.62 284.185 182.274 284.185ZM182.283 282.594C180.798 282.594 179.831 281.425 179.831 279.377V279.359C179.831 277.338 180.807 276.169 182.266 276.169C183.751 276.169 184.718 277.338 184.718 279.359V279.377C184.718 281.416 183.769 282.594 182.283 282.594ZM191.274 284.185C192.681 284.185 193.621 283.543 194.104 282.611H194.148V284H196.056V274.754H194.148V280.15C194.148 281.592 193.287 282.55 191.951 282.55C190.633 282.55 189.982 281.776 189.982 280.379V274.754H188.084V280.748C188.084 282.875 189.244 284.185 191.274 284.185ZM205.565 284.185C207.789 284.185 209.336 282.761 209.538 280.906L209.547 280.845H207.719L207.71 280.915C207.481 281.917 206.734 282.594 205.565 282.594C204.098 282.594 203.122 281.407 203.122 279.386V279.377C203.122 277.399 204.08 276.169 205.557 276.169C206.796 276.169 207.499 276.934 207.701 277.839L207.719 277.909H209.529L209.521 277.848C209.362 276.107 207.921 274.578 205.539 274.578C202.902 274.578 201.18 276.433 201.18 279.359V279.368C201.18 282.33 202.867 284.185 205.565 284.185ZM213.607 284.167C214.829 284.167 215.901 283.534 216.438 282.541H216.473V284H218.38V277.628C218.38 275.773 216.947 274.578 214.688 274.578C212.412 274.578 211.032 275.8 210.9 277.391L210.892 277.487H212.685L212.702 277.408C212.86 276.67 213.537 276.151 214.636 276.151C215.813 276.151 216.473 276.767 216.473 277.786V278.48L213.959 278.63C211.771 278.762 210.522 279.746 210.522 281.354V281.372C210.522 283.033 211.762 284.167 213.607 284.167ZM212.438 281.328V281.311C212.438 280.528 213.071 280.027 214.214 279.957L216.473 279.816V280.537C216.473 281.741 215.462 282.646 214.126 282.646C213.106 282.646 212.438 282.137 212.438 281.328ZM220.226 284H222.124V278.612C222.124 277.171 222.985 276.204 224.321 276.204C225.64 276.204 226.29 276.986 226.29 278.375V284H228.197V278.015C228.197 275.888 227.028 274.578 224.998 274.578C223.601 274.578 222.651 275.211 222.168 276.151H222.124V274.754H220.226V284ZM236.406 284.167C237.628 284.167 238.7 283.534 239.236 282.541H239.271V284H241.179V277.628C241.179 275.773 239.746 274.578 237.487 274.578C235.211 274.578 233.831 275.8 233.699 277.391L233.69 277.487H235.483L235.501 277.408C235.659 276.67 236.336 276.151 237.435 276.151C238.612 276.151 239.271 276.767 239.271 277.786V278.48L236.758 278.63C234.569 278.762 233.321 279.746 233.321 281.354V281.372C233.321 283.033 234.561 284.167 236.406 284.167ZM235.237 281.328V281.311C235.237 280.528 235.87 280.027 237.013 279.957L239.271 279.816V280.537C239.271 281.741 238.261 282.646 236.925 282.646C235.905 282.646 235.237 282.137 235.237 281.328ZM245.547 284H247.586L250.899 274.754H248.922L246.602 282.146H246.558L244.237 274.754H242.216L245.547 284ZM255.61 284.185C258.256 284.185 259.996 282.356 259.996 279.377V279.359C259.996 276.397 258.238 274.578 255.602 274.578C252.974 274.578 251.225 276.406 251.225 279.359V279.377C251.225 282.348 252.956 284.185 255.61 284.185ZM255.619 282.594C254.134 282.594 253.167 281.425 253.167 279.377V279.359C253.167 277.338 254.143 276.169 255.602 276.169C257.087 276.169 258.054 277.338 258.054 279.359V279.377C258.054 281.416 257.104 282.594 255.619 282.594ZM262.492 273.33C263.116 273.33 263.6 272.838 263.6 272.24C263.6 271.634 263.116 271.142 262.492 271.142C261.877 271.142 261.385 271.634 261.385 272.24C261.385 272.838 261.877 273.33 262.492 273.33ZM261.543 284H263.441V274.754H261.543V284ZM268.855 284.185C270.183 284.185 271.202 283.517 271.756 282.436H271.791V284H273.698V271.317H271.791V276.327H271.756C271.202 275.237 270.147 274.578 268.838 274.578C266.518 274.578 264.988 276.424 264.988 279.368V279.377C264.988 282.321 266.5 284.185 268.855 284.185ZM269.356 282.55C267.854 282.55 266.931 281.346 266.931 279.377V279.368C266.931 277.417 267.862 276.204 269.356 276.204C270.78 276.204 271.8 277.452 271.8 279.368V279.377C271.8 281.302 270.789 282.55 269.356 282.55ZM280.334 273.33C280.958 273.33 281.441 272.838 281.441 272.24C281.441 271.634 280.958 271.142 280.334 271.142C279.719 271.142 279.227 271.634 279.227 272.24C279.227 272.838 279.719 273.33 280.334 273.33ZM279.385 284H281.283V274.754H279.385V284ZM286.486 284.185C286.873 284.185 287.233 284.141 287.453 284.105V282.638C287.312 282.655 287.146 282.673 286.943 282.673C286.144 282.673 285.722 282.392 285.722 281.451V276.266H287.453V274.754H285.722V272.346H283.779V274.754H282.452V276.266H283.779V281.565C283.779 283.411 284.658 284.185 286.486 284.185ZM47.0107 316H48.9092V303.317H47.0107V316ZM51.8887 305.33C52.5127 305.33 52.9961 304.838 52.9961 304.24C52.9961 303.634 52.5127 303.142 51.8887 303.142C51.2734 303.142 50.7812 303.634 50.7812 304.24C50.7812 304.838 51.2734 305.33 51.8887 305.33ZM50.9395 316H52.8379V306.754H50.9395V316ZM54.9033 316H56.8018V312.669L57.5928 311.887L60.7305 316H62.9365L58.9902 310.744L62.7871 306.754H60.5547L56.8457 310.7H56.8018V303.317H54.9033V316ZM67.3926 316.185C69.6338 316.185 71.0576 314.849 71.3564 313.381L71.374 313.284H69.5723L69.5459 313.354C69.3086 314.049 68.5615 314.629 67.4365 314.629C65.9248 314.629 64.9668 313.609 64.9316 311.86H71.4795V311.219C71.4795 308.441 69.8887 306.578 67.2959 306.578C64.7031 306.578 63.0332 308.512 63.0332 311.403V311.412C63.0332 314.33 64.6768 316.185 67.3926 316.185ZM67.3047 308.134C68.5439 308.134 69.4404 308.916 69.5986 310.516H64.958C65.125 308.969 66.0742 308.134 67.3047 308.134ZM79.8555 316.185C80.2422 316.185 80.6025 316.141 80.8223 316.105V314.638C80.6816 314.655 80.5146 314.673 80.3125 314.673C79.5127 314.673 79.0908 314.392 79.0908 313.451V308.266H80.8223V306.754H79.0908V304.346H77.1484V306.754H75.8213V308.266H77.1484V313.565C77.1484 315.411 78.0273 316.185 79.8555 316.185ZM82.4658 316H84.3643V310.647C84.3643 309.206 85.2344 308.204 86.5439 308.204C87.8799 308.204 88.6533 309.118 88.6533 310.647V316H90.5518V310.287C90.5518 308.055 89.251 306.578 87.2734 306.578C85.8936 306.578 84.9004 307.202 84.4082 308.274H84.3643V303.317H82.4658V316ZM96.3438 316.185C98.585 316.185 100.009 314.849 100.308 313.381L100.325 313.284H98.5234L98.4971 313.354C98.2598 314.049 97.5127 314.629 96.3877 314.629C94.876 314.629 93.918 313.609 93.8828 311.86H100.431V311.219C100.431 308.441 98.8398 306.578 96.2471 306.578C93.6543 306.578 91.9844 308.512 91.9844 311.403V311.412C91.9844 314.33 93.6279 316.185 96.3438 316.185ZM96.2559 308.134C97.4951 308.134 98.3916 308.916 98.5498 310.516H93.9092C94.0762 308.969 95.0254 308.134 96.2559 308.134ZM105.563 319.076H107.462V314.444H107.506C108.051 315.517 109.114 316.185 110.424 316.185C112.744 316.185 114.265 314.33 114.265 311.386V311.377C114.265 308.424 112.753 306.578 110.397 306.578C109.079 306.578 108.06 307.246 107.506 308.345H107.462V306.754H105.563V319.076ZM109.905 314.55C108.473 314.55 107.453 313.302 107.453 311.386V311.377C107.453 309.452 108.464 308.204 109.905 308.204C111.391 308.204 112.331 309.408 112.331 311.377V311.386C112.331 313.337 111.399 314.55 109.905 314.55ZM115.812 316H117.71V303.317H115.812V316ZM122.377 316.167C123.599 316.167 124.671 315.534 125.207 314.541H125.242V316H127.149V309.628C127.149 307.773 125.717 306.578 123.458 306.578C121.182 306.578 119.802 307.8 119.67 309.391L119.661 309.487H121.454L121.472 309.408C121.63 308.67 122.307 308.151 123.405 308.151C124.583 308.151 125.242 308.767 125.242 309.786V310.48L122.729 310.63C120.54 310.762 119.292 311.746 119.292 313.354V313.372C119.292 315.033 120.531 316.167 122.377 316.167ZM121.208 313.328V313.311C121.208 312.528 121.841 312.027 122.983 311.957L125.242 311.816V312.537C125.242 313.741 124.231 314.646 122.896 314.646C121.876 314.646 121.208 314.137 121.208 313.328ZM133.047 319.261C135.657 319.261 137.292 317.854 137.292 315.745V306.754H135.385V308.327H135.341C134.796 307.281 133.776 306.578 132.476 306.578C130.129 306.578 128.582 308.397 128.582 311.298V311.307C128.582 314.189 130.111 316.009 132.432 316.009C133.759 316.009 134.813 315.367 135.341 314.365H135.385V315.631C135.385 316.923 134.55 317.731 133.038 317.731C131.852 317.731 131.052 317.327 130.797 316.738L130.762 316.668H128.881L128.89 316.747C129.171 318.162 130.674 319.261 133.047 319.261ZM132.968 314.462C131.465 314.462 130.524 313.267 130.524 311.333V311.324C130.524 309.417 131.465 308.204 132.968 308.204C134.409 308.204 135.385 309.426 135.385 311.324V311.333C135.385 313.24 134.418 314.462 132.968 314.462ZM142.319 316.185C143.726 316.185 144.666 315.543 145.149 314.611H145.193V316H147.101V306.754H145.193V312.15C145.193 313.592 144.332 314.55 142.996 314.55C141.678 314.55 141.027 313.776 141.027 312.379V306.754H139.129V312.748C139.129 314.875 140.289 316.185 142.319 316.185ZM152.928 316.185C155.169 316.185 156.593 314.849 156.892 313.381L156.909 313.284H155.107L155.081 313.354C154.844 314.049 154.097 314.629 152.972 314.629C151.46 314.629 150.502 313.609 150.467 311.86H157.015V311.219C157.015 308.441 155.424 306.578 152.831 306.578C150.238 306.578 148.568 308.512 148.568 311.403V311.412C148.568 314.33 150.212 316.185 152.928 316.185ZM152.84 308.134C154.079 308.134 154.976 308.916 155.134 310.516H150.493C150.66 308.969 151.609 308.134 152.84 308.134ZM159.572 316.132C160.214 316.132 160.724 315.622 160.724 314.98C160.724 314.33 160.214 313.829 159.572 313.829C158.922 313.829 158.412 314.33 158.412 314.98C158.412 315.622 158.922 316.132 159.572 316.132Z" fill="#011627"/>
<path d="M55.0234 143.293C59.7344 143.293 62.5234 140.504 62.5234 135.898V133.953H55.2109V136.59H59.0781L59.0664 136.836C58.9727 138.922 57.3906 140.293 55.082 140.293C52.2695 140.293 50.4883 138.125 50.4883 134.457V134.445C50.4883 130.859 52.1641 128.797 54.9531 128.797C56.8633 128.797 58.2109 129.746 58.7734 131.387L58.8203 131.504H62.3711L62.3359 131.34C61.7734 128.164 59.0078 125.797 54.9414 125.797C49.9844 125.797 46.8789 129.066 46.8789 134.48V134.492C46.8789 140 49.9727 143.293 55.0234 143.293ZM70.293 143.258C73.8789 143.258 75.6133 141.137 76 139.285L76.0352 139.156H72.8945L72.8711 139.227C72.625 139.93 71.7695 140.703 70.3633 140.703C68.6172 140.703 67.5273 139.531 67.4922 137.527H76.1406V136.473C76.1406 132.676 73.832 130.18 70.1523 130.18C66.4727 130.18 64.1172 132.734 64.1172 136.73V136.742C64.1172 140.762 66.4492 143.258 70.293 143.258ZM70.2109 132.734C71.6289 132.734 72.6484 133.637 72.8594 135.371H67.5273C67.75 133.672 68.8047 132.734 70.2109 132.734ZM82.9023 143.258C83.6172 143.258 84.168 143.188 84.5547 143.129V140.621C84.3438 140.645 84.1211 140.68 83.8164 140.68C82.7852 140.68 82.2578 140.281 82.2578 139.109V133.016H84.5547V130.438H82.2578V127.367H78.8008V130.438H77.0547V133.016H78.8008V139.484C78.8008 142.18 80.1133 143.258 82.9023 143.258ZM91.1992 143H94.6211V135.781C94.6211 134.141 95.5938 133.016 97.1289 133.016C98.6641 133.016 99.4375 133.953 99.4375 135.594V143H102.859V134.891C102.859 131.949 101.289 130.18 98.5234 130.18C96.625 130.18 95.3359 131.059 94.6914 132.5H94.6211V130.438H91.1992V143ZM110.793 143.258C114.59 143.258 117.016 140.82 117.016 136.719V136.695C117.016 132.629 114.543 130.18 110.781 130.18C107.031 130.18 104.57 132.652 104.57 136.695V136.719C104.57 140.809 106.973 143.258 110.793 143.258ZM110.805 140.574C109.117 140.574 108.051 139.18 108.051 136.719V136.695C108.051 134.27 109.129 132.863 110.781 132.863C112.445 132.863 113.535 134.27 113.535 136.695V136.719C113.535 139.168 112.469 140.574 110.805 140.574ZM123.777 143.258C124.492 143.258 125.043 143.188 125.43 143.129V140.621C125.219 140.645 124.996 140.68 124.691 140.68C123.66 140.68 123.133 140.281 123.133 139.109V133.016H125.43V130.438H123.133V127.367H119.676V130.438H117.93V133.016H119.676V139.484C119.676 142.18 120.988 143.258 123.777 143.258ZM129.098 128.82C130.129 128.82 130.926 128.012 130.926 127.039C130.926 126.066 130.129 125.258 129.098 125.258C128.066 125.258 127.27 126.066 127.27 127.039C127.27 128.012 128.066 128.82 129.098 128.82ZM127.387 143H130.809V130.438H127.387V143ZM134.02 143H137.441V133.016H139.855V130.438H137.359V129.559C137.359 128.656 137.863 128.176 139 128.176C139.316 128.176 139.645 128.188 139.879 128.234V125.973C139.48 125.891 138.789 125.832 138.156 125.832C135.191 125.832 134.02 126.969 134.02 129.43V130.438H132.309V133.016H134.02V143ZM143.441 128.82C144.473 128.82 145.27 128.012 145.27 127.039C145.27 126.066 144.473 125.258 143.441 125.258C142.41 125.258 141.613 126.066 141.613 127.039C141.613 128.012 142.41 128.82 143.441 128.82ZM141.73 143H145.152V130.438H141.73V143ZM153.191 143.258C156.543 143.258 158.711 141.172 158.875 138.43V138.359H155.688L155.676 138.465C155.441 139.73 154.586 140.574 153.215 140.574C151.527 140.574 150.473 139.18 150.473 136.719V136.707C150.473 134.305 151.527 132.863 153.203 132.863C154.621 132.863 155.453 133.777 155.664 134.973L155.688 135.078H158.863V134.996C158.734 132.277 156.566 130.18 153.156 130.18C149.395 130.18 146.992 132.676 146.992 136.695V136.707C146.992 140.762 149.359 143.258 153.191 143.258ZM164.266 143.199C165.918 143.199 167.254 142.414 167.969 141.125H168.039V143H171.461V134.387C171.461 131.855 169.363 130.18 166.117 130.18C162.801 130.18 160.809 131.844 160.621 134.164L160.609 134.305H163.738L163.762 134.199C163.926 133.391 164.699 132.793 165.977 132.793C167.312 132.793 168.039 133.484 168.039 134.598V135.371L164.934 135.559C161.816 135.758 160.047 137.094 160.047 139.379V139.402C160.047 141.617 161.746 143.199 164.266 143.199ZM163.434 139.227V139.203C163.434 138.312 164.125 137.75 165.449 137.668L168.039 137.504V138.406C168.039 139.719 166.914 140.703 165.379 140.703C164.195 140.703 163.434 140.152 163.434 139.227ZM178.668 143.258C179.383 143.258 179.934 143.188 180.32 143.129V140.621C180.109 140.645 179.887 140.68 179.582 140.68C178.551 140.68 178.023 140.281 178.023 139.109V133.016H180.32V130.438H178.023V127.367H174.566V130.438H172.82V133.016H174.566V139.484C174.566 142.18 175.879 143.258 178.668 143.258ZM183.988 128.82C185.02 128.82 185.816 128.012 185.816 127.039C185.816 126.066 185.02 125.258 183.988 125.258C182.957 125.258 182.16 126.066 182.16 127.039C182.16 128.012 182.957 128.82 183.988 128.82ZM182.277 143H185.699V130.438H182.277V143ZM193.762 143.258C197.559 143.258 199.984 140.82 199.984 136.719V136.695C199.984 132.629 197.512 130.18 193.75 130.18C190 130.18 187.539 132.652 187.539 136.695V136.719C187.539 140.809 189.941 143.258 193.762 143.258ZM193.773 140.574C192.086 140.574 191.02 139.18 191.02 136.719V136.695C191.02 134.27 192.098 132.863 193.75 132.863C195.414 132.863 196.504 134.27 196.504 136.695V136.719C196.504 139.168 195.438 140.574 193.773 140.574ZM201.754 143H205.176V135.781C205.176 134.141 206.148 133.016 207.684 133.016C209.219 133.016 209.992 133.953 209.992 135.594V143H213.414V134.891C213.414 131.949 211.844 130.18 209.078 130.18C207.18 130.18 205.891 131.059 205.246 132.5H205.176V130.438H201.754V143ZM220.75 143.258C223.984 143.258 226.246 141.641 226.246 139.18V139.168C226.246 137.316 225.168 136.285 222.543 135.734L220.41 135.277C219.145 135.008 218.711 134.586 218.711 133.941V133.93C218.711 133.121 219.449 132.594 220.633 132.594C221.898 132.594 222.637 133.273 222.754 134.176L222.766 134.27H225.918V134.152C225.836 131.949 223.973 130.18 220.633 130.18C217.434 130.18 215.371 131.727 215.371 134.117V134.129C215.371 136.004 216.602 137.223 219.039 137.738L221.172 138.184C222.402 138.453 222.824 138.84 222.824 139.508V139.52C222.824 140.328 222.039 140.832 220.75 140.832C219.379 140.832 218.641 140.258 218.418 139.273L218.395 139.168H215.055L215.066 139.273C215.336 141.652 217.27 143.258 220.75 143.258ZM236.43 143.199C238.082 143.199 239.418 142.414 240.133 141.125H240.203V143H243.625V134.387C243.625 131.855 241.527 130.18 238.281 130.18C234.965 130.18 232.973 131.844 232.785 134.164L232.773 134.305H235.902L235.926 134.199C236.09 133.391 236.863 132.793 238.141 132.793C239.477 132.793 240.203 133.484 240.203 134.598V135.371L237.098 135.559C233.98 135.758 232.211 137.094 232.211 139.379V139.402C232.211 141.617 233.91 143.199 236.43 143.199ZM235.598 139.227V139.203C235.598 138.312 236.289 137.75 237.613 137.668L240.203 137.504V138.406C240.203 139.719 239.078 140.703 237.543 140.703C236.359 140.703 235.598 140.152 235.598 139.227ZM253.281 143.258C256.445 143.258 258.402 140.797 258.402 136.719V136.707C258.402 132.617 256.445 130.18 253.293 130.18C251.5 130.18 250.105 131.094 249.414 132.617H249.344V126.09H245.922V143H249.344V140.855H249.414C250.094 142.344 251.477 143.258 253.281 143.258ZM252.145 140.422C250.48 140.422 249.344 138.992 249.344 136.719V136.707C249.344 134.445 250.492 133.016 252.145 133.016C253.844 133.016 254.922 134.41 254.922 136.707V136.719C254.922 139.004 253.844 140.422 252.145 140.422ZM265.926 143.258C269.723 143.258 272.148 140.82 272.148 136.719V136.695C272.148 132.629 269.676 130.18 265.914 130.18C262.164 130.18 259.703 132.652 259.703 136.695V136.719C259.703 140.809 262.105 143.258 265.926 143.258ZM265.938 140.574C264.25 140.574 263.184 139.18 263.184 136.719V136.695C263.184 134.27 264.262 132.863 265.914 132.863C267.578 132.863 268.668 134.27 268.668 136.695V136.719C268.668 139.168 267.602 140.574 265.938 140.574ZM278.195 143.258C280.094 143.258 281.383 142.367 282.027 140.926H282.098V143H285.52V130.438H282.098V137.656C282.098 139.297 281.125 140.422 279.59 140.422C278.055 140.422 277.281 139.473 277.281 137.832V130.438H273.859V138.547C273.859 141.488 275.43 143.258 278.195 143.258ZM292.738 143.258C293.453 143.258 294.004 143.188 294.391 143.129V140.621C294.18 140.645 293.957 140.68 293.652 140.68C292.621 140.68 292.094 140.281 292.094 139.109V133.016H294.391V130.438H292.094V127.367H288.637V130.438H286.891V133.016H288.637V139.484C288.637 142.18 289.949 143.258 292.738 143.258ZM51.3906 175.258C53.2891 175.258 54.5781 174.367 55.2227 172.926H55.293V175H58.7148V162.438H55.293V169.656C55.293 171.297 54.3203 172.422 52.7852 172.422C51.25 172.422 50.4766 171.473 50.4766 169.832V162.438H47.0547V170.547C47.0547 173.488 48.625 175.258 51.3906 175.258ZM60.9414 175H64.3633V167.781C64.3633 166.141 65.3359 165.016 66.8711 165.016C68.4062 165.016 69.1797 165.953 69.1797 167.594V175H72.6016V166.891C72.6016 163.949 71.0312 162.18 68.2656 162.18C66.3672 162.18 65.0781 163.059 64.4336 164.5H64.3633V162.438H60.9414V175ZM79.9375 175.258C83.1719 175.258 85.4336 173.641 85.4336 171.18V171.168C85.4336 169.316 84.3555 168.285 81.7305 167.734L79.5977 167.277C78.332 167.008 77.8984 166.586 77.8984 165.941V165.93C77.8984 165.121 78.6367 164.594 79.8203 164.594C81.0859 164.594 81.8242 165.273 81.9414 166.176L81.9531 166.27H85.1055V166.152C85.0234 163.949 83.1602 162.18 79.8203 162.18C76.6211 162.18 74.5586 163.727 74.5586 166.117V166.129C74.5586 168.004 75.7891 169.223 78.2266 169.738L80.3594 170.184C81.5898 170.453 82.0117 170.84 82.0117 171.508V171.52C82.0117 172.328 81.2266 172.832 79.9375 172.832C78.5664 172.832 77.8281 172.258 77.6055 171.273L77.582 171.168H74.2422L74.2539 171.273C74.5234 173.652 76.457 175.258 79.9375 175.258ZM90.8594 175.199C92.5117 175.199 93.8477 174.414 94.5625 173.125H94.6328V175H98.0547V166.387C98.0547 163.855 95.957 162.18 92.7109 162.18C89.3945 162.18 87.4023 163.844 87.2148 166.164L87.2031 166.305H90.332L90.3555 166.199C90.5195 165.391 91.293 164.793 92.5703 164.793C93.9062 164.793 94.6328 165.484 94.6328 166.598V167.371L91.5273 167.559C88.4102 167.758 86.6406 169.094 86.6406 171.379V171.402C86.6406 173.617 88.3398 175.199 90.8594 175.199ZM90.0273 171.227V171.203C90.0273 170.312 90.7188 169.75 92.043 169.668L94.6328 169.504V170.406C94.6328 171.719 93.5078 172.703 91.9727 172.703C90.7891 172.703 90.0273 172.152 90.0273 171.227ZM101.184 175H104.605V165.016H107.02V162.438H104.523V161.559C104.523 160.656 105.027 160.176 106.164 160.176C106.48 160.176 106.809 160.188 107.043 160.234V157.973C106.645 157.891 105.953 157.832 105.32 157.832C102.355 157.832 101.184 158.969 101.184 161.43V162.438H99.4727V165.016H101.184V175ZM113.652 175.258C117.238 175.258 118.973 173.137 119.359 171.285L119.395 171.156H116.254L116.23 171.227C115.984 171.93 115.129 172.703 113.723 172.703C111.977 172.703 110.887 171.531 110.852 169.527H119.5V168.473C119.5 164.676 117.191 162.18 113.512 162.18C109.832 162.18 107.477 164.734 107.477 168.73V168.742C107.477 172.762 109.809 175.258 113.652 175.258ZM113.57 164.734C114.988 164.734 116.008 165.637 116.219 167.371H110.887C111.109 165.672 112.164 164.734 113.57 164.734ZM131.898 179.359C135.672 179.359 138.027 177.449 138.027 174.648V162.438H134.605V164.582H134.535C133.855 163.117 132.484 162.18 130.715 162.18C127.539 162.18 125.57 164.559 125.57 168.566V168.578C125.57 172.48 127.516 174.824 130.656 174.824C132.473 174.824 133.879 173.992 134.535 172.68H134.605V174.602C134.605 176.008 133.668 176.922 131.898 176.922C130.469 176.922 129.555 176.383 129.285 175.762L129.25 175.68H125.922L125.934 175.785C126.262 177.801 128.441 179.359 131.898 179.359ZM131.84 172.316C130.129 172.316 129.051 170.922 129.051 168.66V168.648C129.051 166.398 130.141 165.016 131.84 165.016C133.504 165.016 134.617 166.41 134.617 168.648V168.66C134.617 170.91 133.516 172.316 131.84 172.316ZM144.016 175.199C145.668 175.199 147.004 174.414 147.719 173.125H147.789V175H151.211V166.387C151.211 163.855 149.113 162.18 145.867 162.18C142.551 162.18 140.559 163.844 140.371 166.164L140.359 166.305H143.488L143.512 166.199C143.676 165.391 144.449 164.793 145.727 164.793C147.062 164.793 147.789 165.484 147.789 166.598V167.371L144.684 167.559C141.566 167.758 139.797 169.094 139.797 171.379V171.402C139.797 173.617 141.496 175.199 144.016 175.199ZM143.184 171.227V171.203C143.184 170.312 143.875 169.75 145.199 169.668L147.789 169.504V170.406C147.789 171.719 146.664 172.703 145.129 172.703C143.945 172.703 143.184 172.152 143.184 171.227ZM158.418 175.258C159.133 175.258 159.684 175.188 160.07 175.129V172.621C159.859 172.645 159.637 172.68 159.332 172.68C158.301 172.68 157.773 172.281 157.773 171.109V165.016H160.07V162.438H157.773V159.367H154.316V162.438H152.57V165.016H154.316V171.484C154.316 174.18 155.629 175.258 158.418 175.258ZM162.039 175H165.461V167.805C165.461 166.164 166.434 165.016 167.945 165.016C169.504 165.016 170.371 166.059 170.371 167.816V175H173.793V167.113C173.793 164.078 172.105 162.18 169.387 162.18C167.5 162.18 166.176 163.047 165.531 164.605H165.461V158.09H162.039V175ZM181.715 175.258C185.301 175.258 187.035 173.137 187.422 171.285L187.457 171.156H184.316L184.293 171.227C184.047 171.93 183.191 172.703 181.785 172.703C180.039 172.703 178.949 171.531 178.914 169.527H187.562V168.473C187.562 164.676 185.254 162.18 181.574 162.18C177.895 162.18 175.539 164.734 175.539 168.73V168.742C175.539 172.762 177.871 175.258 181.715 175.258ZM181.633 164.734C183.051 164.734 184.07 165.637 184.281 167.371H178.949C179.172 165.672 180.227 164.734 181.633 164.734ZM189.332 175H192.754V167.969C192.754 166.141 193.738 165.133 195.426 165.133C195.918 165.133 196.387 165.203 196.668 165.32V162.309C196.41 162.238 196.059 162.18 195.684 162.18C194.219 162.18 193.199 163.082 192.824 164.629H192.754V162.438H189.332V175ZM199.855 160.82C200.887 160.82 201.684 160.012 201.684 159.039C201.684 158.066 200.887 157.258 199.855 157.258C198.824 157.258 198.027 158.066 198.027 159.039C198.027 160.012 198.824 160.82 199.855 160.82ZM198.145 175H201.566V162.438H198.145V175ZM203.863 175H207.285V167.781C207.285 166.141 208.258 165.016 209.793 165.016C211.328 165.016 212.102 165.953 212.102 167.594V175H215.523V166.891C215.523 163.949 213.953 162.18 211.188 162.18C209.289 162.18 208 163.059 207.355 164.5H207.285V162.438H203.863V175ZM223.562 179.359C227.336 179.359 229.691 177.449 229.691 174.648V162.438H226.27V164.582H226.199C225.52 163.117 224.148 162.18 222.379 162.18C219.203 162.18 217.234 164.559 217.234 168.566V168.578C217.234 172.48 219.18 174.824 222.32 174.824C224.137 174.824 225.543 173.992 226.199 172.68H226.27V174.602C226.27 176.008 225.332 176.922 223.562 176.922C222.133 176.922 221.219 176.383 220.949 175.762L220.914 175.68H217.586L217.598 175.785C217.926 177.801 220.105 179.359 223.562 179.359ZM223.504 172.316C221.793 172.316 220.715 170.922 220.715 168.66V168.648C220.715 166.398 221.805 165.016 223.504 165.016C225.168 165.016 226.281 166.41 226.281 168.648V168.66C226.281 170.91 225.18 172.316 223.504 172.316ZM237.109 175.258C240.344 175.258 242.605 173.641 242.605 171.18V171.168C242.605 169.316 241.527 168.285 238.902 167.734L236.77 167.277C235.504 167.008 235.07 166.586 235.07 165.941V165.93C235.07 165.121 235.809 164.594 236.992 164.594C238.258 164.594 238.996 165.273 239.113 166.176L239.125 166.27H242.277V166.152C242.195 163.949 240.332 162.18 236.992 162.18C233.793 162.18 231.73 163.727 231.73 166.117V166.129C231.73 168.004 232.961 169.223 235.398 169.738L237.531 170.184C238.762 170.453 239.184 170.84 239.184 171.508V171.52C239.184 172.328 238.398 172.832 237.109 172.832C235.738 172.832 235 172.258 234.777 171.273L234.754 171.168H231.414L231.426 171.273C231.695 173.652 233.629 175.258 237.109 175.258Z" fill="#011627"/>
<path d="M199.143 423.161C199.717 422.587 199.739 421.634 199.176 421.071L189.616 411.512L198.894 402.233C199.457 401.67 199.457 400.696 198.883 400.122C198.299 399.538 197.335 399.548 196.772 400.111L187.494 409.39L177.924 399.819C177.361 399.256 176.408 399.278 175.834 399.852C175.25 400.436 175.239 401.378 175.802 401.941L185.372 411.512L176.094 420.79C175.531 421.353 175.509 422.327 176.094 422.912C176.668 423.485 177.653 423.475 178.216 422.912L187.494 413.633L197.054 423.193C197.617 423.756 198.559 423.745 199.143 423.161Z" fill="#CC2A14"/>
<path d="M132.949 458.541H135.556V448.237H139.163V446.088H129.351V448.237H132.949V458.541ZM140.498 458.541H143.104V453.294H148.714V458.541H151.32V446.088H148.714V451.145H143.104V446.088H140.498V458.541ZM153.285 458.541H155.892V446.088H153.285V458.541ZM162.405 458.757C165.546 458.757 167.427 457.238 167.427 454.847V454.839C167.427 452.88 166.254 451.818 163.647 451.3L162.327 451.033C160.894 450.748 160.256 450.291 160.256 449.505V449.497C160.256 448.608 161.058 447.995 162.396 447.987C163.682 447.987 164.579 448.582 164.709 449.557L164.718 449.661H167.177L167.168 449.497C167.048 447.313 165.278 445.872 162.396 445.872C159.634 445.872 157.65 447.374 157.65 449.652V449.661C157.65 451.533 158.892 452.707 161.352 453.199L162.664 453.458C164.208 453.777 164.821 454.2 164.821 455.046V455.055C164.821 456.004 163.915 456.634 162.474 456.634C161.05 456.634 160.023 456.03 159.859 455.063L159.842 454.968H157.382L157.391 455.106C157.537 457.402 159.445 458.757 162.405 458.757ZM176.864 458.757C180.005 458.757 181.886 457.238 181.886 454.847V454.839C181.886 452.88 180.712 451.818 178.106 451.3L176.786 451.033C175.353 450.748 174.715 450.291 174.715 449.505V449.497C174.715 448.608 175.517 447.995 176.855 447.987C178.141 447.987 179.038 448.582 179.168 449.557L179.176 449.661H181.636L181.627 449.497C181.506 447.313 179.737 445.872 176.855 445.872C174.093 445.872 172.108 447.374 172.108 449.652V449.661C172.108 451.533 173.351 452.707 175.811 453.199L177.122 453.458C178.667 453.777 179.28 454.2 179.28 455.046V455.055C179.28 456.004 178.374 456.634 176.933 456.634C175.509 456.634 174.482 456.03 174.318 455.063L174.3 454.968H171.841L171.85 455.106C171.996 457.402 173.903 458.757 176.864 458.757ZM183.377 458.541H185.983V454.614H188.382C191.006 454.614 192.757 452.923 192.757 450.36V450.343C192.757 447.779 191.006 446.088 188.382 446.088H183.377V458.541ZM187.743 448.151C189.236 448.151 190.117 448.936 190.117 450.351V450.368C190.117 451.784 189.236 452.578 187.743 452.578H185.983V448.151H187.743ZM192.229 458.541H194.964L195.905 455.521H200.306L201.247 458.541H203.983L199.642 446.088H196.578L192.229 458.541ZM198.08 448.504H198.131L199.702 453.57H196.509L198.08 448.504ZM210.09 458.757C213.102 458.757 215.285 456.867 215.527 454.217L215.536 454.122H212.998L212.981 454.209C212.645 455.684 211.592 456.547 210.09 456.547C208.097 456.547 206.819 454.925 206.819 452.302V452.293C206.819 449.687 208.097 448.082 210.09 448.082C211.643 448.082 212.662 448.979 212.955 450.351L212.99 450.498H215.527L215.518 450.42C215.277 447.779 213.111 445.872 210.09 445.872C206.457 445.872 204.161 448.289 204.161 452.302V452.31C204.161 456.323 206.448 458.757 210.09 458.757ZM217.043 458.541H225.294V456.392H219.65V453.259H224.974V451.223H219.65V448.237H225.294V446.088H217.043V458.541ZM230.467 458.541H233.073V446.088H230.467V458.541ZM239.586 458.757C242.727 458.757 244.609 457.238 244.609 454.847V454.839C244.609 452.88 243.435 451.818 240.829 451.3L239.508 451.033C238.076 450.748 237.437 450.291 237.437 449.505V449.497C237.437 448.608 238.24 447.995 239.577 447.987C240.863 447.987 241.761 448.582 241.89 449.557L241.899 449.661H244.358L244.35 449.497C244.229 447.313 242.46 445.872 239.577 445.872C236.816 445.872 234.831 447.374 234.831 449.652V449.661C234.831 451.533 236.074 452.707 238.533 453.199L239.845 453.458C241.39 453.777 242.002 454.2 242.002 455.046V455.055C242.002 456.004 241.096 456.634 239.655 456.634C238.231 456.634 237.204 456.03 237.04 455.063L237.023 454.968H234.563L234.572 455.106C234.719 457.402 236.626 458.757 239.586 458.757ZM113.44 483.757C117.142 483.757 119.446 481.28 119.446 477.319V477.302C119.446 473.349 117.133 470.872 113.44 470.872C109.755 470.872 107.433 473.34 107.433 477.302V477.319C107.433 481.28 109.737 483.757 113.44 483.757ZM113.44 481.547C111.394 481.547 110.091 479.925 110.091 477.319V477.302C110.091 474.695 111.403 473.082 113.44 473.082C115.485 473.082 116.788 474.704 116.788 477.302V477.319C116.788 479.899 115.511 481.547 113.44 481.547ZM123.966 483.541H127.142L131.31 471.088H128.419L125.579 480.874H125.528L122.68 471.088H119.797L123.966 483.541ZM132.481 483.541H140.731V481.392H135.087V478.259H140.412V476.223H135.087V473.237H140.731V471.088H132.481V483.541ZM142.506 483.541H145.113V479.028H147.201L149.523 483.541H152.474L149.851 478.639C151.231 478.096 152.103 476.732 152.103 475.092V475.075C152.103 472.572 150.446 471.088 147.65 471.088H142.506V483.541ZM145.113 477.051V473.125H147.331C148.616 473.125 149.436 473.884 149.436 475.075V475.092C149.436 476.318 148.66 477.051 147.365 477.051H145.113ZM159.263 483.757C162.275 483.757 164.459 481.867 164.7 479.217L164.709 479.122H162.172L162.154 479.209C161.818 480.684 160.765 481.547 159.263 481.547C157.27 481.547 155.993 479.925 155.993 477.302V477.293C155.993 474.687 157.27 473.082 159.263 473.082C160.817 473.082 161.835 473.979 162.129 475.351L162.163 475.498H164.7L164.692 475.42C164.45 472.779 162.284 470.872 159.263 470.872C155.63 470.872 153.335 473.289 153.335 477.302V477.31C153.335 481.323 155.622 483.757 159.263 483.757ZM164.991 483.541H167.727L168.668 480.521H173.069L174.009 483.541H176.745L172.404 471.088H169.341L164.991 483.541ZM170.842 473.504H170.894L172.465 478.57H169.272L170.842 473.504ZM177.916 483.541H180.523V479.614H182.922C185.545 479.614 187.297 477.923 187.297 475.36V475.343C187.297 472.779 185.545 471.088 182.922 471.088H177.916V483.541ZM182.283 473.151C183.776 473.151 184.656 473.936 184.656 475.351V475.368C184.656 476.784 183.776 477.578 182.283 477.578H180.523V473.151H182.283ZM186.768 483.541H189.504L190.445 480.521H194.846L195.787 483.541H198.522L194.181 471.088H191.118L186.768 483.541ZM192.619 473.504H192.671L194.242 478.57H191.049L192.619 473.504ZM204.63 483.757C207.642 483.757 209.825 481.867 210.067 479.217L210.075 479.122H207.538L207.521 479.209C207.184 480.684 206.131 481.547 204.63 481.547C202.636 481.547 201.359 479.925 201.359 477.302V477.293C201.359 474.687 202.636 473.082 204.63 473.082C206.183 473.082 207.201 473.979 207.495 475.351L207.529 475.498H210.067L210.058 475.42C209.816 472.779 207.65 470.872 204.63 470.872C200.997 470.872 198.701 473.289 198.701 477.302V477.31C198.701 481.323 200.988 483.757 204.63 483.757ZM211.583 483.541H214.189V471.088H211.583V483.541ZM219.132 483.541H221.738V473.237H225.345V471.088H215.533V473.237H219.132V483.541ZM224.195 483.541H226.931L227.871 480.521H232.273L233.213 483.541H235.949L231.608 471.088H228.545L224.195 483.541ZM230.046 473.504H230.098L231.669 478.57H228.476L230.046 473.504ZM238.406 483.541H241.012V473.237H244.62V471.088H234.807V473.237H238.406V483.541ZM245.955 483.541H254.205V481.392H248.561V478.259H253.886V476.223H248.561V473.237H254.205V471.088H245.955V483.541ZM255.98 483.541H260.735C264.472 483.541 266.673 481.22 266.673 477.267V477.25C266.673 473.306 264.464 471.088 260.735 471.088H255.98V483.541ZM258.587 481.384V473.237H260.425C262.712 473.237 264.015 474.661 264.015 477.258V477.276C264.015 479.968 262.755 481.384 260.425 481.384H258.587Z" fill="#CC2A14"/>
</g>
<defs>
<linearGradient id="paint0_linear" x1="333.482" y1="391.741" x2="-152.754" y2="1024.98" gradientUnits="userSpaceOnUse">
<stop stop-color="#2FC6B7"/>
<stop offset="0.991219" stop-color="#FFD499"/>
</linearGradient>
<clipPath id="clip0">
<rect width="375" height="812" fill="white"/>
</clipPath>
</defs>
</svg>
