<svg width="375" height="812" viewBox="0 0 375 812" fill="none" xmlns="http://www.w3.org/2000/svg">
<g clip-path="url(#clip0)">
<rect width="375" height="812" fill="#FDFFFC"/>
<path d="M-80.4361 676.723C-270.508 588.099 -136.001 681.604 -121.701 809.623C-93.8105 975.708 -5.19612 1073.55 72.7013 981.115C150.599 888.676 397.732 1278.25 639.4 1063.38C881.068 848.511 443 676.723 240.5 656.5C131.681 645.633 157.153 787.503 -80.4361 676.723Z" fill="url(#paint0_linear)"/>
<path d="M46.2285 252H48.2939L49.4629 248.572H54.3496L55.5098 252H57.5752L52.9697 239.317H50.8428L46.2285 252ZM51.8887 241.418H51.9238L53.8135 246.99H49.9902L51.8887 241.418ZM62.4795 252.185C64.7031 252.185 66.25 250.761 66.4521 248.906L66.4609 248.845H64.6328L64.624 248.915C64.3955 249.917 63.6484 250.594 62.4795 250.594C61.0117 250.594 60.0361 249.407 60.0361 247.386V247.377C60.0361 245.399 60.9941 244.169 62.4707 244.169C63.71 244.169 64.4131 244.934 64.6152 245.839L64.6328 245.909H66.4434L66.4346 245.848C66.2764 244.107 64.835 242.578 62.4531 242.578C59.8164 242.578 58.0938 244.433 58.0938 247.359V247.368C58.0938 250.33 59.7812 252.185 62.4795 252.185ZM71.7783 252.185C74.002 252.185 75.5488 250.761 75.751 248.906L75.7598 248.845H73.9316L73.9229 248.915C73.6943 249.917 72.9473 250.594 71.7783 250.594C70.3105 250.594 69.335 249.407 69.335 247.386V247.377C69.335 245.399 70.293 244.169 71.7695 244.169C73.0088 244.169 73.7119 244.934 73.9141 245.839L73.9316 245.909H75.7422L75.7334 245.848C75.5752 244.107 74.1338 242.578 71.752 242.578C69.1152 242.578 67.3926 244.433 67.3926 247.359V247.368C67.3926 250.33 69.0801 252.185 71.7783 252.185ZM81.0508 252.185C83.292 252.185 84.7158 250.849 85.0146 249.381L85.0322 249.284H83.2305L83.2041 249.354C82.9668 250.049 82.2197 250.629 81.0947 250.629C79.583 250.629 78.625 249.609 78.5898 247.86H85.1377V247.219C85.1377 244.441 83.5469 242.578 80.9541 242.578C78.3613 242.578 76.6914 244.512 76.6914 247.403V247.412C76.6914 250.33 78.335 252.185 81.0508 252.185ZM80.9629 244.134C82.2021 244.134 83.0986 244.916 83.2568 246.516H78.6162C78.7832 244.969 79.7324 244.134 80.9629 244.134ZM90.0771 252.185C92.2568 252.185 93.8389 251.024 93.8389 249.337V249.328C93.8389 248.001 93.1182 247.254 91.2285 246.814L89.7256 246.472C88.7324 246.234 88.3545 245.848 88.3545 245.276V245.268C88.3545 244.529 88.9961 244.046 90.0156 244.046C91.0879 244.046 91.7207 244.608 91.835 245.417L91.8438 245.479H93.6279L93.6191 245.373C93.5225 243.8 92.2041 242.578 90.0156 242.578C87.8887 242.578 86.4473 243.712 86.4473 245.364V245.373C86.4473 246.718 87.3174 247.562 89.0752 247.966L90.5869 248.309C91.5801 248.546 91.9141 248.889 91.9141 249.486V249.495C91.9141 250.242 91.2285 250.717 90.0859 250.717C88.917 250.717 88.2842 250.216 88.1084 249.363L88.0908 249.275H86.21L86.2188 249.354C86.4121 251.042 87.7656 252.185 90.0771 252.185ZM98.7783 252.185C100.958 252.185 102.54 251.024 102.54 249.337V249.328C102.54 248.001 101.819 247.254 99.9297 246.814L98.4268 246.472C97.4336 246.234 97.0557 245.848 97.0557 245.276V245.268C97.0557 244.529 97.6973 244.046 98.7168 244.046C99.7891 244.046 100.422 244.608 100.536 245.417L100.545 245.479H102.329L102.32 245.373C102.224 243.8 100.905 242.578 98.7168 242.578C96.5898 242.578 95.1484 243.712 95.1484 245.364V245.373C95.1484 246.718 96.0186 247.562 97.7764 247.966L99.2881 248.309C100.281 248.546 100.615 248.889 100.615 249.486V249.495C100.615 250.242 99.9297 250.717 98.7871 250.717C97.6182 250.717 96.9854 250.216 96.8096 249.363L96.792 249.275H94.9111L94.9199 249.354C95.1133 251.042 96.4668 252.185 98.7783 252.185ZM108.763 255.085C110.573 255.085 111.54 254.347 112.226 252.431L115.671 242.754H113.667L111.338 250.277H111.276L108.947 242.754H106.891L110.257 252.009L110.099 252.448C109.782 253.345 109.29 253.582 108.394 253.582C108.139 253.582 107.919 253.547 107.77 253.512V254.997C107.998 255.041 108.394 255.085 108.763 255.085ZM120.399 252.185C123.045 252.185 124.785 250.356 124.785 247.377V247.359C124.785 244.397 123.027 242.578 120.391 242.578C117.763 242.578 116.014 244.406 116.014 247.359V247.377C116.014 250.348 117.745 252.185 120.399 252.185ZM120.408 250.594C118.923 250.594 117.956 249.425 117.956 247.377V247.359C117.956 245.338 118.932 244.169 120.391 244.169C121.876 244.169 122.843 245.338 122.843 247.359V247.377C122.843 249.416 121.894 250.594 120.408 250.594ZM129.399 252.185C130.806 252.185 131.746 251.543 132.229 250.611H132.273V252H134.181V242.754H132.273V248.15C132.273 249.592 131.412 250.55 130.076 250.55C128.758 250.55 128.107 249.776 128.107 248.379V242.754H126.209V248.748C126.209 250.875 127.369 252.185 129.399 252.185ZM136.062 252H137.96V246.489C137.96 245.109 138.716 244.31 139.938 244.31C140.307 244.31 140.641 244.354 140.79 244.415V242.648C140.641 242.622 140.403 242.578 140.131 242.578C139.076 242.578 138.303 243.255 138.004 244.336H137.96V242.754H136.062V252ZM146.178 252H148.085V244.266H149.931V242.754H148.05V241.805C148.05 240.987 148.454 240.574 149.307 240.574C149.544 240.574 149.781 240.592 149.966 240.618V239.212C149.711 239.168 149.289 239.133 148.902 239.133C147.021 239.133 146.178 239.977 146.178 241.77V242.754H144.903V244.266H146.178V252ZM153.631 252.167C154.853 252.167 155.925 251.534 156.461 250.541H156.496V252H158.403V245.628C158.403 243.773 156.971 242.578 154.712 242.578C152.436 242.578 151.056 243.8 150.924 245.391L150.915 245.487H152.708L152.726 245.408C152.884 244.67 153.561 244.151 154.659 244.151C155.837 244.151 156.496 244.767 156.496 245.786V246.48L153.982 246.63C151.794 246.762 150.546 247.746 150.546 249.354V249.372C150.546 251.033 151.785 252.167 153.631 252.167ZM152.462 249.328V249.311C152.462 248.528 153.095 248.027 154.237 247.957L156.496 247.816V248.537C156.496 249.741 155.485 250.646 154.149 250.646C153.13 250.646 152.462 250.137 152.462 249.328ZM162.771 252H164.811L168.124 242.754H166.146L163.826 250.146H163.782L161.462 242.754H159.44L162.771 252ZM172.835 252.185C175.48 252.185 177.221 250.356 177.221 247.377V247.359C177.221 244.397 175.463 242.578 172.826 242.578C170.198 242.578 168.449 244.406 168.449 247.359V247.377C168.449 250.348 170.181 252.185 172.835 252.185ZM172.844 250.594C171.358 250.594 170.392 249.425 170.392 247.377V247.359C170.392 245.338 171.367 244.169 172.826 244.169C174.312 244.169 175.278 245.338 175.278 247.359V247.377C175.278 249.416 174.329 250.594 172.844 250.594ZM178.688 252H180.587V246.489C180.587 245.109 181.343 244.31 182.564 244.31C182.934 244.31 183.268 244.354 183.417 244.415V242.648C183.268 242.622 183.03 242.578 182.758 242.578C181.703 242.578 180.93 243.255 180.631 244.336H180.587V242.754H178.688V252ZM185.623 241.33C186.247 241.33 186.73 240.838 186.73 240.24C186.73 239.634 186.247 239.142 185.623 239.142C185.008 239.142 184.516 239.634 184.516 240.24C184.516 240.838 185.008 241.33 185.623 241.33ZM184.674 252H186.572V242.754H184.674V252ZM191.775 252.185C192.162 252.185 192.522 252.141 192.742 252.105V250.638C192.602 250.655 192.435 250.673 192.232 250.673C191.433 250.673 191.011 250.392 191.011 249.451V244.266H192.742V242.754H191.011V240.346H189.068V242.754H187.741V244.266H189.068V249.565C189.068 251.411 189.947 252.185 191.775 252.185ZM198.033 252.185C200.274 252.185 201.698 250.849 201.997 249.381L202.015 249.284H200.213L200.187 249.354C199.949 250.049 199.202 250.629 198.077 250.629C196.565 250.629 195.607 249.609 195.572 247.86H202.12V247.219C202.12 244.441 200.529 242.578 197.937 242.578C195.344 242.578 193.674 244.512 193.674 247.403V247.412C193.674 250.33 195.317 252.185 198.033 252.185ZM197.945 244.134C199.185 244.134 200.081 244.916 200.239 246.516H195.599C195.766 244.969 196.715 244.134 197.945 244.134ZM210.716 252.185C212.896 252.185 214.478 251.024 214.478 249.337V249.328C214.478 248.001 213.757 247.254 211.867 246.814L210.364 246.472C209.371 246.234 208.993 245.848 208.993 245.276V245.268C208.993 244.529 209.635 244.046 210.654 244.046C211.727 244.046 212.359 244.608 212.474 245.417L212.482 245.479H214.267L214.258 245.373C214.161 243.8 212.843 242.578 210.654 242.578C208.527 242.578 207.086 243.712 207.086 245.364V245.373C207.086 246.718 207.956 247.562 209.714 247.966L211.226 248.309C212.219 248.546 212.553 248.889 212.553 249.486V249.495C212.553 250.242 211.867 250.717 210.725 250.717C209.556 250.717 208.923 250.216 208.747 249.363L208.729 249.275H206.849L206.857 249.354C207.051 251.042 208.404 252.185 210.716 252.185ZM215.954 255.076H217.853V250.444H217.896C218.441 251.517 219.505 252.185 220.814 252.185C223.135 252.185 224.655 250.33 224.655 247.386V247.377C224.655 244.424 223.144 242.578 220.788 242.578C219.47 242.578 218.45 243.246 217.896 244.345H217.853V242.754H215.954V255.076ZM220.296 250.55C218.863 250.55 217.844 249.302 217.844 247.386V247.377C217.844 245.452 218.854 244.204 220.296 244.204C221.781 244.204 222.722 245.408 222.722 247.377V247.386C222.722 249.337 221.79 250.55 220.296 250.55ZM228.848 252.167C230.069 252.167 231.142 251.534 231.678 250.541H231.713V252H233.62V245.628C233.62 243.773 232.188 242.578 229.929 242.578C227.652 242.578 226.272 243.8 226.141 245.391L226.132 245.487H227.925L227.942 245.408C228.101 244.67 228.777 244.151 229.876 244.151C231.054 244.151 231.713 244.767 231.713 245.786V246.48L229.199 246.63C227.011 246.762 225.763 247.746 225.763 249.354V249.372C225.763 251.033 227.002 252.167 228.848 252.167ZM227.679 249.328V249.311C227.679 248.528 228.312 248.027 229.454 247.957L231.713 247.816V248.537C231.713 249.741 230.702 250.646 229.366 250.646C228.347 250.646 227.679 250.137 227.679 249.328ZM239.438 252.185C241.662 252.185 243.209 250.761 243.411 248.906L243.42 248.845H241.592L241.583 248.915C241.354 249.917 240.607 250.594 239.438 250.594C237.971 250.594 236.995 249.407 236.995 247.386V247.377C236.995 245.399 237.953 244.169 239.43 244.169C240.669 244.169 241.372 244.934 241.574 245.839L241.592 245.909H243.402L243.394 245.848C243.235 244.107 241.794 242.578 239.412 242.578C236.775 242.578 235.053 244.433 235.053 247.359V247.368C235.053 250.33 236.74 252.185 239.438 252.185ZM248.711 252.185C250.952 252.185 252.376 250.849 252.675 249.381L252.692 249.284H250.891L250.864 249.354C250.627 250.049 249.88 250.629 248.755 250.629C247.243 250.629 246.285 249.609 246.25 247.86H252.798V247.219C252.798 244.441 251.207 242.578 248.614 242.578C246.021 242.578 244.352 244.512 244.352 247.403V247.412C244.352 250.33 245.995 252.185 248.711 252.185ZM248.623 244.134C249.862 244.134 250.759 244.916 250.917 246.516H246.276C246.443 244.969 247.393 244.134 248.623 244.134ZM257.737 252.185C259.917 252.185 261.499 251.024 261.499 249.337V249.328C261.499 248.001 260.778 247.254 258.889 246.814L257.386 246.472C256.393 246.234 256.015 245.848 256.015 245.276V245.268C256.015 244.529 256.656 244.046 257.676 244.046C258.748 244.046 259.381 244.608 259.495 245.417L259.504 245.479H261.288L261.279 245.373C261.183 243.8 259.864 242.578 257.676 242.578C255.549 242.578 254.107 243.712 254.107 245.364V245.373C254.107 246.718 254.978 247.562 256.735 247.966L258.247 248.309C259.24 248.546 259.574 248.889 259.574 249.486V249.495C259.574 250.242 258.889 250.717 257.746 250.717C256.577 250.717 255.944 250.216 255.769 249.363L255.751 249.275H253.87L253.879 249.354C254.072 251.042 255.426 252.185 257.737 252.185ZM267.186 252H269.093V244.266H270.938V242.754H269.058V241.805C269.058 240.987 269.462 240.574 270.314 240.574C270.552 240.574 270.789 240.592 270.974 240.618V239.212C270.719 239.168 270.297 239.133 269.91 239.133C268.029 239.133 267.186 239.977 267.186 241.77V242.754H265.911V244.266H267.186V252ZM272.433 252H274.331V246.489C274.331 245.109 275.087 244.31 276.309 244.31C276.678 244.31 277.012 244.354 277.161 244.415V242.648C277.012 242.622 276.774 242.578 276.502 242.578C275.447 242.578 274.674 243.255 274.375 244.336H274.331V242.754H272.433V252ZM281.907 252.185C284.553 252.185 286.293 250.356 286.293 247.377V247.359C286.293 244.397 284.535 242.578 281.898 242.578C279.271 242.578 277.521 244.406 277.521 247.359V247.377C277.521 250.348 279.253 252.185 281.907 252.185ZM281.916 250.594C280.431 250.594 279.464 249.425 279.464 247.377V247.359C279.464 245.338 280.439 244.169 281.898 244.169C283.384 244.169 284.351 245.338 284.351 247.359V247.377C284.351 249.416 283.401 250.594 281.916 250.594ZM287.761 252H289.659V246.287C289.659 245.092 290.459 244.204 291.584 244.204C292.656 244.204 293.333 244.89 293.333 245.962V252H295.196V246.217C295.196 245.048 295.979 244.204 297.104 244.204C298.229 244.204 298.87 244.898 298.87 246.103V252H300.777V245.646C300.777 243.791 299.582 242.578 297.754 242.578C296.436 242.578 295.346 243.272 294.871 244.397H294.827C294.458 243.237 293.526 242.578 292.252 242.578C291.039 242.578 290.099 243.22 289.703 244.187H289.659V242.754H287.761V252ZM50.1836 284.185C50.5703 284.185 50.9307 284.141 51.1504 284.105V282.638C51.0098 282.655 50.8428 282.673 50.6406 282.673C49.8408 282.673 49.4189 282.392 49.4189 281.451V276.266H51.1504V274.754H49.4189V272.346H47.4766V274.754H46.1494V276.266H47.4766V281.565C47.4766 283.411 48.3555 284.185 50.1836 284.185ZM52.7939 284H54.6924V278.647C54.6924 277.206 55.5625 276.204 56.8721 276.204C58.208 276.204 58.9814 277.118 58.9814 278.647V284H60.8799V278.287C60.8799 276.055 59.5791 274.578 57.6016 274.578C56.2217 274.578 55.2285 275.202 54.7363 276.274H54.6924V271.317H52.7939V284ZM66.6719 284.185C68.9131 284.185 70.3369 282.849 70.6357 281.381L70.6533 281.284H68.8516L68.8252 281.354C68.5879 282.049 67.8408 282.629 66.7158 282.629C65.2041 282.629 64.2461 281.609 64.2109 279.86H70.7588V279.219C70.7588 276.441 69.168 274.578 66.5752 274.578C63.9824 274.578 62.3125 276.512 62.3125 279.403V279.412C62.3125 282.33 63.9561 284.185 66.6719 284.185ZM66.584 276.134C67.8232 276.134 68.7197 276.916 68.8779 278.516H64.2373C64.4043 276.969 65.3535 276.134 66.584 276.134ZM76.4453 284H78.3525V276.266H80.1982V274.754H78.3174V273.805C78.3174 272.987 78.7217 272.574 79.5742 272.574C79.8115 272.574 80.0488 272.592 80.2334 272.618V271.212C79.9785 271.168 79.5566 271.133 79.1699 271.133C77.2891 271.133 76.4453 271.977 76.4453 273.77V274.754H75.1709V276.266H76.4453V284ZM83.8984 284.167C85.1201 284.167 86.1924 283.534 86.7285 282.541H86.7637V284H88.6709V277.628C88.6709 275.773 87.2383 274.578 84.9795 274.578C82.7031 274.578 81.3232 275.8 81.1914 277.391L81.1826 277.487H82.9756L82.9932 277.408C83.1514 276.67 83.8281 276.151 84.9268 276.151C86.1045 276.151 86.7637 276.767 86.7637 277.786V278.48L84.25 278.63C82.0615 278.762 80.8135 279.746 80.8135 281.354V281.372C80.8135 283.033 82.0527 284.167 83.8984 284.167ZM82.7295 281.328V281.311C82.7295 280.528 83.3623 280.027 84.5049 279.957L86.7637 279.816V280.537C86.7637 281.741 85.7529 282.646 84.417 282.646C83.3975 282.646 82.7295 282.137 82.7295 281.328ZM93.0391 284H95.0781L98.3916 274.754H96.4141L94.0938 282.146H94.0498L91.7295 274.754H89.708L93.0391 284ZM103.103 284.185C105.748 284.185 107.488 282.356 107.488 279.377V279.359C107.488 276.397 105.73 274.578 103.094 274.578C100.466 274.578 98.7168 276.406 98.7168 279.359V279.377C98.7168 282.348 100.448 284.185 103.103 284.185ZM103.111 282.594C101.626 282.594 100.659 281.425 100.659 279.377V279.359C100.659 277.338 101.635 276.169 103.094 276.169C104.579 276.169 105.546 277.338 105.546 279.359V279.377C105.546 281.416 104.597 282.594 103.111 282.594ZM108.956 284H110.854V278.489C110.854 277.109 111.61 276.31 112.832 276.31C113.201 276.31 113.535 276.354 113.685 276.415V274.648C113.535 274.622 113.298 274.578 113.025 274.578C111.971 274.578 111.197 275.255 110.898 276.336H110.854V274.754H108.956V284ZM115.891 273.33C116.515 273.33 116.998 272.838 116.998 272.24C116.998 271.634 116.515 271.142 115.891 271.142C115.275 271.142 114.783 271.634 114.783 272.24C114.783 272.838 115.275 273.33 115.891 273.33ZM114.941 284H116.84V274.754H114.941V284ZM122.043 284.185C122.43 284.185 122.79 284.141 123.01 284.105V282.638C122.869 282.655 122.702 282.673 122.5 282.673C121.7 282.673 121.278 282.392 121.278 281.451V276.266H123.01V274.754H121.278V272.346H119.336V274.754H118.009V276.266H119.336V281.565C119.336 283.411 120.215 284.185 122.043 284.185ZM128.301 284.185C130.542 284.185 131.966 282.849 132.265 281.381L132.282 281.284H130.48L130.454 281.354C130.217 282.049 129.47 282.629 128.345 282.629C126.833 282.629 125.875 281.609 125.84 279.86H132.388V279.219C132.388 276.441 130.797 274.578 128.204 274.578C125.611 274.578 123.941 276.512 123.941 279.403V279.412C123.941 282.33 125.585 284.185 128.301 284.185ZM128.213 276.134C129.452 276.134 130.349 276.916 130.507 278.516H125.866C126.033 276.969 126.982 276.134 128.213 276.134ZM137.327 284.185C139.507 284.185 141.089 283.024 141.089 281.337V281.328C141.089 280.001 140.368 279.254 138.479 278.814L136.976 278.472C135.982 278.234 135.604 277.848 135.604 277.276V277.268C135.604 276.529 136.246 276.046 137.266 276.046C138.338 276.046 138.971 276.608 139.085 277.417L139.094 277.479H140.878L140.869 277.373C140.772 275.8 139.454 274.578 137.266 274.578C135.139 274.578 133.697 275.712 133.697 277.364V277.373C133.697 278.718 134.567 279.562 136.325 279.966L137.837 280.309C138.83 280.546 139.164 280.889 139.164 281.486V281.495C139.164 282.242 138.479 282.717 137.336 282.717C136.167 282.717 135.534 282.216 135.358 281.363L135.341 281.275H133.46L133.469 281.354C133.662 283.042 135.016 284.185 137.327 284.185ZM146.222 287.076H148.12V282.444H148.164C148.709 283.517 149.772 284.185 151.082 284.185C153.402 284.185 154.923 282.33 154.923 279.386V279.377C154.923 276.424 153.411 274.578 151.056 274.578C149.737 274.578 148.718 275.246 148.164 276.345H148.12V274.754H146.222V287.076ZM150.563 282.55C149.131 282.55 148.111 281.302 148.111 279.386V279.377C148.111 277.452 149.122 276.204 150.563 276.204C152.049 276.204 152.989 277.408 152.989 279.377V279.386C152.989 281.337 152.058 282.55 150.563 282.55ZM159.115 284.167C160.337 284.167 161.409 283.534 161.945 282.541H161.98V284H163.888V277.628C163.888 275.773 162.455 274.578 160.196 274.578C157.92 274.578 156.54 275.8 156.408 277.391L156.399 277.487H158.192L158.21 277.408C158.368 276.67 159.045 276.151 160.144 276.151C161.321 276.151 161.98 276.767 161.98 277.786V278.48L159.467 278.63C157.278 278.762 156.03 279.746 156.03 281.354V281.372C156.03 283.033 157.27 284.167 159.115 284.167ZM157.946 281.328V281.311C157.946 280.528 158.579 280.027 159.722 279.957L161.98 279.816V280.537C161.98 281.741 160.97 282.646 159.634 282.646C158.614 282.646 157.946 282.137 157.946 281.328ZM169.785 287.261C172.396 287.261 174.03 285.854 174.03 283.745V274.754H172.123V276.327H172.079C171.534 275.281 170.515 274.578 169.214 274.578C166.867 274.578 165.32 276.397 165.32 279.298V279.307C165.32 282.189 166.85 284.009 169.17 284.009C170.497 284.009 171.552 283.367 172.079 282.365H172.123V283.631C172.123 284.923 171.288 285.731 169.776 285.731C168.59 285.731 167.79 285.327 167.535 284.738L167.5 284.668H165.619L165.628 284.747C165.909 286.162 167.412 287.261 169.785 287.261ZM169.706 282.462C168.203 282.462 167.263 281.267 167.263 279.333V279.324C167.263 277.417 168.203 276.204 169.706 276.204C171.147 276.204 172.123 277.426 172.123 279.324V279.333C172.123 281.24 171.156 282.462 169.706 282.462ZM179.857 284.185C182.099 284.185 183.522 282.849 183.821 281.381L183.839 281.284H182.037L182.011 281.354C181.773 282.049 181.026 282.629 179.901 282.629C178.39 282.629 177.432 281.609 177.396 279.86H183.944V279.219C183.944 276.441 182.354 274.578 179.761 274.578C177.168 274.578 175.498 276.512 175.498 279.403V279.412C175.498 282.33 177.142 284.185 179.857 284.185ZM179.77 276.134C181.009 276.134 181.905 276.916 182.063 278.516H177.423C177.59 276.969 178.539 276.134 179.77 276.134ZM190.896 284H192.856L194.781 277.074H194.825L196.768 284H198.745L201.276 274.754H199.396L197.708 282.031H197.664L195.73 274.754H193.902L191.978 282.031H191.942L190.255 274.754H188.356L190.896 284ZM203.465 273.33C204.089 273.33 204.572 272.838 204.572 272.24C204.572 271.634 204.089 271.142 203.465 271.142C202.85 271.142 202.357 271.634 202.357 272.24C202.357 272.838 202.85 273.33 203.465 273.33ZM202.516 284H204.414V274.754H202.516V284ZM209.617 284.185C210.004 284.185 210.364 284.141 210.584 284.105V282.638C210.443 282.655 210.276 282.673 210.074 282.673C209.274 282.673 208.853 282.392 208.853 281.451V276.266H210.584V274.754H208.853V272.346H206.91V274.754H205.583V276.266H206.91V281.565C206.91 283.411 207.789 284.185 209.617 284.185ZM212.228 284H214.126V278.647C214.126 277.206 214.996 276.204 216.306 276.204C217.642 276.204 218.415 277.118 218.415 278.647V284H220.313V278.287C220.313 276.055 219.013 274.578 217.035 274.578C215.655 274.578 214.662 275.202 214.17 276.274H214.126V271.317H212.228V284ZM228.531 284.167C229.753 284.167 230.825 283.534 231.361 282.541H231.396V284H233.304V277.628C233.304 275.773 231.871 274.578 229.612 274.578C227.336 274.578 225.956 275.8 225.824 277.391L225.815 277.487H227.608L227.626 277.408C227.784 276.67 228.461 276.151 229.56 276.151C230.737 276.151 231.396 276.767 231.396 277.786V278.48L228.883 278.63C226.694 278.762 225.446 279.746 225.446 281.354V281.372C225.446 283.033 226.686 284.167 228.531 284.167ZM227.362 281.328V281.311C227.362 280.528 227.995 280.027 229.138 279.957L231.396 279.816V280.537C231.396 281.741 230.386 282.646 229.05 282.646C228.03 282.646 227.362 282.137 227.362 281.328ZM242.269 284.185C244.448 284.185 246.03 283.024 246.03 281.337V281.328C246.03 280.001 245.31 279.254 243.42 278.814L241.917 278.472C240.924 278.234 240.546 277.848 240.546 277.276V277.268C240.546 276.529 241.188 276.046 242.207 276.046C243.279 276.046 243.912 276.608 244.026 277.417L244.035 277.479H245.819L245.811 277.373C245.714 275.8 244.396 274.578 242.207 274.578C240.08 274.578 238.639 275.712 238.639 277.364V277.373C238.639 278.718 239.509 279.562 241.267 279.966L242.778 280.309C243.771 280.546 244.105 280.889 244.105 281.486V281.495C244.105 282.242 243.42 282.717 242.277 282.717C241.108 282.717 240.476 282.216 240.3 281.363L240.282 281.275H238.401L238.41 281.354C238.604 283.042 239.957 284.185 242.269 284.185ZM248.535 273.33C249.159 273.33 249.643 272.838 249.643 272.24C249.643 271.634 249.159 271.142 248.535 271.142C247.92 271.142 247.428 271.634 247.428 272.24C247.428 272.838 247.92 273.33 248.535 273.33ZM247.586 284H249.484V274.754H247.586V284ZM251.444 284H253.343V278.612C253.343 277.171 254.204 276.204 255.54 276.204C256.858 276.204 257.509 276.986 257.509 278.375V284H259.416V278.015C259.416 275.888 258.247 274.578 256.217 274.578C254.819 274.578 253.87 275.211 253.387 276.151H253.343V274.754H251.444V284ZM265.305 287.261C267.915 287.261 269.55 285.854 269.55 283.745V274.754H267.643V276.327H267.599C267.054 275.281 266.034 274.578 264.733 274.578C262.387 274.578 260.84 276.397 260.84 279.298V279.307C260.84 282.189 262.369 284.009 264.689 284.009C266.017 284.009 267.071 283.367 267.599 282.365H267.643V283.631C267.643 284.923 266.808 285.731 265.296 285.731C264.109 285.731 263.31 285.327 263.055 284.738L263.02 284.668H261.139L261.147 284.747C261.429 286.162 262.932 287.261 265.305 287.261ZM265.226 282.462C263.723 282.462 262.782 281.267 262.782 279.333V279.324C262.782 277.417 263.723 276.204 265.226 276.204C266.667 276.204 267.643 277.426 267.643 279.324V279.333C267.643 281.24 266.676 282.462 265.226 282.462ZM271.501 284H273.399V271.317H271.501V284ZM279.297 284.185C281.538 284.185 282.962 282.849 283.261 281.381L283.278 281.284H281.477L281.45 281.354C281.213 282.049 280.466 282.629 279.341 282.629C277.829 282.629 276.871 281.609 276.836 279.86H283.384V279.219C283.384 276.441 281.793 274.578 279.2 274.578C276.607 274.578 274.938 276.512 274.938 279.403V279.412C274.938 282.33 276.581 284.185 279.297 284.185ZM279.209 276.134C280.448 276.134 281.345 276.916 281.503 278.516H276.862C277.029 276.969 277.979 276.134 279.209 276.134ZM291.76 284.185C292.146 284.185 292.507 284.141 292.727 284.105V282.638C292.586 282.655 292.419 282.673 292.217 282.673C291.417 282.673 290.995 282.392 290.995 281.451V276.266H292.727V274.754H290.995V272.346H289.053V274.754H287.726V276.266H289.053V281.565C289.053 283.411 289.932 284.185 291.76 284.185ZM296.875 284.167C298.097 284.167 299.169 283.534 299.705 282.541H299.74V284H301.647V277.628C301.647 275.773 300.215 274.578 297.956 274.578C295.68 274.578 294.3 275.8 294.168 277.391L294.159 277.487H295.952L295.97 277.408C296.128 276.67 296.805 276.151 297.903 276.151C299.081 276.151 299.74 276.767 299.74 277.786V278.48L297.227 278.63C295.038 278.762 293.79 279.746 293.79 281.354V281.372C293.79 283.033 295.029 284.167 296.875 284.167ZM295.706 281.328V281.311C295.706 280.528 296.339 280.027 297.481 279.957L299.74 279.816V280.537C299.74 281.741 298.729 282.646 297.394 282.646C296.374 282.646 295.706 282.137 295.706 281.328ZM303.493 287.076H305.392V282.444H305.436C305.98 283.517 307.044 284.185 308.354 284.185C310.674 284.185 312.194 282.33 312.194 279.386V279.377C312.194 276.424 310.683 274.578 308.327 274.578C307.009 274.578 305.989 275.246 305.436 276.345H305.392V274.754H303.493V287.076ZM307.835 282.55C306.402 282.55 305.383 281.302 305.383 279.386V279.377C305.383 277.452 306.394 276.204 307.835 276.204C309.32 276.204 310.261 277.408 310.261 279.377V279.386C310.261 281.337 309.329 282.55 307.835 282.55ZM314.312 284.132C314.954 284.132 315.464 283.622 315.464 282.98C315.464 282.33 314.954 281.829 314.312 281.829C313.662 281.829 313.152 282.33 313.152 282.98C313.152 283.622 313.662 284.132 314.312 284.132Z" fill="#011627"/>
<path d="M53.582 143.293C57.8477 143.293 60.4023 141.23 60.4023 137.984V137.973C60.4023 135.312 58.8086 133.871 55.2695 133.168L53.4766 132.805C51.5312 132.418 50.6641 131.797 50.6641 130.73V130.719C50.6641 129.512 51.7539 128.68 53.5703 128.668C55.3164 128.668 56.5352 129.477 56.7109 130.801L56.7227 130.941H60.0625L60.0508 130.719C59.8867 127.754 57.4844 125.797 53.5703 125.797C49.8203 125.797 47.125 127.836 47.125 130.93V130.941C47.125 133.484 48.8125 135.078 52.1523 135.746L53.9336 136.098C56.0312 136.531 56.8633 137.105 56.8633 138.254V138.266C56.8633 139.555 55.6328 140.41 53.6758 140.41C51.7422 140.41 50.3477 139.59 50.125 138.277L50.1016 138.148H46.7617L46.7734 138.336C46.9727 141.453 49.5625 143.293 53.582 143.293ZM66.0156 143.199C67.668 143.199 69.0039 142.414 69.7188 141.125H69.7891V143H73.2109V134.387C73.2109 131.855 71.1133 130.18 67.8672 130.18C64.5508 130.18 62.5586 131.844 62.3711 134.164L62.3594 134.305H65.4883L65.5117 134.199C65.6758 133.391 66.4492 132.793 67.7266 132.793C69.0625 132.793 69.7891 133.484 69.7891 134.598V135.371L66.6836 135.559C63.5664 135.758 61.7969 137.094 61.7969 139.379V139.402C61.7969 141.617 63.4961 143.199 66.0156 143.199ZM65.1836 139.227V139.203C65.1836 138.312 65.875 137.75 67.1992 137.668L69.7891 137.504V138.406C69.7891 139.719 68.6641 140.703 67.1289 140.703C65.9453 140.703 65.1836 140.152 65.1836 139.227ZM78.6719 143H82.5273L86.8398 130.438H83.2656L80.6758 139.977H80.6055L77.9805 130.438H74.3242L78.6719 143ZM93.3086 143.258C96.8945 143.258 98.6289 141.137 99.0156 139.285L99.0508 139.156H95.9102L95.8867 139.227C95.6406 139.93 94.7852 140.703 93.3789 140.703C91.6328 140.703 90.543 139.531 90.5078 137.527H99.1562V136.473C99.1562 132.676 96.8477 130.18 93.168 130.18C89.4883 130.18 87.1328 132.734 87.1328 136.73V136.742C87.1328 140.762 89.4648 143.258 93.3086 143.258ZM93.2266 132.734C94.6445 132.734 95.6641 133.637 95.875 135.371H90.543C90.7656 133.672 91.8203 132.734 93.2266 132.734ZM107.652 147.137C110.441 147.137 112.129 146.188 113.113 143.223L117.426 130.438H113.816L111.156 140.258H111.062L108.414 130.438H104.652L109.094 143L108.941 143.41C108.637 144.266 108.074 144.559 107.055 144.559C106.551 144.559 106.152 144.488 105.906 144.441V146.984C106.305 147.055 106.984 147.137 107.652 147.137ZM123.941 143.258C127.738 143.258 130.164 140.82 130.164 136.719V136.695C130.164 132.629 127.691 130.18 123.93 130.18C120.18 130.18 117.719 132.652 117.719 136.695V136.719C117.719 140.809 120.121 143.258 123.941 143.258ZM123.953 140.574C122.266 140.574 121.199 139.18 121.199 136.719V136.695C121.199 134.27 122.277 132.863 123.93 132.863C125.594 132.863 126.684 134.27 126.684 136.695V136.719C126.684 139.168 125.617 140.574 123.953 140.574ZM136.211 143.258C138.109 143.258 139.398 142.367 140.043 140.926H140.113V143H143.535V130.438H140.113V137.656C140.113 139.297 139.141 140.422 137.605 140.422C136.07 140.422 135.297 139.473 135.297 137.832V130.438H131.875V138.547C131.875 141.488 133.445 143.258 136.211 143.258ZM145.762 143H149.184V135.969C149.184 134.141 150.168 133.133 151.855 133.133C152.348 133.133 152.816 133.203 153.098 133.32V130.309C152.84 130.238 152.488 130.18 152.113 130.18C150.648 130.18 149.629 131.082 149.254 132.629H149.184V130.438H145.762V143ZM160.176 143H163.598V133.016H166.012V130.438H163.516V129.559C163.516 128.656 164.02 128.176 165.156 128.176C165.473 128.176 165.801 128.188 166.035 128.234V125.973C165.637 125.891 164.945 125.832 164.312 125.832C161.348 125.832 160.176 126.969 160.176 129.43V130.438H158.465V133.016H160.176V143ZM170.898 143.199C172.551 143.199 173.887 142.414 174.602 141.125H174.672V143H178.094V134.387C178.094 131.855 175.996 130.18 172.75 130.18C169.434 130.18 167.441 131.844 167.254 134.164L167.242 134.305H170.371L170.395 134.199C170.559 133.391 171.332 132.793 172.609 132.793C173.945 132.793 174.672 133.484 174.672 134.598V135.371L171.566 135.559C168.449 135.758 166.68 137.094 166.68 139.379V139.402C166.68 141.617 168.379 143.199 170.898 143.199ZM170.066 139.227V139.203C170.066 138.312 170.758 137.75 172.082 137.668L174.672 137.504V138.406C174.672 139.719 173.547 140.703 172.012 140.703C170.828 140.703 170.066 140.152 170.066 139.227ZM183.555 143H187.41L191.723 130.438H188.148L185.559 139.977H185.488L182.863 130.438H179.207L183.555 143ZM198.238 143.258C202.035 143.258 204.461 140.82 204.461 136.719V136.695C204.461 132.629 201.988 130.18 198.227 130.18C194.477 130.18 192.016 132.652 192.016 136.695V136.719C192.016 140.809 194.418 143.258 198.238 143.258ZM198.25 140.574C196.562 140.574 195.496 139.18 195.496 136.719V136.695C195.496 134.27 196.574 132.863 198.227 132.863C199.891 132.863 200.98 134.27 200.98 136.695V136.719C200.98 139.168 199.914 140.574 198.25 140.574ZM206.23 143H209.652V135.969C209.652 134.141 210.637 133.133 212.324 133.133C212.816 133.133 213.285 133.203 213.566 133.32V130.309C213.309 130.238 212.957 130.18 212.582 130.18C211.117 130.18 210.098 131.082 209.723 132.629H209.652V130.438H206.23V143ZM216.754 128.82C217.785 128.82 218.582 128.012 218.582 127.039C218.582 126.066 217.785 125.258 216.754 125.258C215.723 125.258 214.926 126.066 214.926 127.039C214.926 128.012 215.723 128.82 216.754 128.82ZM215.043 143H218.465V130.438H215.043V143ZM225.754 143.258C226.469 143.258 227.02 143.188 227.406 143.129V140.621C227.195 140.645 226.973 140.68 226.668 140.68C225.637 140.68 225.109 140.281 225.109 139.109V133.016H227.406V130.438H225.109V127.367H221.652V130.438H219.906V133.016H221.652V139.484C221.652 142.18 222.965 143.258 225.754 143.258ZM234.824 143.258C238.41 143.258 240.145 141.137 240.531 139.285L240.566 139.156H237.426L237.402 139.227C237.156 139.93 236.301 140.703 234.895 140.703C233.148 140.703 232.059 139.531 232.023 137.527H240.672V136.473C240.672 132.676 238.363 130.18 234.684 130.18C231.004 130.18 228.648 132.734 228.648 136.73V136.742C228.648 140.762 230.98 143.258 234.824 143.258ZM234.742 132.734C236.16 132.734 237.18 133.637 237.391 135.371H232.059C232.281 133.672 233.336 132.734 234.742 132.734ZM252.367 143.258C255.602 143.258 257.863 141.641 257.863 139.18V139.168C257.863 137.316 256.785 136.285 254.16 135.734L252.027 135.277C250.762 135.008 250.328 134.586 250.328 133.941V133.93C250.328 133.121 251.066 132.594 252.25 132.594C253.516 132.594 254.254 133.273 254.371 134.176L254.383 134.27H257.535V134.152C257.453 131.949 255.59 130.18 252.25 130.18C249.051 130.18 246.988 131.727 246.988 134.117V134.129C246.988 136.004 248.219 137.223 250.656 137.738L252.789 138.184C254.02 138.453 254.441 138.84 254.441 139.508V139.52C254.441 140.328 253.656 140.832 252.367 140.832C250.996 140.832 250.258 140.258 250.035 139.273L250.012 139.168H246.672L246.684 139.273C246.953 141.652 248.887 143.258 252.367 143.258ZM259.551 147.102H262.973V140.855H263.043C263.723 142.344 265.141 143.258 266.934 143.258C270.074 143.258 272.02 140.797 272.02 136.719V136.707C272.02 132.617 270.074 130.18 266.887 130.18C265.105 130.18 263.734 131.105 263.055 132.629H262.973V130.438H259.551V147.102ZM265.762 140.422C264.098 140.422 262.961 138.992 262.961 136.73V136.719C262.961 134.445 264.098 133.016 265.762 133.016C267.461 133.016 268.539 134.41 268.539 136.707V136.719C268.539 139.004 267.461 140.422 265.762 140.422ZM277.539 143.199C279.191 143.199 280.527 142.414 281.242 141.125H281.312V143H284.734V134.387C284.734 131.855 282.637 130.18 279.391 130.18C276.074 130.18 274.082 131.844 273.895 134.164L273.883 134.305H277.012L277.035 134.199C277.199 133.391 277.973 132.793 279.25 132.793C280.586 132.793 281.312 133.484 281.312 134.598V135.371L278.207 135.559C275.09 135.758 273.32 137.094 273.32 139.379V139.402C273.32 141.617 275.02 143.199 277.539 143.199ZM276.707 139.227V139.203C276.707 138.312 277.398 137.75 278.723 137.668L281.312 137.504V138.406C281.312 139.719 280.188 140.703 278.652 140.703C277.469 140.703 276.707 140.152 276.707 139.227ZM292.691 143.258C296.043 143.258 298.211 141.172 298.375 138.43V138.359H295.188L295.176 138.465C294.941 139.73 294.086 140.574 292.715 140.574C291.027 140.574 289.973 139.18 289.973 136.719V136.707C289.973 134.305 291.027 132.863 292.703 132.863C294.121 132.863 294.953 133.777 295.164 134.973L295.188 135.078H298.363V134.996C298.234 132.277 296.066 130.18 292.656 130.18C288.895 130.18 286.492 132.676 286.492 136.695V136.707C286.492 140.762 288.859 143.258 292.691 143.258ZM305.746 143.258C309.332 143.258 311.066 141.137 311.453 139.285L311.488 139.156H308.348L308.324 139.227C308.078 139.93 307.223 140.703 305.816 140.703C304.07 140.703 302.98 139.531 302.945 137.527H311.594V136.473C311.594 132.676 309.285 130.18 305.605 130.18C301.926 130.18 299.57 132.734 299.57 136.73V136.742C299.57 140.762 301.902 143.258 305.746 143.258ZM305.664 132.734C307.082 132.734 308.102 133.637 308.312 135.371H302.98C303.203 133.672 304.258 132.734 305.664 132.734ZM318.531 143.258C321.766 143.258 324.027 141.641 324.027 139.18V139.168C324.027 137.316 322.949 136.285 320.324 135.734L318.191 135.277C316.926 135.008 316.492 134.586 316.492 133.941V133.93C316.492 133.121 317.23 132.594 318.414 132.594C319.68 132.594 320.418 133.273 320.535 134.176L320.547 134.27H323.699V134.152C323.617 131.949 321.754 130.18 318.414 130.18C315.215 130.18 313.152 131.727 313.152 134.117V134.129C313.152 136.004 314.383 137.223 316.82 137.738L318.953 138.184C320.184 138.453 320.605 138.84 320.605 139.508V139.52C320.605 140.328 319.82 140.832 318.531 140.832C317.16 140.832 316.422 140.258 316.199 139.273L316.176 139.168H312.836L312.848 139.273C313.117 141.652 315.051 143.258 318.531 143.258ZM50.8516 175.199C52.5039 175.199 53.8398 174.414 54.5547 173.125H54.625V175H58.0469V166.387C58.0469 163.855 55.9492 162.18 52.7031 162.18C49.3867 162.18 47.3945 163.844 47.207 166.164L47.1953 166.305H50.3242L50.3477 166.199C50.5117 165.391 51.2852 164.793 52.5625 164.793C53.8984 164.793 54.625 165.484 54.625 166.598V167.371L51.5195 167.559C48.4023 167.758 46.6328 169.094 46.6328 171.379V171.402C46.6328 173.617 48.332 175.199 50.8516 175.199ZM50.0195 171.227V171.203C50.0195 170.312 50.7109 169.75 52.0352 169.668L54.625 169.504V170.406C54.625 171.719 53.5 172.703 51.9648 172.703C50.7812 172.703 50.0195 172.152 50.0195 171.227ZM60.2617 175H63.6836V167.781C63.6836 166.141 64.6562 165.016 66.1914 165.016C67.7266 165.016 68.5 165.953 68.5 167.594V175H71.9219V166.891C71.9219 163.949 70.3516 162.18 67.5859 162.18C65.6875 162.18 64.3984 163.059 63.7539 164.5H63.6836V162.438H60.2617V175ZM78.7422 175.258C80.5586 175.258 81.9414 174.344 82.6094 172.855H82.6797V175H86.1016V158.09H82.6797V164.617H82.6094C81.9297 163.094 80.5234 162.18 78.7422 162.18C75.5781 162.18 73.6328 164.617 73.6328 168.707V168.719C73.6328 172.797 75.5781 175.258 78.7422 175.258ZM79.8906 172.422C78.1797 172.422 77.1133 171.004 77.1133 168.719V168.707C77.1133 166.41 78.1914 165.016 79.8906 165.016C81.543 165.016 82.6914 166.445 82.6914 168.707V168.719C82.6914 170.992 81.5547 172.422 79.8906 172.422ZM96.4609 175H100.316L104.629 162.438H101.055L98.4648 171.977H98.3945L95.7695 162.438H92.1133L96.4609 175ZM107.605 160.82C108.637 160.82 109.434 160.012 109.434 159.039C109.434 158.066 108.637 157.258 107.605 157.258C106.574 157.258 105.777 158.066 105.777 159.039C105.777 160.012 106.574 160.82 107.605 160.82ZM105.895 175H109.316V162.438H105.895V175ZM116.781 175.258C120.016 175.258 122.277 173.641 122.277 171.18V171.168C122.277 169.316 121.199 168.285 118.574 167.734L116.441 167.277C115.176 167.008 114.742 166.586 114.742 165.941V165.93C114.742 165.121 115.48 164.594 116.664 164.594C117.93 164.594 118.668 165.273 118.785 166.176L118.797 166.27H121.949V166.152C121.867 163.949 120.004 162.18 116.664 162.18C113.465 162.18 111.402 163.727 111.402 166.117V166.129C111.402 168.004 112.633 169.223 115.07 169.738L117.203 170.184C118.434 170.453 118.855 170.84 118.855 171.508V171.52C118.855 172.328 118.07 172.832 116.781 172.832C115.41 172.832 114.672 172.258 114.449 171.273L114.426 171.168H111.086L111.098 171.273C111.367 173.652 113.301 175.258 116.781 175.258ZM125.746 160.82C126.777 160.82 127.574 160.012 127.574 159.039C127.574 158.066 126.777 157.258 125.746 157.258C124.715 157.258 123.918 158.066 123.918 159.039C123.918 160.012 124.715 160.82 125.746 160.82ZM124.035 175H127.457V162.438H124.035V175ZM134.746 175.258C135.461 175.258 136.012 175.188 136.398 175.129V172.621C136.188 172.645 135.965 172.68 135.66 172.68C134.629 172.68 134.102 172.281 134.102 171.109V165.016H136.398V162.438H134.102V159.367H130.645V162.438H128.898V165.016H130.645V171.484C130.645 174.18 131.957 175.258 134.746 175.258ZM148.035 175.258C148.75 175.258 149.301 175.188 149.688 175.129V172.621C149.477 172.645 149.254 172.68 148.949 172.68C147.918 172.68 147.391 172.281 147.391 171.109V165.016H149.688V162.438H147.391V159.367H143.934V162.438H142.188V165.016H143.934V171.484C143.934 174.18 145.246 175.258 148.035 175.258ZM151.656 175H155.078V167.805C155.078 166.164 156.051 165.016 157.562 165.016C159.121 165.016 159.988 166.059 159.988 167.816V175H163.41V167.113C163.41 164.078 161.723 162.18 159.004 162.18C157.117 162.18 155.793 163.047 155.148 164.605H155.078V158.09H151.656V175ZM171.332 175.258C174.918 175.258 176.652 173.137 177.039 171.285L177.074 171.156H173.934L173.91 171.227C173.664 171.93 172.809 172.703 171.402 172.703C169.656 172.703 168.566 171.531 168.531 169.527H177.18V168.473C177.18 164.676 174.871 162.18 171.191 162.18C167.512 162.18 165.156 164.734 165.156 168.73V168.742C165.156 172.762 167.488 175.258 171.332 175.258ZM171.25 164.734C172.668 164.734 173.688 165.637 173.898 167.371H168.566C168.789 165.672 169.844 164.734 171.25 164.734ZM178.949 175H182.371V167.418C182.371 166 183.25 165.016 184.551 165.016C185.816 165.016 186.578 165.812 186.578 167.16V175H189.871V167.359C189.871 165.965 190.727 165.016 192.027 165.016C193.352 165.016 194.078 165.812 194.078 167.266V175H197.5V166.41C197.5 163.879 195.848 162.18 193.387 162.18C191.547 162.18 190.047 163.188 189.484 164.77H189.414C188.992 163.117 187.715 162.18 185.957 162.18C184.27 162.18 182.957 163.117 182.441 164.547H182.371V162.438H178.949V175ZM208.164 175.199C209.816 175.199 211.152 174.414 211.867 173.125H211.938V175H215.359V166.387C215.359 163.855 213.262 162.18 210.016 162.18C206.699 162.18 204.707 163.844 204.52 166.164L204.508 166.305H207.637L207.66 166.199C207.824 165.391 208.598 164.793 209.875 164.793C211.211 164.793 211.938 165.484 211.938 166.598V167.371L208.832 167.559C205.715 167.758 203.945 169.094 203.945 171.379V171.402C203.945 173.617 205.645 175.199 208.164 175.199ZM207.332 171.227V171.203C207.332 170.312 208.023 169.75 209.348 169.668L211.938 169.504V170.406C211.938 171.719 210.812 172.703 209.277 172.703C208.094 172.703 207.332 172.152 207.332 171.227ZM223.445 179.359C227.219 179.359 229.574 177.449 229.574 174.648V162.438H226.152V164.582H226.082C225.402 163.117 224.031 162.18 222.262 162.18C219.086 162.18 217.117 164.559 217.117 168.566V168.578C217.117 172.48 219.062 174.824 222.203 174.824C224.02 174.824 225.426 173.992 226.082 172.68H226.152V174.602C226.152 176.008 225.215 176.922 223.445 176.922C222.016 176.922 221.102 176.383 220.832 175.762L220.797 175.68H217.469L217.48 175.785C217.809 177.801 219.988 179.359 223.445 179.359ZM223.387 172.316C221.676 172.316 220.598 170.922 220.598 168.66V168.648C220.598 166.398 221.688 165.016 223.387 165.016C225.051 165.016 226.164 166.41 226.164 168.648V168.66C226.164 170.91 225.062 172.316 223.387 172.316ZM235.562 175.199C237.215 175.199 238.551 174.414 239.266 173.125H239.336V175H242.758V166.387C242.758 163.855 240.66 162.18 237.414 162.18C234.098 162.18 232.105 163.844 231.918 166.164L231.906 166.305H235.035L235.059 166.199C235.223 165.391 235.996 164.793 237.273 164.793C238.609 164.793 239.336 165.484 239.336 166.598V167.371L236.23 167.559C233.113 167.758 231.344 169.094 231.344 171.379V171.402C231.344 173.617 233.043 175.199 235.562 175.199ZM234.73 171.227V171.203C234.73 170.312 235.422 169.75 236.746 169.668L239.336 169.504V170.406C239.336 171.719 238.211 172.703 236.676 172.703C235.492 172.703 234.73 172.152 234.73 171.227ZM246.754 160.82C247.785 160.82 248.582 160.012 248.582 159.039C248.582 158.066 247.785 157.258 246.754 157.258C245.723 157.258 244.926 158.066 244.926 159.039C244.926 160.012 245.723 160.82 246.754 160.82ZM245.043 175H248.465V162.438H245.043V175ZM250.762 175H254.184V167.781C254.184 166.141 255.156 165.016 256.691 165.016C258.227 165.016 259 165.953 259 167.594V175H262.422V166.891C262.422 163.949 260.852 162.18 258.086 162.18C256.188 162.18 254.898 163.059 254.254 164.5H254.184V162.438H250.762V175Z" fill="#011627"/>
<path d="M141.012 491.175H142.991V484.301H150.019V482.541H142.991V477.087H150.646V475.305H141.012V491.175ZM156.01 491.384C157.604 491.384 158.847 490.691 159.595 489.426H159.771V491.175H161.684V483.058C161.684 480.595 160.068 479.11 157.175 479.11C154.646 479.11 152.842 480.364 152.534 482.222L152.523 482.288H154.437L154.448 482.255C154.756 481.332 155.691 480.804 157.109 480.804C158.88 480.804 159.771 481.596 159.771 483.058V484.136L156.372 484.345C153.612 484.51 152.05 485.731 152.05 487.842V487.864C152.05 490.02 153.755 491.384 156.01 491.384ZM154.008 487.82V487.798C154.008 486.622 154.8 485.984 156.603 485.874L159.771 485.676V486.753C159.771 488.447 158.352 489.723 156.405 489.723C155.031 489.723 154.008 489.019 154.008 487.82ZM167.961 491.175H169.896L174.285 479.319H172.261L169.017 489.085H168.841L165.596 479.319H163.573L167.961 491.175ZM181.111 491.384C184.487 491.384 186.577 489.052 186.577 485.258V485.236C186.577 481.431 184.487 479.11 181.111 479.11C177.735 479.11 175.645 481.431 175.645 485.236V485.258C175.645 489.052 177.735 491.384 181.111 491.384ZM181.111 489.69C178.867 489.69 177.603 488.051 177.603 485.258V485.236C177.603 482.431 178.867 480.804 181.111 480.804C183.354 480.804 184.619 482.431 184.619 485.236V485.258C184.619 488.051 183.354 489.69 181.111 489.69ZM189.411 491.175H191.325V483.828C191.325 482.09 192.622 480.936 194.448 480.936C194.866 480.936 195.229 480.98 195.625 481.046V479.187C195.438 479.154 195.031 479.11 194.668 479.11C193.062 479.11 191.951 479.836 191.501 481.079H191.325V479.319H189.411V491.175ZM198.866 477.032C199.592 477.032 200.186 476.438 200.186 475.712C200.186 474.986 199.592 474.392 198.866 474.392C198.14 474.392 197.546 474.986 197.546 475.712C197.546 476.438 198.14 477.032 198.866 477.032ZM197.898 491.175H199.812V479.319H197.898V491.175ZM207.496 491.263C207.87 491.263 208.233 491.219 208.607 491.153V489.525C208.255 489.558 208.068 489.569 207.727 489.569C206.495 489.569 206.011 489.008 206.011 487.611V480.903H208.607V479.319H206.011V476.251H204.032V479.319H202.162V480.903H204.032V488.095C204.032 490.361 205.054 491.263 207.496 491.263ZM215.994 491.384C218.787 491.384 220.481 489.8 220.888 488.194L220.91 488.106H218.996L218.952 488.205C218.633 488.92 217.644 489.679 216.038 489.679C213.926 489.679 212.574 488.249 212.519 485.797H221.053V485.049C221.053 481.508 219.095 479.11 215.873 479.11C212.651 479.11 210.561 481.618 210.561 485.28V485.291C210.561 489.008 212.607 491.384 215.994 491.384ZM215.862 480.815C217.611 480.815 218.908 481.926 219.106 484.268H212.552C212.761 482.013 214.102 480.815 215.862 480.815ZM228.264 491.384C229.914 491.384 231.234 490.603 231.959 489.283H232.135V491.175H234.049V474.612H232.135V481.189H231.959C231.311 479.924 229.892 479.11 228.264 479.11C225.251 479.11 223.293 481.519 223.293 485.236V485.258C223.293 488.953 225.262 491.384 228.264 491.384ZM228.704 489.69C226.538 489.69 225.251 488.018 225.251 485.258V485.236C225.251 482.475 226.538 480.804 228.704 480.804C230.86 480.804 232.179 482.497 232.179 485.236V485.258C232.179 487.996 230.86 489.69 228.704 489.69Z" fill="#666666"/>
<path fill-rule="evenodd" clip-rule="evenodd" d="M188.845 444.268L176.593 450.71L178.933 437.066L169.02 427.404L182.719 425.413L188.845 413L194.972 425.413L208.67 427.404L198.758 437.066L201.098 450.71L188.845 444.268Z" fill="#CC2A14" stroke="#CC2A14" stroke-width="2.59884" stroke-linecap="round" stroke-linejoin="round"/>
</g>
<defs>
<linearGradient id="paint0_linear" x1="-571.983" y1="921.719" x2="398.999" y2="619.756" gradientUnits="userSpaceOnUse">
<stop stop-color="#963AC1"/>
<stop offset="1" stop-color="#011627"/>
</linearGradient>
<clipPath id="clip0">
<rect width="375" height="812" fill="white"/>
</clipPath>
</defs>
</svg>
