<svg width="375" height="812" viewBox="0 0 375 812" fill="none" xmlns="http://www.w3.org/2000/svg">
<g clip-path="url(#clip0)">
<rect width="375" height="812" fill="#FDFFFC"/>
<path d="M502.598 1153.43C597.48 1259.92 351.159 1183.34 209.299 1156.35C83.803 1121.47 -85.0721 1040.76 -130.702 947.964C-187.74 831.967 -17.8382 688.716 259.645 678.455C537.129 668.194 624.324 782.755 446.342 878.597C268.36 974.438 383.996 1020.32 502.598 1153.43Z" fill="url(#paint0_linear)"/>
<path d="M49.8057 252H51.6953L54.4287 242.438H54.4727L57.1973 252H59.0869L62.5146 239.317H60.4668L58.1025 249.258H58.0586L55.3779 239.317H53.5146L50.834 249.258H50.7988L48.4346 239.317H46.3867L49.8057 252ZM63.9209 252H65.8193V246.647C65.8193 245.206 66.6895 244.204 67.999 244.204C69.335 244.204 70.1084 245.118 70.1084 246.647V252H72.0068V246.287C72.0068 244.055 70.7061 242.578 68.7285 242.578C67.3486 242.578 66.3555 243.202 65.8633 244.274H65.8193V239.317H63.9209V252ZM77.7988 252.185C80.04 252.185 81.4639 250.849 81.7627 249.381L81.7803 249.284H79.9785L79.9521 249.354C79.7148 250.049 78.9678 250.629 77.8428 250.629C76.3311 250.629 75.373 249.609 75.3379 247.86H81.8857V247.219C81.8857 244.441 80.2949 242.578 77.7021 242.578C75.1094 242.578 73.4395 244.512 73.4395 247.403V247.412C73.4395 250.33 75.083 252.185 77.7988 252.185ZM77.7109 244.134C78.9502 244.134 79.8467 244.916 80.0049 246.516H75.3643C75.5312 244.969 76.4805 244.134 77.7109 244.134ZM86.6055 252.185C86.9922 252.185 87.3525 252.141 87.5723 252.105V250.638C87.4316 250.655 87.2646 250.673 87.0625 250.673C86.2627 250.673 85.8408 250.392 85.8408 249.451V244.266H87.5723V242.754H85.8408V240.346H83.8984V242.754H82.5713V244.266H83.8984V249.565C83.8984 251.411 84.7773 252.185 86.6055 252.185ZM89.2158 252H91.1143V246.647C91.1143 245.206 91.9844 244.204 93.2939 244.204C94.6299 244.204 95.4033 245.118 95.4033 246.647V252H97.3018V246.287C97.3018 244.055 96.001 242.578 94.0234 242.578C92.6436 242.578 91.6504 243.202 91.1582 244.274H91.1143V239.317H89.2158V252ZM103.094 252.185C105.335 252.185 106.759 250.849 107.058 249.381L107.075 249.284H105.273L105.247 249.354C105.01 250.049 104.263 250.629 103.138 250.629C101.626 250.629 100.668 249.609 100.633 247.86H107.181V247.219C107.181 244.441 105.59 242.578 102.997 242.578C100.404 242.578 98.7344 244.512 98.7344 247.403V247.412C98.7344 250.33 100.378 252.185 103.094 252.185ZM103.006 244.134C104.245 244.134 105.142 244.916 105.3 246.516H100.659C100.826 244.969 101.775 244.134 103.006 244.134ZM108.657 252H110.556V246.489C110.556 245.109 111.312 244.31 112.533 244.31C112.902 244.31 113.236 244.354 113.386 244.415V242.648C113.236 242.622 112.999 242.578 112.727 242.578C111.672 242.578 110.898 243.255 110.6 244.336H110.556V242.754H108.657V252ZM119.248 241.33C119.872 241.33 120.355 240.838 120.355 240.24C120.355 239.634 119.872 239.142 119.248 239.142C118.633 239.142 118.141 239.634 118.141 240.24C118.141 240.838 118.633 241.33 119.248 241.33ZM118.299 252H120.197V242.754H118.299V252ZM125.4 252.185C125.787 252.185 126.147 252.141 126.367 252.105V250.638C126.227 250.655 126.06 250.673 125.857 250.673C125.058 250.673 124.636 250.392 124.636 249.451V244.266H126.367V242.754H124.636V240.346H122.693V242.754H121.366V244.266H122.693V249.565C122.693 251.411 123.572 252.185 125.4 252.185ZM136.51 252.185C138.856 252.185 140.377 250.321 140.377 247.377V247.368C140.377 244.424 138.848 242.578 136.527 242.578C135.218 242.578 134.163 243.237 133.609 244.327H133.565V239.317H131.667V252H133.565V250.436H133.609C134.154 251.517 135.183 252.185 136.51 252.185ZM136.009 250.55C134.567 250.55 133.557 249.302 133.557 247.377V247.368C133.557 245.452 134.576 244.204 136.009 244.204C137.503 244.204 138.435 245.417 138.435 247.368V247.377C138.435 249.346 137.503 250.55 136.009 250.55ZM145.791 252.185C148.032 252.185 149.456 250.849 149.755 249.381L149.772 249.284H147.971L147.944 249.354C147.707 250.049 146.96 250.629 145.835 250.629C144.323 250.629 143.365 249.609 143.33 247.86H149.878V247.219C149.878 244.441 148.287 242.578 145.694 242.578C143.102 242.578 141.432 244.512 141.432 247.403V247.412C141.432 250.33 143.075 252.185 145.791 252.185ZM145.703 244.134C146.942 244.134 147.839 244.916 147.997 246.516H143.356C143.523 244.969 144.473 244.134 145.703 244.134ZM157.727 252.167C158.948 252.167 160.021 251.534 160.557 250.541H160.592V252H162.499V245.628C162.499 243.773 161.066 242.578 158.808 242.578C156.531 242.578 155.151 243.8 155.02 245.391L155.011 245.487H156.804L156.821 245.408C156.979 244.67 157.656 244.151 158.755 244.151C159.933 244.151 160.592 244.767 160.592 245.786V246.48L158.078 246.63C155.89 246.762 154.642 247.746 154.642 249.354V249.372C154.642 251.033 155.881 252.167 157.727 252.167ZM156.558 249.328V249.311C156.558 248.528 157.19 248.027 158.333 247.957L160.592 247.816V248.537C160.592 249.741 159.581 250.646 158.245 250.646C157.226 250.646 156.558 250.137 156.558 249.328ZM174.391 255.076H176.298V242.754H174.391V244.345H174.347C173.802 243.29 172.782 242.587 171.481 242.587C169.135 242.587 167.588 244.433 167.588 247.359V247.368C167.588 250.312 169.117 252.167 171.438 252.167C172.765 252.167 173.819 251.517 174.347 250.479H174.391V255.076ZM171.974 250.532C170.471 250.532 169.53 249.328 169.53 247.368V247.359C169.53 245.443 170.471 244.222 171.974 244.222C173.415 244.222 174.391 245.452 174.391 247.368V247.377C174.391 249.293 173.424 250.532 171.974 250.532ZM181.308 252.185C182.714 252.185 183.654 251.543 184.138 250.611H184.182V252H186.089V242.754H184.182V248.15C184.182 249.592 183.32 250.55 181.984 250.55C180.666 250.55 180.016 249.776 180.016 248.379V242.754H178.117V248.748C178.117 250.875 179.277 252.185 181.308 252.185ZM188.998 241.33C189.622 241.33 190.105 240.838 190.105 240.24C190.105 239.634 189.622 239.142 188.998 239.142C188.383 239.142 187.891 239.634 187.891 240.24C187.891 240.838 188.383 241.33 188.998 241.33ZM188.049 252H189.947V242.754H188.049V252ZM195.854 252.185C198.095 252.185 199.519 250.849 199.817 249.381L199.835 249.284H198.033L198.007 249.354C197.77 250.049 197.022 250.629 195.897 250.629C194.386 250.629 193.428 249.609 193.393 247.86H199.94V247.219C199.94 244.441 198.35 242.578 195.757 242.578C193.164 242.578 191.494 244.512 191.494 247.403V247.412C191.494 250.33 193.138 252.185 195.854 252.185ZM195.766 244.134C197.005 244.134 197.901 244.916 198.06 246.516H193.419C193.586 244.969 194.535 244.134 195.766 244.134ZM204.66 252.185C205.047 252.185 205.407 252.141 205.627 252.105V250.638C205.486 250.655 205.319 250.673 205.117 250.673C204.317 250.673 203.896 250.392 203.896 249.451V244.266H205.627V242.754H203.896V240.346H201.953V242.754H200.626V244.266H201.953V249.565C201.953 251.411 202.832 252.185 204.66 252.185ZM214.319 252.185C216.499 252.185 218.081 251.024 218.081 249.337V249.328C218.081 248.001 217.36 247.254 215.471 246.814L213.968 246.472C212.975 246.234 212.597 245.848 212.597 245.276V245.268C212.597 244.529 213.238 244.046 214.258 244.046C215.33 244.046 215.963 244.608 216.077 245.417L216.086 245.479H217.87L217.861 245.373C217.765 243.8 216.446 242.578 214.258 242.578C212.131 242.578 210.689 243.712 210.689 245.364V245.373C210.689 246.718 211.56 247.562 213.317 247.966L214.829 248.309C215.822 248.546 216.156 248.889 216.156 249.486V249.495C216.156 250.242 215.471 250.717 214.328 250.717C213.159 250.717 212.526 250.216 212.351 249.363L212.333 249.275H210.452L210.461 249.354C210.654 251.042 212.008 252.185 214.319 252.185ZM219.558 255.076H221.456V250.444H221.5C222.045 251.517 223.108 252.185 224.418 252.185C226.738 252.185 228.259 250.33 228.259 247.386V247.377C228.259 244.424 226.747 242.578 224.392 242.578C223.073 242.578 222.054 243.246 221.5 244.345H221.456V242.754H219.558V255.076ZM223.899 250.55C222.467 250.55 221.447 249.302 221.447 247.386V247.377C221.447 245.452 222.458 244.204 223.899 244.204C225.385 244.204 226.325 245.408 226.325 247.377V247.386C226.325 249.337 225.394 250.55 223.899 250.55ZM233.708 252.185C236.354 252.185 238.094 250.356 238.094 247.377V247.359C238.094 244.397 236.336 242.578 233.699 242.578C231.071 242.578 229.322 244.406 229.322 247.359V247.377C229.322 250.348 231.054 252.185 233.708 252.185ZM233.717 250.594C232.231 250.594 231.265 249.425 231.265 247.377V247.359C231.265 245.338 232.24 244.169 233.699 244.169C235.185 244.169 236.151 245.338 236.151 247.359V247.377C236.151 249.416 235.202 250.594 233.717 250.594ZM242.805 252.185C243.191 252.185 243.552 252.141 243.771 252.105V250.638C243.631 250.655 243.464 250.673 243.262 250.673C242.462 250.673 242.04 250.392 242.04 249.451V244.266H243.771V242.754H242.04V240.346H240.098V242.754H238.771V244.266H240.098V249.565C240.098 251.411 240.977 252.185 242.805 252.185ZM252.244 252.185C252.631 252.185 252.991 252.141 253.211 252.105V250.638C253.07 250.655 252.903 250.673 252.701 250.673C251.901 250.673 251.479 250.392 251.479 249.451V244.266H253.211V242.754H251.479V240.346H249.537V242.754H248.21V244.266H249.537V249.565C249.537 251.411 250.416 252.185 252.244 252.185ZM258.528 252.185C261.174 252.185 262.914 250.356 262.914 247.377V247.359C262.914 244.397 261.156 242.578 258.52 242.578C255.892 242.578 254.143 244.406 254.143 247.359V247.377C254.143 250.348 255.874 252.185 258.528 252.185ZM258.537 250.594C257.052 250.594 256.085 249.425 256.085 247.377V247.359C256.085 245.338 257.061 244.169 258.52 244.169C260.005 244.169 260.972 245.338 260.972 247.359V247.377C260.972 249.416 260.022 250.594 258.537 250.594ZM50.4033 284.185C52.583 284.185 54.165 283.024 54.165 281.337V281.328C54.165 280.001 53.4443 279.254 51.5547 278.814L50.0518 278.472C49.0586 278.234 48.6807 277.848 48.6807 277.276V277.268C48.6807 276.529 49.3223 276.046 50.3418 276.046C51.4141 276.046 52.0469 276.608 52.1611 277.417L52.1699 277.479H53.9541L53.9453 277.373C53.8486 275.8 52.5303 274.578 50.3418 274.578C48.2148 274.578 46.7734 275.712 46.7734 277.364V277.373C46.7734 278.718 47.6436 279.562 49.4014 279.966L50.9131 280.309C51.9062 280.546 52.2402 280.889 52.2402 281.486V281.495C52.2402 282.242 51.5547 282.717 50.4121 282.717C49.2432 282.717 48.6104 282.216 48.4346 281.363L48.417 281.275H46.5361L46.5449 281.354C46.7383 283.042 48.0918 284.185 50.4033 284.185ZM58.8848 284.185C59.2715 284.185 59.6318 284.141 59.8516 284.105V282.638C59.7109 282.655 59.5439 282.673 59.3418 282.673C58.542 282.673 58.1201 282.392 58.1201 281.451V276.266H59.8516V274.754H58.1201V272.346H56.1777V274.754H54.8506V276.266H56.1777V281.565C56.1777 283.411 57.0566 284.185 58.8848 284.185ZM64.5713 284.185C65.9775 284.185 66.918 283.543 67.4014 282.611H67.4453V284H69.3525V274.754H67.4453V280.15C67.4453 281.592 66.584 282.55 65.248 282.55C63.9297 282.55 63.2793 281.776 63.2793 280.379V274.754H61.3809V280.748C61.3809 282.875 62.541 284.185 64.5713 284.185ZM74.6875 284.185C76.0146 284.185 77.0342 283.517 77.5879 282.436H77.623V284H79.5303V271.317H77.623V276.327H77.5879C77.0342 275.237 75.9795 274.578 74.6699 274.578C72.3496 274.578 70.8203 276.424 70.8203 279.368V279.377C70.8203 282.321 72.332 284.185 74.6875 284.185ZM75.1885 282.55C73.6855 282.55 72.7627 281.346 72.7627 279.377V279.368C72.7627 277.417 73.6943 276.204 75.1885 276.204C76.6123 276.204 77.6318 277.452 77.6318 279.368V279.377C77.6318 281.302 76.6211 282.55 75.1885 282.55ZM82.5713 287.085C84.3818 287.085 85.3486 286.347 86.0342 284.431L89.4795 274.754H87.4756L85.1465 282.277H85.085L82.7559 274.754H80.6992L84.0654 284.009L83.9072 284.448C83.5908 285.345 83.0986 285.582 82.2021 285.582C81.9473 285.582 81.7275 285.547 81.5781 285.512V286.997C81.8066 287.041 82.2021 287.085 82.5713 287.085ZM88.7324 286.549H90.0684L91.3516 282.049H89.4531L88.7324 286.549ZM98.7695 284.167C99.9912 284.167 101.063 283.534 101.6 282.541H101.635V284H103.542V277.628C103.542 275.773 102.109 274.578 99.8506 274.578C97.5742 274.578 96.1943 275.8 96.0625 277.391L96.0537 277.487H97.8467L97.8643 277.408C98.0225 276.67 98.6992 276.151 99.7979 276.151C100.976 276.151 101.635 276.767 101.635 277.786V278.48L99.1211 278.63C96.9326 278.762 95.6846 279.746 95.6846 281.354V281.372C95.6846 283.033 96.9238 284.167 98.7695 284.167ZM97.6006 281.328V281.311C97.6006 280.528 98.2334 280.027 99.376 279.957L101.635 279.816V280.537C101.635 281.741 100.624 282.646 99.2881 282.646C98.2686 282.646 97.6006 282.137 97.6006 281.328ZM112.287 284.185C112.674 284.185 113.034 284.141 113.254 284.105V282.638C113.113 282.655 112.946 282.673 112.744 282.673C111.944 282.673 111.522 282.392 111.522 281.451V276.266H113.254V274.754H111.522V272.346H109.58V274.754H108.253V276.266H109.58V281.565C109.58 283.411 110.459 284.185 112.287 284.185ZM117.402 284.167C118.624 284.167 119.696 283.534 120.232 282.541H120.268V284H122.175V277.628C122.175 275.773 120.742 274.578 118.483 274.578C116.207 274.578 114.827 275.8 114.695 277.391L114.687 277.487H116.479L116.497 277.408C116.655 276.67 117.332 276.151 118.431 276.151C119.608 276.151 120.268 276.767 120.268 277.786V278.48L117.754 278.63C115.565 278.762 114.317 279.746 114.317 281.354V281.372C114.317 283.033 115.557 284.167 117.402 284.167ZM116.233 281.328V281.311C116.233 280.528 116.866 280.027 118.009 279.957L120.268 279.816V280.537C120.268 281.741 119.257 282.646 117.921 282.646C116.901 282.646 116.233 282.137 116.233 281.328ZM128.934 284.185C131.28 284.185 132.801 282.321 132.801 279.377V279.368C132.801 276.424 131.271 274.578 128.951 274.578C127.642 274.578 126.587 275.237 126.033 276.327H125.989V271.317H124.091V284H125.989V282.436H126.033C126.578 283.517 127.606 284.185 128.934 284.185ZM128.433 282.55C126.991 282.55 125.98 281.302 125.98 279.377V279.368C125.98 277.452 127 276.204 128.433 276.204C129.927 276.204 130.858 277.417 130.858 279.368V279.377C130.858 281.346 129.927 282.55 128.433 282.55ZM134.339 284H136.237V271.317H134.339V284ZM142.135 284.185C144.376 284.185 145.8 282.849 146.099 281.381L146.116 281.284H144.314L144.288 281.354C144.051 282.049 143.304 282.629 142.179 282.629C140.667 282.629 139.709 281.609 139.674 279.86H146.222V279.219C146.222 276.441 144.631 274.578 142.038 274.578C139.445 274.578 137.775 276.512 137.775 279.403V279.412C137.775 282.33 139.419 284.185 142.135 284.185ZM142.047 276.134C143.286 276.134 144.183 276.916 144.341 278.516H139.7C139.867 276.969 140.816 276.134 142.047 276.134ZM151.908 284H153.815V276.266H155.661V274.754H153.78V273.805C153.78 272.987 154.185 272.574 155.037 272.574C155.274 272.574 155.512 272.592 155.696 272.618V271.212C155.441 271.168 155.02 271.133 154.633 271.133C152.752 271.133 151.908 271.977 151.908 273.77V274.754H150.634V276.266H151.908V284ZM160.319 284.185C162.965 284.185 164.705 282.356 164.705 279.377V279.359C164.705 276.397 162.947 274.578 160.311 274.578C157.683 274.578 155.934 276.406 155.934 279.359V279.377C155.934 282.348 157.665 284.185 160.319 284.185ZM160.328 282.594C158.843 282.594 157.876 281.425 157.876 279.377V279.359C157.876 277.338 158.852 276.169 160.311 276.169C161.796 276.169 162.763 277.338 162.763 279.359V279.377C162.763 281.416 161.813 282.594 160.328 282.594ZM166.173 284H168.071V278.489C168.071 277.109 168.827 276.31 170.049 276.31C170.418 276.31 170.752 276.354 170.901 276.415V274.648C170.752 274.622 170.515 274.578 170.242 274.578C169.188 274.578 168.414 275.255 168.115 276.336H168.071V274.754H166.173V284ZM175.806 284H177.704V271.317H175.806V284ZM182.802 284.185C184.208 284.185 185.148 283.543 185.632 282.611H185.676V284H187.583V274.754H185.676V280.15C185.676 281.592 184.814 282.55 183.479 282.55C182.16 282.55 181.51 281.776 181.51 280.379V274.754H179.611V280.748C179.611 282.875 180.771 284.185 182.802 284.185ZM189.464 284H191.362V278.612C191.362 277.171 192.224 276.204 193.56 276.204C194.878 276.204 195.528 276.986 195.528 278.375V284H197.436V278.015C197.436 275.888 196.267 274.578 194.236 274.578C192.839 274.578 191.89 275.211 191.406 276.151H191.362V274.754H189.464V284ZM203.245 284.185C205.469 284.185 207.016 282.761 207.218 280.906L207.227 280.845H205.398L205.39 280.915C205.161 281.917 204.414 282.594 203.245 282.594C201.777 282.594 200.802 281.407 200.802 279.386V279.377C200.802 277.399 201.76 276.169 203.236 276.169C204.476 276.169 205.179 276.934 205.381 277.839L205.398 277.909H207.209L207.2 277.848C207.042 276.107 205.601 274.578 203.219 274.578C200.582 274.578 198.859 276.433 198.859 279.359V279.368C198.859 282.33 200.547 284.185 203.245 284.185ZM208.642 284H210.54V278.647C210.54 277.206 211.41 276.204 212.72 276.204C214.056 276.204 214.829 277.118 214.829 278.647V284H216.728V278.287C216.728 276.055 215.427 274.578 213.449 274.578C212.069 274.578 211.076 275.202 210.584 276.274H210.54V271.317H208.642V284ZM218.002 286.549H219.338L220.621 282.049H218.723L218.002 286.549ZM229.296 284.185C231.941 284.185 233.682 282.356 233.682 279.377V279.359C233.682 276.397 231.924 274.578 229.287 274.578C226.659 274.578 224.91 276.406 224.91 279.359V279.377C224.91 282.348 226.642 284.185 229.296 284.185ZM229.305 282.594C227.819 282.594 226.853 281.425 226.853 279.377V279.359C226.853 277.338 227.828 276.169 229.287 276.169C230.772 276.169 231.739 277.338 231.739 279.359V279.377C231.739 281.416 230.79 282.594 229.305 282.594ZM235.149 284H237.048V278.489C237.048 277.109 237.804 276.31 239.025 276.31C239.395 276.31 239.729 276.354 239.878 276.415V274.648C239.729 274.622 239.491 274.578 239.219 274.578C238.164 274.578 237.391 275.255 237.092 276.336H237.048V274.754H235.149V284ZM247.428 284.167C248.649 284.167 249.722 283.534 250.258 282.541H250.293V284H252.2V277.628C252.2 275.773 250.768 274.578 248.509 274.578C246.232 274.578 244.853 275.8 244.721 277.391L244.712 277.487H246.505L246.522 277.408C246.681 276.67 247.357 276.151 248.456 276.151C249.634 276.151 250.293 276.767 250.293 277.786V278.48L247.779 278.63C245.591 278.762 244.343 279.746 244.343 281.354V281.372C244.343 283.033 245.582 284.167 247.428 284.167ZM246.259 281.328V281.311C246.259 280.528 246.892 280.027 248.034 279.957L250.293 279.816V280.537C250.293 281.741 249.282 282.646 247.946 282.646C246.927 282.646 246.259 282.137 246.259 281.328ZM257.702 287.076H259.601V282.444H259.645C260.189 283.517 261.253 284.185 262.562 284.185C264.883 284.185 266.403 282.33 266.403 279.386V279.377C266.403 276.424 264.892 274.578 262.536 274.578C261.218 274.578 260.198 275.246 259.645 276.345H259.601V274.754H257.702V287.076ZM262.044 282.55C260.611 282.55 259.592 281.302 259.592 279.386V279.377C259.592 277.452 260.603 276.204 262.044 276.204C263.529 276.204 264.47 277.408 264.47 279.377V279.386C264.47 281.337 263.538 282.55 262.044 282.55ZM267.95 284H269.849V271.317H267.95V284ZM274.516 284.167C275.737 284.167 276.81 283.534 277.346 282.541H277.381V284H279.288V277.628C279.288 275.773 277.855 274.578 275.597 274.578C273.32 274.578 271.94 275.8 271.809 277.391L271.8 277.487H273.593L273.61 277.408C273.769 276.67 274.445 276.151 275.544 276.151C276.722 276.151 277.381 276.767 277.381 277.786V278.48L274.867 278.63C272.679 278.762 271.431 279.746 271.431 281.354V281.372C271.431 283.033 272.67 284.167 274.516 284.167ZM273.347 281.328V281.311C273.347 280.528 273.979 280.027 275.122 279.957L277.381 279.816V280.537C277.381 281.741 276.37 282.646 275.034 282.646C274.015 282.646 273.347 282.137 273.347 281.328ZM285.106 284.185C287.33 284.185 288.877 282.761 289.079 280.906L289.088 280.845H287.26L287.251 280.915C287.022 281.917 286.275 282.594 285.106 282.594C283.639 282.594 282.663 281.407 282.663 279.386V279.377C282.663 277.399 283.621 276.169 285.098 276.169C286.337 276.169 287.04 276.934 287.242 277.839L287.26 277.909H289.07L289.062 277.848C288.903 276.107 287.462 274.578 285.08 274.578C282.443 274.578 280.721 276.433 280.721 279.359V279.368C280.721 282.33 282.408 284.185 285.106 284.185ZM294.379 284.185C296.62 284.185 298.044 282.849 298.343 281.381L298.36 281.284H296.559L296.532 281.354C296.295 282.049 295.548 282.629 294.423 282.629C292.911 282.629 291.953 281.609 291.918 279.86H298.466V279.219C298.466 276.441 296.875 274.578 294.282 274.578C291.689 274.578 290.02 276.512 290.02 279.403V279.412C290.02 282.33 291.663 284.185 294.379 284.185ZM294.291 276.134C295.53 276.134 296.427 276.916 296.585 278.516H291.944C292.111 276.969 293.061 276.134 294.291 276.134ZM50.1836 316.185C50.5703 316.185 50.9307 316.141 51.1504 316.105V314.638C51.0098 314.655 50.8428 314.673 50.6406 314.673C49.8408 314.673 49.4189 314.392 49.4189 313.451V308.266H51.1504V306.754H49.4189V304.346H47.4766V306.754H46.1494V308.266H47.4766V313.565C47.4766 315.411 48.3555 316.185 50.1836 316.185ZM56.4678 316.185C59.1133 316.185 60.8535 314.356 60.8535 311.377V311.359C60.8535 308.397 59.0957 306.578 56.459 306.578C53.8311 306.578 52.082 308.406 52.082 311.359V311.377C52.082 314.348 53.8135 316.185 56.4678 316.185ZM56.4766 314.594C54.9912 314.594 54.0244 313.425 54.0244 311.377V311.359C54.0244 309.338 55 308.169 56.459 308.169C57.9443 308.169 58.9111 309.338 58.9111 311.359V311.377C58.9111 313.416 57.9619 314.594 56.4766 314.594ZM70.0293 319.261C72.6396 319.261 74.2744 317.854 74.2744 315.745V306.754H72.3672V308.327H72.3232C71.7783 307.281 70.7588 306.578 69.458 306.578C67.1113 306.578 65.5645 308.397 65.5645 311.298V311.307C65.5645 314.189 67.0938 316.009 69.4141 316.009C70.7412 316.009 71.7959 315.367 72.3232 314.365H72.3672V315.631C72.3672 316.923 71.5322 317.731 70.0205 317.731C68.834 317.731 68.0342 317.327 67.7793 316.738L67.7441 316.668H65.8633L65.8721 316.747C66.1533 318.162 67.6562 319.261 70.0293 319.261ZM69.9502 314.462C68.4473 314.462 67.5068 313.267 67.5068 311.333V311.324C67.5068 309.417 68.4473 308.204 69.9502 308.204C71.3916 308.204 72.3672 309.426 72.3672 311.324V311.333C72.3672 313.24 71.4004 314.462 69.9502 314.462ZM78.8711 316.167C80.0928 316.167 81.165 315.534 81.7012 314.541H81.7363V316H83.6436V309.628C83.6436 307.773 82.2109 306.578 79.9521 306.578C77.6758 306.578 76.2959 307.8 76.1641 309.391L76.1553 309.487H77.9482L77.9658 309.408C78.124 308.67 78.8008 308.151 79.8994 308.151C81.0771 308.151 81.7363 308.767 81.7363 309.786V310.48L79.2227 310.63C77.0342 310.762 75.7861 311.746 75.7861 313.354V313.372C75.7861 315.033 77.0254 316.167 78.8711 316.167ZM77.7021 313.328V313.311C77.7021 312.528 78.335 312.027 79.4775 311.957L81.7363 311.816V312.537C81.7363 313.741 80.7256 314.646 79.3896 314.646C78.3701 314.646 77.7021 314.137 77.7021 313.328ZM88.7324 316.185C89.1191 316.185 89.4795 316.141 89.6992 316.105V314.638C89.5586 314.655 89.3916 314.673 89.1895 314.673C88.3896 314.673 87.9678 314.392 87.9678 313.451V308.266H89.6992V306.754H87.9678V304.346H86.0254V306.754H84.6982V308.266H86.0254V313.565C86.0254 315.411 86.9043 316.185 88.7324 316.185ZM91.3428 316H93.2412V310.647C93.2412 309.206 94.1113 308.204 95.4209 308.204C96.7568 308.204 97.5303 309.118 97.5303 310.647V316H99.4287V310.287C99.4287 308.055 98.1279 306.578 96.1504 306.578C94.7705 306.578 93.7773 307.202 93.2852 308.274H93.2412V303.317H91.3428V316ZM105.221 316.185C107.462 316.185 108.886 314.849 109.185 313.381L109.202 313.284H107.4L107.374 313.354C107.137 314.049 106.39 314.629 105.265 314.629C103.753 314.629 102.795 313.609 102.76 311.86H109.308V311.219C109.308 308.441 107.717 306.578 105.124 306.578C102.531 306.578 100.861 308.512 100.861 311.403V311.412C100.861 314.33 102.505 316.185 105.221 316.185ZM105.133 308.134C106.372 308.134 107.269 308.916 107.427 310.516H102.786C102.953 308.969 103.902 308.134 105.133 308.134ZM110.784 316H112.683V310.489C112.683 309.109 113.438 308.31 114.66 308.31C115.029 308.31 115.363 308.354 115.513 308.415V306.648C115.363 306.622 115.126 306.578 114.854 306.578C113.799 306.578 113.025 307.255 112.727 308.336H112.683V306.754H110.784V316ZM122.166 316H124.126L126.051 309.074H126.095L128.037 316H130.015L132.546 306.754H130.665L128.978 314.031H128.934L127 306.754H125.172L123.247 314.031H123.212L121.524 306.754H119.626L122.166 316ZM134.734 305.33C135.358 305.33 135.842 304.838 135.842 304.24C135.842 303.634 135.358 303.142 134.734 303.142C134.119 303.142 133.627 303.634 133.627 304.24C133.627 304.838 134.119 305.33 134.734 305.33ZM133.785 316H135.684V306.754H133.785V316ZM140.887 316.185C141.273 316.185 141.634 316.141 141.854 316.105V314.638C141.713 314.655 141.546 314.673 141.344 314.673C140.544 314.673 140.122 314.392 140.122 313.451V308.266H141.854V306.754H140.122V304.346H138.18V306.754H136.853V308.266H138.18V313.565C138.18 315.411 139.059 316.185 140.887 316.185ZM143.497 316H145.396V310.647C145.396 309.206 146.266 308.204 147.575 308.204C148.911 308.204 149.685 309.118 149.685 310.647V316H151.583V310.287C151.583 308.055 150.282 306.578 148.305 306.578C146.925 306.578 145.932 307.202 145.439 308.274H145.396V303.317H143.497V316ZM157.639 316H159.546V308.266H161.392V306.754H159.511V305.805C159.511 304.987 159.915 304.574 160.768 304.574C161.005 304.574 161.242 304.592 161.427 304.618V303.212C161.172 303.168 160.75 303.133 160.363 303.133C158.482 303.133 157.639 303.977 157.639 305.77V306.754H156.364V308.266H157.639V316ZM162.886 316H164.784V310.489C164.784 309.109 165.54 308.31 166.762 308.31C167.131 308.31 167.465 308.354 167.614 308.415V306.648C167.465 306.622 167.228 306.578 166.955 306.578C165.9 306.578 165.127 307.255 164.828 308.336H164.784V306.754H162.886V316ZM169.82 305.33C170.444 305.33 170.928 304.838 170.928 304.24C170.928 303.634 170.444 303.142 169.82 303.142C169.205 303.142 168.713 303.634 168.713 304.24C168.713 304.838 169.205 305.33 169.82 305.33ZM168.871 316H170.77V306.754H168.871V316ZM176.676 316.185C178.917 316.185 180.341 314.849 180.64 313.381L180.657 313.284H178.855L178.829 313.354C178.592 314.049 177.845 314.629 176.72 314.629C175.208 314.629 174.25 313.609 174.215 311.86H180.763V311.219C180.763 308.441 179.172 306.578 176.579 306.578C173.986 306.578 172.316 308.512 172.316 311.403V311.412C172.316 314.33 173.96 316.185 176.676 316.185ZM176.588 308.134C177.827 308.134 178.724 308.916 178.882 310.516H174.241C174.408 308.969 175.357 308.134 176.588 308.134ZM182.239 316H184.138V310.612C184.138 309.171 184.999 308.204 186.335 308.204C187.653 308.204 188.304 308.986 188.304 310.375V316H190.211V310.015C190.211 307.888 189.042 306.578 187.012 306.578C185.614 306.578 184.665 307.211 184.182 308.151H184.138V306.754H182.239V316ZM195.502 316.185C196.829 316.185 197.849 315.517 198.402 314.436H198.438V316H200.345V303.317H198.438V308.327H198.402C197.849 307.237 196.794 306.578 195.484 306.578C193.164 306.578 191.635 308.424 191.635 311.368V311.377C191.635 314.321 193.146 316.185 195.502 316.185ZM196.003 314.55C194.5 314.55 193.577 313.346 193.577 311.377V311.368C193.577 309.417 194.509 308.204 196.003 308.204C197.427 308.204 198.446 309.452 198.446 311.368V311.377C198.446 313.302 197.436 314.55 196.003 314.55ZM205.759 316.185C207.938 316.185 209.521 315.024 209.521 313.337V313.328C209.521 312.001 208.8 311.254 206.91 310.814L205.407 310.472C204.414 310.234 204.036 309.848 204.036 309.276V309.268C204.036 308.529 204.678 308.046 205.697 308.046C206.77 308.046 207.402 308.608 207.517 309.417L207.525 309.479H209.31L209.301 309.373C209.204 307.8 207.886 306.578 205.697 306.578C203.57 306.578 202.129 307.712 202.129 309.364V309.373C202.129 310.718 202.999 311.562 204.757 311.966L206.269 312.309C207.262 312.546 207.596 312.889 207.596 313.486V313.495C207.596 314.242 206.91 314.717 205.768 314.717C204.599 314.717 203.966 314.216 203.79 313.363L203.772 313.275H201.892L201.9 313.354C202.094 315.042 203.447 316.185 205.759 316.185ZM210.426 318.549H211.762L213.045 314.049H211.146L210.426 318.549ZM217.976 316H219.927V306.604H219.979L226.51 316H228.32V303.317H226.369V312.695H226.316L219.795 303.317H217.976V316ZM235.809 316.211C238.999 316.211 240.933 314.321 240.933 311.544V303.317H238.973V311.386C238.973 313.231 237.83 314.471 235.809 314.471C233.787 314.471 232.636 313.231 232.636 311.386V303.317H230.667V311.544C230.667 314.321 232.627 316.211 235.809 316.211ZM247.595 316.211C250.601 316.211 252.429 314.743 252.429 312.432V312.423C252.429 310.463 251.304 309.399 248.685 308.846L247.296 308.556C245.714 308.213 244.993 307.633 244.993 306.684V306.675C244.993 305.567 245.995 304.82 247.568 304.812C249.071 304.812 250.091 305.523 250.267 306.701L250.275 306.824H252.191L252.183 306.675C252.051 304.548 250.24 303.106 247.595 303.106C244.914 303.106 243.007 304.592 242.998 306.754V306.763C242.998 308.644 244.202 309.786 246.689 310.313L248.069 310.604C249.748 310.973 250.442 311.526 250.442 312.546V312.555C250.442 313.741 249.37 314.506 247.674 314.506C245.978 314.506 244.809 313.776 244.633 312.607L244.615 312.493H242.699L242.708 312.625C242.866 314.857 244.747 316.211 247.595 316.211ZM253.976 319.076H255.874V314.444H255.918C256.463 315.517 257.526 316.185 258.836 316.185C261.156 316.185 262.677 314.33 262.677 311.386V311.377C262.677 308.424 261.165 306.578 258.81 306.578C257.491 306.578 256.472 307.246 255.918 308.345H255.874V306.754H253.976V319.076ZM258.317 314.55C256.885 314.55 255.865 313.302 255.865 311.386V311.377C255.865 309.452 256.876 308.204 258.317 308.204C259.803 308.204 260.743 309.408 260.743 311.377V311.386C260.743 313.337 259.812 314.55 258.317 314.55ZM268.126 316.185C270.771 316.185 272.512 314.356 272.512 311.377V311.359C272.512 308.397 270.754 306.578 268.117 306.578C265.489 306.578 263.74 308.406 263.74 311.359V311.377C263.74 314.348 265.472 316.185 268.126 316.185ZM268.135 314.594C266.649 314.594 265.683 313.425 265.683 311.377V311.359C265.683 309.338 266.658 308.169 268.117 308.169C269.603 308.169 270.569 309.338 270.569 311.359V311.377C270.569 313.416 269.62 314.594 268.135 314.594ZM277.223 316.185C277.609 316.185 277.97 316.141 278.189 316.105V314.638C278.049 314.655 277.882 314.673 277.68 314.673C276.88 314.673 276.458 314.392 276.458 313.451V308.266H278.189V306.754H276.458V304.346H274.516V306.754H273.188V308.266H274.516V313.565C274.516 315.411 275.395 316.185 277.223 316.185ZM283.226 316.185C285.405 316.185 286.987 315.024 286.987 313.337V313.328C286.987 312.001 286.267 311.254 284.377 310.814L282.874 310.472C281.881 310.234 281.503 309.848 281.503 309.276V309.268C281.503 308.529 282.145 308.046 283.164 308.046C284.236 308.046 284.869 308.608 284.983 309.417L284.992 309.479H286.776L286.768 309.373C286.671 307.8 285.353 306.578 283.164 306.578C281.037 306.578 279.596 307.712 279.596 309.364V309.373C279.596 310.718 280.466 311.562 282.224 311.966L283.735 312.309C284.729 312.546 285.062 312.889 285.062 313.486V313.495C285.062 314.242 284.377 314.717 283.234 314.717C282.065 314.717 281.433 314.216 281.257 313.363L281.239 313.275H279.358L279.367 313.354C279.561 315.042 280.914 316.185 283.226 316.185ZM47.0107 348H48.9092V342.647C48.9092 341.206 49.7793 340.204 51.0889 340.204C52.4248 340.204 53.1982 341.118 53.1982 342.647V348H55.0967V342.287C55.0967 340.055 53.7959 338.578 51.8184 338.578C50.4385 338.578 49.4453 339.202 48.9531 340.274H48.9092V335.317H47.0107V348ZM59.6582 348.167C60.8799 348.167 61.9521 347.534 62.4883 346.541H62.5234V348H64.4307V341.628C64.4307 339.773 62.998 338.578 60.7393 338.578C58.4629 338.578 57.083 339.8 56.9512 341.391L56.9424 341.487H58.7354L58.7529 341.408C58.9111 340.67 59.5879 340.151 60.6865 340.151C61.8643 340.151 62.5234 340.767 62.5234 341.786V342.48L60.0098 342.63C57.8213 342.762 56.5732 343.746 56.5732 345.354V345.372C56.5732 347.033 57.8125 348.167 59.6582 348.167ZM58.4893 345.328V345.311C58.4893 344.528 59.1221 344.027 60.2646 343.957L62.5234 343.816V344.537C62.5234 345.741 61.5127 346.646 60.1768 346.646C59.1572 346.646 58.4893 346.137 58.4893 345.328ZM69.7393 348.185C71.9189 348.185 73.501 347.024 73.501 345.337V345.328C73.501 344.001 72.7803 343.254 70.8906 342.814L69.3877 342.472C68.3945 342.234 68.0166 341.848 68.0166 341.276V341.268C68.0166 340.529 68.6582 340.046 69.6777 340.046C70.75 340.046 71.3828 340.608 71.4971 341.417L71.5059 341.479H73.29L73.2812 341.373C73.1846 339.8 71.8662 338.578 69.6777 338.578C67.5508 338.578 66.1094 339.712 66.1094 341.364V341.373C66.1094 342.718 66.9795 343.562 68.7373 343.966L70.249 344.309C71.2422 344.546 71.5762 344.889 71.5762 345.486V345.495C71.5762 346.242 70.8906 346.717 69.748 346.717C68.5791 346.717 67.9463 346.216 67.7705 345.363L67.7529 345.275H65.8721L65.8809 345.354C66.0742 347.042 67.4277 348.185 69.7393 348.185ZM79.7236 351.085C81.5342 351.085 82.501 350.347 83.1865 348.431L86.6318 338.754H84.6279L82.2988 346.277H82.2373L79.9082 338.754H77.8516L81.2178 348.009L81.0596 348.448C80.7432 349.345 80.251 349.582 79.3545 349.582C79.0996 349.582 78.8799 349.547 78.7305 349.512V350.997C78.959 351.041 79.3545 351.085 79.7236 351.085ZM91.3604 348.185C94.0059 348.185 95.7461 346.356 95.7461 343.377V343.359C95.7461 340.397 93.9883 338.578 91.3516 338.578C88.7236 338.578 86.9746 340.406 86.9746 343.359V343.377C86.9746 346.348 88.7061 348.185 91.3604 348.185ZM91.3691 346.594C89.8838 346.594 88.917 345.425 88.917 343.377V343.359C88.917 341.338 89.8926 340.169 91.3516 340.169C92.8369 340.169 93.8037 341.338 93.8037 343.359V343.377C93.8037 345.416 92.8545 346.594 91.3691 346.594ZM100.36 348.185C101.767 348.185 102.707 347.543 103.19 346.611H103.234V348H105.142V338.754H103.234V344.15C103.234 345.592 102.373 346.55 101.037 346.55C99.7188 346.55 99.0684 345.776 99.0684 344.379V338.754H97.1699V344.748C97.1699 346.875 98.3301 348.185 100.36 348.185ZM114.651 348.185C116.875 348.185 118.422 346.761 118.624 344.906L118.633 344.845H116.805L116.796 344.915C116.567 345.917 115.82 346.594 114.651 346.594C113.184 346.594 112.208 345.407 112.208 343.386V343.377C112.208 341.399 113.166 340.169 114.643 340.169C115.882 340.169 116.585 340.934 116.787 341.839L116.805 341.909H118.615L118.606 341.848C118.448 340.107 117.007 338.578 114.625 338.578C111.988 338.578 110.266 340.433 110.266 343.359V343.368C110.266 346.33 111.953 348.185 114.651 348.185ZM123.95 348.185C126.596 348.185 128.336 346.356 128.336 343.377V343.359C128.336 340.397 126.578 338.578 123.941 338.578C121.313 338.578 119.564 340.406 119.564 343.359V343.377C119.564 346.348 121.296 348.185 123.95 348.185ZM123.959 346.594C122.474 346.594 121.507 345.425 121.507 343.377V343.359C121.507 341.338 122.482 340.169 123.941 340.169C125.427 340.169 126.394 341.338 126.394 343.359V343.377C126.394 345.416 125.444 346.594 123.959 346.594ZM131.992 348H134.031L137.345 338.754H135.367L133.047 346.146H133.003L130.683 338.754H128.661L131.992 348ZM142.029 348.185C144.271 348.185 145.694 346.849 145.993 345.381L146.011 345.284H144.209L144.183 345.354C143.945 346.049 143.198 346.629 142.073 346.629C140.562 346.629 139.604 345.609 139.568 343.86H146.116V343.219C146.116 340.441 144.525 338.578 141.933 338.578C139.34 338.578 137.67 340.512 137.67 343.403V343.412C137.67 346.33 139.313 348.185 142.029 348.185ZM141.941 340.134C143.181 340.134 144.077 340.916 144.235 342.516H139.595C139.762 340.969 140.711 340.134 141.941 340.134ZM147.593 348H149.491V342.489C149.491 341.109 150.247 340.31 151.469 340.31C151.838 340.31 152.172 340.354 152.321 340.415V338.648C152.172 338.622 151.935 338.578 151.662 338.578C150.607 338.578 149.834 339.255 149.535 340.336H149.491V338.754H147.593V348ZM157.041 348.185C159.282 348.185 160.706 346.849 161.005 345.381L161.022 345.284H159.221L159.194 345.354C158.957 346.049 158.21 346.629 157.085 346.629C155.573 346.629 154.615 345.609 154.58 343.86H161.128V343.219C161.128 340.441 159.537 338.578 156.944 338.578C154.352 338.578 152.682 340.512 152.682 343.403V343.412C152.682 346.33 154.325 348.185 157.041 348.185ZM156.953 340.134C158.192 340.134 159.089 340.916 159.247 342.516H154.606C154.773 340.969 155.723 340.134 156.953 340.134ZM166.059 348.185C167.386 348.185 168.405 347.517 168.959 346.436H168.994V348H170.901V335.317H168.994V340.327H168.959C168.405 339.237 167.351 338.578 166.041 338.578C163.721 338.578 162.191 340.424 162.191 343.368V343.377C162.191 346.321 163.703 348.185 166.059 348.185ZM166.56 346.55C165.057 346.55 164.134 345.346 164.134 343.377V343.368C164.134 341.417 165.065 340.204 166.56 340.204C167.983 340.204 169.003 341.452 169.003 343.368V343.377C169.003 345.302 167.992 346.55 166.56 346.55ZM173.934 348.132C174.575 348.132 175.085 347.622 175.085 346.98C175.085 346.33 174.575 345.829 173.934 345.829C173.283 345.829 172.773 346.33 172.773 346.98C172.773 347.622 173.283 348.132 173.934 348.132Z" fill="#011627"/>
<path d="M46.3281 143H50.043L51.3203 138.898H57.2969L58.5742 143H62.2891L56.3945 126.09H52.2344L46.3281 143ZM54.2734 129.371H54.3438L56.4766 136.25H52.1406L54.2734 129.371ZM67.9141 143.258C69.7305 143.258 71.1133 142.344 71.7812 140.855H71.8516V143H75.2734V126.09H71.8516V132.617H71.7812C71.1016 131.094 69.6953 130.18 67.9141 130.18C64.75 130.18 62.8047 132.617 62.8047 136.707V136.719C62.8047 140.797 64.75 143.258 67.9141 143.258ZM69.0625 140.422C67.3516 140.422 66.2852 139.004 66.2852 136.719V136.707C66.2852 134.41 67.3633 133.016 69.0625 133.016C70.7148 133.016 71.8633 134.445 71.8633 136.707V136.719C71.8633 138.992 70.7266 140.422 69.0625 140.422ZM82.2109 143.258C84.0273 143.258 85.4102 142.344 86.0781 140.855H86.1484V143H89.5703V126.09H86.1484V132.617H86.0781C85.3984 131.094 83.9922 130.18 82.2109 130.18C79.0469 130.18 77.1016 132.617 77.1016 136.707V136.719C77.1016 140.797 79.0469 143.258 82.2109 143.258ZM83.3594 140.422C81.6484 140.422 80.582 139.004 80.582 136.719V136.707C80.582 134.41 81.6602 133.016 83.3594 133.016C85.0117 133.016 86.1602 134.445 86.1602 136.707V136.719C86.1602 138.992 85.0234 140.422 83.3594 140.422ZM101.605 143.258C102.32 143.258 102.871 143.188 103.258 143.129V140.621C103.047 140.645 102.824 140.68 102.52 140.68C101.488 140.68 100.961 140.281 100.961 139.109V133.016H103.258V130.438H100.961V127.367H97.5039V130.438H95.7578V133.016H97.5039V139.484C97.5039 142.18 98.8164 143.258 101.605 143.258ZM108.766 143.199C110.418 143.199 111.754 142.414 112.469 141.125H112.539V143H115.961V134.387C115.961 131.855 113.863 130.18 110.617 130.18C107.301 130.18 105.309 131.844 105.121 134.164L105.109 134.305H108.238L108.262 134.199C108.426 133.391 109.199 132.793 110.477 132.793C111.812 132.793 112.539 133.484 112.539 134.598V135.371L109.434 135.559C106.316 135.758 104.547 137.094 104.547 139.379V139.402C104.547 141.617 106.246 143.199 108.766 143.199ZM107.934 139.227V139.203C107.934 138.312 108.625 137.75 109.949 137.668L112.539 137.504V138.406C112.539 139.719 111.414 140.703 109.879 140.703C108.695 140.703 107.934 140.152 107.934 139.227ZM124.047 147.359C127.82 147.359 130.176 145.449 130.176 142.648V130.438H126.754V132.582H126.684C126.004 131.117 124.633 130.18 122.863 130.18C119.688 130.18 117.719 132.559 117.719 136.566V136.578C117.719 140.48 119.664 142.824 122.805 142.824C124.621 142.824 126.027 141.992 126.684 140.68H126.754V142.602C126.754 144.008 125.816 144.922 124.047 144.922C122.617 144.922 121.703 144.383 121.434 143.762L121.398 143.68H118.07L118.082 143.785C118.41 145.801 120.59 147.359 124.047 147.359ZM123.988 140.316C122.277 140.316 121.199 138.922 121.199 136.66V136.648C121.199 134.398 122.289 133.016 123.988 133.016C125.652 133.016 126.766 134.41 126.766 136.648V136.66C126.766 138.91 125.664 140.316 123.988 140.316ZM137.594 143.258C140.828 143.258 143.09 141.641 143.09 139.18V139.168C143.09 137.316 142.012 136.285 139.387 135.734L137.254 135.277C135.988 135.008 135.555 134.586 135.555 133.941V133.93C135.555 133.121 136.293 132.594 137.477 132.594C138.742 132.594 139.48 133.273 139.598 134.176L139.609 134.27H142.762V134.152C142.68 131.949 140.816 130.18 137.477 130.18C134.277 130.18 132.215 131.727 132.215 134.117V134.129C132.215 136.004 133.445 137.223 135.883 137.738L138.016 138.184C139.246 138.453 139.668 138.84 139.668 139.508V139.52C139.668 140.328 138.883 140.832 137.594 140.832C136.223 140.832 135.484 140.258 135.262 139.273L135.238 139.168H131.898L131.91 139.273C132.18 141.652 134.113 143.258 137.594 143.258ZM154.527 143.258C155.242 143.258 155.793 143.188 156.18 143.129V140.621C155.969 140.645 155.746 140.68 155.441 140.68C154.41 140.68 153.883 140.281 153.883 139.109V133.016H156.18V130.438H153.883V127.367H150.426V130.438H148.68V133.016H150.426V139.484C150.426 142.18 151.738 143.258 154.527 143.258ZM163.645 143.258C167.441 143.258 169.867 140.82 169.867 136.719V136.695C169.867 132.629 167.395 130.18 163.633 130.18C159.883 130.18 157.422 132.652 157.422 136.695V136.719C157.422 140.809 159.824 143.258 163.645 143.258ZM163.656 140.574C161.969 140.574 160.902 139.18 160.902 136.719V136.695C160.902 134.27 161.98 132.863 163.633 132.863C165.297 132.863 166.387 134.27 166.387 136.695V136.719C166.387 139.168 165.32 140.574 163.656 140.574ZM176.395 143H179.816V135.781C179.816 134.141 180.789 133.016 182.324 133.016C183.859 133.016 184.633 133.953 184.633 135.594V143H188.055V134.891C188.055 131.949 186.484 130.18 183.719 130.18C181.82 130.18 180.531 131.059 179.887 132.5H179.816V130.438H176.395V143ZM193.961 143.199C195.613 143.199 196.949 142.414 197.664 141.125H197.734V143H201.156V134.387C201.156 131.855 199.059 130.18 195.812 130.18C192.496 130.18 190.504 131.844 190.316 134.164L190.305 134.305H193.434L193.457 134.199C193.621 133.391 194.395 132.793 195.672 132.793C197.008 132.793 197.734 133.484 197.734 134.598V135.371L194.629 135.559C191.512 135.758 189.742 137.094 189.742 139.379V139.402C189.742 141.617 191.441 143.199 193.961 143.199ZM193.129 139.227V139.203C193.129 138.312 193.82 137.75 195.145 137.668L197.734 137.504V138.406C197.734 139.719 196.609 140.703 195.074 140.703C193.891 140.703 193.129 140.152 193.129 139.227ZM203.371 143H206.793V135.969C206.793 134.141 207.777 133.133 209.465 133.133C209.957 133.133 210.426 133.203 210.707 133.32V130.309C210.449 130.238 210.098 130.18 209.723 130.18C208.258 130.18 207.238 131.082 206.863 132.629H206.793V130.438H203.371V143ZM212.113 143H215.535V135.969C215.535 134.141 216.52 133.133 218.207 133.133C218.699 133.133 219.168 133.203 219.449 133.32V130.309C219.191 130.238 218.84 130.18 218.465 130.18C217 130.18 215.98 131.082 215.605 132.629H215.535V130.438H212.113V143ZM226.199 143.258C229.996 143.258 232.422 140.82 232.422 136.719V136.695C232.422 132.629 229.949 130.18 226.188 130.18C222.438 130.18 219.977 132.652 219.977 136.695V136.719C219.977 140.809 222.379 143.258 226.199 143.258ZM226.211 140.574C224.523 140.574 223.457 139.18 223.457 136.719V136.695C223.457 134.27 224.535 132.863 226.188 132.863C227.852 132.863 228.941 134.27 228.941 136.695V136.719C228.941 139.168 227.875 140.574 226.211 140.574ZM236.523 143H240.121L242.383 134.117H242.453L244.727 143H248.371L251.699 130.438H248.324L246.414 139.754H246.344L244.105 130.438H240.824L238.598 139.754H238.527L236.629 130.438H233.184L236.523 143ZM49.082 179.137C51.8711 179.137 53.5586 178.188 54.543 175.223L58.8555 162.438H55.2461L52.5859 172.258H52.4922L49.8438 162.438H46.082L50.5234 175L50.3711 175.41C50.0664 176.266 49.5039 176.559 48.4844 176.559C47.9805 176.559 47.582 176.488 47.3359 176.441V178.984C47.7344 179.055 48.4141 179.137 49.082 179.137ZM65.3711 175.258C69.168 175.258 71.5938 172.82 71.5938 168.719V168.695C71.5938 164.629 69.1211 162.18 65.3594 162.18C61.6094 162.18 59.1484 164.652 59.1484 168.695V168.719C59.1484 172.809 61.5508 175.258 65.3711 175.258ZM65.3828 172.574C63.6953 172.574 62.6289 171.18 62.6289 168.719V168.695C62.6289 166.27 63.707 164.863 65.3594 164.863C67.0234 164.863 68.1133 166.27 68.1133 168.695V168.719C68.1133 171.168 67.0469 172.574 65.3828 172.574ZM77.6406 175.258C79.5391 175.258 80.8281 174.367 81.4727 172.926H81.543V175H84.9648V162.438H81.543V169.656C81.543 171.297 80.5703 172.422 79.0352 172.422C77.5 172.422 76.7266 171.473 76.7266 169.832V162.438H73.3047V170.547C73.3047 173.488 74.875 175.258 77.6406 175.258ZM87.1914 175H90.6133V167.969C90.6133 166.141 91.5977 165.133 93.2852 165.133C93.7773 165.133 94.2461 165.203 94.5273 165.32V162.309C94.2695 162.238 93.918 162.18 93.543 162.18C92.0781 162.18 91.0586 163.082 90.6836 164.629H90.6133V162.438H87.1914V175ZM105.859 175.258C109.094 175.258 111.355 173.641 111.355 171.18V171.168C111.355 169.316 110.277 168.285 107.652 167.734L105.52 167.277C104.254 167.008 103.82 166.586 103.82 165.941V165.93C103.82 165.121 104.559 164.594 105.742 164.594C107.008 164.594 107.746 165.273 107.863 166.176L107.875 166.27H111.027V166.152C110.945 163.949 109.082 162.18 105.742 162.18C102.543 162.18 100.48 163.727 100.48 166.117V166.129C100.48 168.004 101.711 169.223 104.148 169.738L106.281 170.184C107.512 170.453 107.934 170.84 107.934 171.508V171.52C107.934 172.328 107.148 172.832 105.859 172.832C104.488 172.832 103.75 172.258 103.527 171.273L103.504 171.168H100.164L100.176 171.273C100.445 173.652 102.379 175.258 105.859 175.258ZM118.762 175.258C122.348 175.258 124.082 173.137 124.469 171.285L124.504 171.156H121.363L121.34 171.227C121.094 171.93 120.238 172.703 118.832 172.703C117.086 172.703 115.996 171.531 115.961 169.527H124.609V168.473C124.609 164.676 122.301 162.18 118.621 162.18C114.941 162.18 112.586 164.734 112.586 168.73V168.742C112.586 172.762 114.918 175.258 118.762 175.258ZM118.68 164.734C120.098 164.734 121.117 165.637 121.328 167.371H115.996C116.219 165.672 117.273 164.734 118.68 164.734ZM130.117 175.199C131.77 175.199 133.105 174.414 133.82 173.125H133.891V175H137.312V166.387C137.312 163.855 135.215 162.18 131.969 162.18C128.652 162.18 126.66 163.844 126.473 166.164L126.461 166.305H129.59L129.613 166.199C129.777 165.391 130.551 164.793 131.828 164.793C133.164 164.793 133.891 165.484 133.891 166.598V167.371L130.785 167.559C127.668 167.758 125.898 169.094 125.898 171.379V171.402C125.898 173.617 127.598 175.199 130.117 175.199ZM129.285 171.227V171.203C129.285 170.312 129.977 169.75 131.301 169.668L133.891 169.504V170.406C133.891 171.719 132.766 172.703 131.23 172.703C130.047 172.703 129.285 172.152 129.285 171.227ZM139.527 175H142.949V167.969C142.949 166.141 143.934 165.133 145.621 165.133C146.113 165.133 146.582 165.203 146.863 165.32V162.309C146.605 162.238 146.254 162.18 145.879 162.18C144.414 162.18 143.395 163.082 143.02 164.629H142.949V162.438H139.527V175ZM153.59 175.258C156.941 175.258 159.109 173.172 159.273 170.43V170.359H156.086L156.074 170.465C155.84 171.73 154.984 172.574 153.613 172.574C151.926 172.574 150.871 171.18 150.871 168.719V168.707C150.871 166.305 151.926 164.863 153.602 164.863C155.02 164.863 155.852 165.777 156.062 166.973L156.086 167.078H159.262V166.996C159.133 164.277 156.965 162.18 153.555 162.18C149.793 162.18 147.391 164.676 147.391 168.695V168.707C147.391 172.762 149.758 175.258 153.59 175.258ZM161.008 175H164.43V167.805C164.43 166.164 165.402 165.016 166.914 165.016C168.473 165.016 169.34 166.059 169.34 167.816V175H172.762V167.113C172.762 164.078 171.074 162.18 168.355 162.18C166.469 162.18 165.145 163.047 164.5 164.605H164.43V158.09H161.008V175Z" fill="#011627"/>
<rect x="36" y="440" width="96" height="24" rx="5" fill="#CC2A14"/>
<path d="M57.1484 457.164C59.3291 457.164 60.9629 455.845 61.2705 453.883L61.2773 453.814H59.7598L59.7393 453.876C59.3701 455.127 58.4609 455.811 57.1484 455.811C55.3232 455.811 54.1406 454.348 54.1406 452.064V452.058C54.1406 449.774 55.3164 448.325 57.1484 448.325C58.4746 448.325 59.3906 449.029 59.7188 450.185L59.7598 450.321H61.2773L61.2637 450.26C60.9561 448.312 59.3223 446.972 57.1484 446.972C54.3525 446.972 52.5752 448.927 52.5752 452.058V452.064C52.5752 455.195 54.3525 457.164 57.1484 457.164ZM62.542 457H64.0186V447.136H62.542V457ZM67.6484 457.13C68.5986 457.13 69.4326 456.638 69.8496 455.865H69.877V457H71.3604V452.044C71.3604 450.602 70.2461 449.672 68.4893 449.672C66.7188 449.672 65.6455 450.622 65.543 451.859L65.5361 451.935H66.9307L66.9443 451.873C67.0674 451.299 67.5938 450.896 68.4482 450.896C69.3643 450.896 69.877 451.374 69.877 452.167V452.707L67.9219 452.823C66.2197 452.926 65.249 453.691 65.249 454.942V454.956C65.249 456.248 66.2129 457.13 67.6484 457.13ZM66.7393 454.922V454.908C66.7393 454.3 67.2314 453.91 68.1201 453.855L69.877 453.746V454.307C69.877 455.243 69.0908 455.947 68.0518 455.947C67.2588 455.947 66.7393 455.551 66.7393 454.922ZM75.4893 457.144C77.1846 457.144 78.415 456.241 78.415 454.929V454.922C78.415 453.89 77.8545 453.309 76.3848 452.967L75.2158 452.7C74.4434 452.516 74.1494 452.215 74.1494 451.771V451.764C74.1494 451.189 74.6484 450.813 75.4414 450.813C76.2754 450.813 76.7676 451.251 76.8564 451.88L76.8633 451.928H78.251L78.2441 451.846C78.1689 450.622 77.1436 449.672 75.4414 449.672C73.7871 449.672 72.666 450.554 72.666 451.839V451.846C72.666 452.892 73.3428 453.548 74.71 453.862L75.8857 454.129C76.6582 454.313 76.918 454.58 76.918 455.045V455.052C76.918 455.633 76.3848 456.002 75.4961 456.002C74.5869 456.002 74.0947 455.612 73.958 454.949L73.9443 454.881H72.4814L72.4883 454.942C72.6387 456.255 73.6914 457.144 75.4893 457.144ZM82.2568 457.144C83.9521 457.144 85.1826 456.241 85.1826 454.929V454.922C85.1826 453.89 84.6221 453.309 83.1523 452.967L81.9834 452.7C81.2109 452.516 80.917 452.215 80.917 451.771V451.764C80.917 451.189 81.416 450.813 82.209 450.813C83.043 450.813 83.5352 451.251 83.624 451.88L83.6309 451.928H85.0186L85.0117 451.846C84.9365 450.622 83.9111 449.672 82.209 449.672C80.5547 449.672 79.4336 450.554 79.4336 451.839V451.846C79.4336 452.892 80.1104 453.548 81.4775 453.862L82.6533 454.129C83.4258 454.313 83.6855 454.58 83.6855 455.045V455.052C83.6855 455.633 83.1523 456.002 82.2637 456.002C81.3545 456.002 80.8623 455.612 80.7256 454.949L80.7119 454.881H79.249L79.2559 454.942C79.4062 456.255 80.459 457.144 82.2568 457.144ZM86.3311 457H87.8076V452.714C87.8076 451.641 88.3955 451.019 89.3457 451.019C89.6328 451.019 89.8926 451.053 90.0088 451.101V449.727C89.8926 449.706 89.708 449.672 89.4961 449.672C88.6758 449.672 88.0742 450.198 87.8418 451.039H87.8076V449.809H86.3311V457ZM93.7002 457.144C95.7578 457.144 97.1113 455.722 97.1113 453.404V453.391C97.1113 451.087 95.7441 449.672 93.6934 449.672C91.6494 449.672 90.2891 451.094 90.2891 453.391V453.404C90.2891 455.715 91.6357 457.144 93.7002 457.144ZM93.707 455.906C92.5518 455.906 91.7998 454.997 91.7998 453.404V453.391C91.7998 451.818 92.5586 450.909 93.6934 450.909C94.8486 450.909 95.6006 451.818 95.6006 453.391V453.404C95.6006 454.99 94.8623 455.906 93.707 455.906ZM101.343 457.144C103.4 457.144 104.754 455.722 104.754 453.404V453.391C104.754 451.087 103.387 449.672 101.336 449.672C99.292 449.672 97.9316 451.094 97.9316 453.391V453.404C97.9316 455.715 99.2783 457.144 101.343 457.144ZM101.35 455.906C100.194 455.906 99.4424 454.997 99.4424 453.404V453.391C99.4424 451.818 100.201 450.909 101.336 450.909C102.491 450.909 103.243 451.818 103.243 453.391V453.404C103.243 454.99 102.505 455.906 101.35 455.906ZM105.896 457H107.372V452.557C107.372 451.627 107.994 450.937 108.869 450.937C109.703 450.937 110.229 451.47 110.229 452.304V457H111.679V452.502C111.679 451.593 112.287 450.937 113.162 450.937C114.037 450.937 114.536 451.477 114.536 452.413V457H116.02V452.058C116.02 450.615 115.09 449.672 113.668 449.672C112.643 449.672 111.795 450.212 111.426 451.087H111.392C111.104 450.185 110.38 449.672 109.389 449.672C108.445 449.672 107.714 450.171 107.406 450.923H107.372V449.809H105.896V457Z" fill="#FDFFFC"/>
<rect x="125" y="484" width="96" height="24" rx="5" fill="#CC2A14"/>
<path d="M145.007 501H146.524V493.692H146.565L151.645 501H153.053V491.136H151.535V498.43H151.494L146.422 491.136H145.007V501ZM157.79 501.144C159.848 501.144 161.201 499.722 161.201 497.404V497.391C161.201 495.087 159.834 493.672 157.783 493.672C155.739 493.672 154.379 495.094 154.379 497.391V497.404C154.379 499.715 155.726 501.144 157.79 501.144ZM157.797 499.906C156.642 499.906 155.89 498.997 155.89 497.404V497.391C155.89 495.818 156.648 494.909 157.783 494.909C158.938 494.909 159.69 495.818 159.69 497.391V497.404C159.69 498.99 158.952 499.906 157.797 499.906ZM165.364 501H171.626V499.681H166.896V496.618H171.373V495.333H166.896V492.455H171.626V491.136H165.364V501ZM175.119 501.13C176.069 501.13 176.903 500.638 177.32 499.865H177.348V501H178.831V496.044C178.831 494.602 177.717 493.672 175.96 493.672C174.189 493.672 173.116 494.622 173.014 495.859L173.007 495.935H174.401L174.415 495.873C174.538 495.299 175.064 494.896 175.919 494.896C176.835 494.896 177.348 495.374 177.348 496.167V496.707L175.393 496.823C173.69 496.926 172.72 497.691 172.72 498.942V498.956C172.72 500.248 173.684 501.13 175.119 501.13ZM174.21 498.922V498.908C174.21 498.3 174.702 497.91 175.591 497.855L177.348 497.746V498.307C177.348 499.243 176.562 499.947 175.522 499.947C174.729 499.947 174.21 499.551 174.21 498.922ZM182.789 501.144C183.09 501.144 183.37 501.109 183.541 501.082V499.94C183.432 499.954 183.302 499.968 183.145 499.968C182.522 499.968 182.194 499.749 182.194 499.018V494.984H183.541V493.809H182.194V491.936H180.684V493.809H179.651V494.984H180.684V499.106C180.684 500.542 181.367 501.144 182.789 501.144ZM185.564 492.701C186.05 492.701 186.426 492.318 186.426 491.854C186.426 491.382 186.05 490.999 185.564 490.999C185.086 490.999 184.703 491.382 184.703 491.854C184.703 492.318 185.086 492.701 185.564 492.701ZM184.826 501H186.303V493.809H184.826V501ZM187.827 501H189.304V496.81C189.304 495.688 189.974 494.937 191.013 494.937C192.038 494.937 192.544 495.545 192.544 496.625V501H194.027V496.345C194.027 494.69 193.118 493.672 191.539 493.672C190.452 493.672 189.714 494.164 189.338 494.896H189.304V493.809H187.827V501ZM198.607 503.536C200.638 503.536 201.909 502.442 201.909 500.802V493.809H200.426V495.032H200.392C199.968 494.219 199.175 493.672 198.163 493.672C196.338 493.672 195.135 495.087 195.135 497.343V497.35C195.135 499.592 196.324 501.007 198.129 501.007C199.161 501.007 199.981 500.508 200.392 499.729H200.426V500.713C200.426 501.718 199.776 502.347 198.601 502.347C197.678 502.347 197.056 502.032 196.857 501.574L196.83 501.52H195.367L195.374 501.581C195.593 502.682 196.762 503.536 198.607 503.536ZM198.546 499.804C197.377 499.804 196.646 498.874 196.646 497.37V497.363C196.646 495.88 197.377 494.937 198.546 494.937C199.667 494.937 200.426 495.887 200.426 497.363V497.37C200.426 498.854 199.674 499.804 198.546 499.804Z" fill="#FDFFFC"/>
<rect x="231" y="484" width="107" height="24" rx="5" fill="#CC2A14"/>
<path d="M246.689 501.164C248.869 501.164 250.503 499.845 250.811 497.883L250.818 497.814H249.3L249.28 497.876C248.91 499.127 248.001 499.811 246.689 499.811C244.864 499.811 243.681 498.348 243.681 496.064V496.058C243.681 493.774 244.857 492.325 246.689 492.325C248.015 492.325 248.931 493.029 249.259 494.185L249.3 494.321H250.818L250.804 494.26C250.496 492.312 248.863 490.972 246.689 490.972C243.893 490.972 242.115 492.927 242.115 496.058V496.064C242.115 499.195 243.893 501.164 246.689 501.164ZM255.117 501.144C257.175 501.144 258.529 499.722 258.529 497.404V497.391C258.529 495.087 257.161 493.672 255.111 493.672C253.067 493.672 251.706 495.094 251.706 497.391V497.404C251.706 499.715 253.053 501.144 255.117 501.144ZM255.124 499.906C253.969 499.906 253.217 498.997 253.217 497.404V497.391C253.217 495.818 253.976 494.909 255.111 494.909C256.266 494.909 257.018 495.818 257.018 497.391V497.404C257.018 498.99 256.28 499.906 255.124 499.906ZM259.67 501H261.147V496.557C261.147 495.627 261.769 494.937 262.644 494.937C263.478 494.937 264.004 495.47 264.004 496.304V501H265.453V496.502C265.453 495.593 266.062 494.937 266.937 494.937C267.812 494.937 268.311 495.477 268.311 496.413V501H269.794V496.058C269.794 494.615 268.865 493.672 267.443 493.672C266.417 493.672 265.57 494.212 265.2 495.087H265.166C264.879 494.185 264.155 493.672 263.163 493.672C262.22 493.672 261.489 494.171 261.181 494.923H261.147V493.809H259.67V501ZM271.223 501H272.699V496.557C272.699 495.627 273.322 494.937 274.197 494.937C275.031 494.937 275.557 495.47 275.557 496.304V501H277.006V496.502C277.006 495.593 277.615 494.937 278.49 494.937C279.365 494.937 279.864 495.477 279.864 496.413V501H281.347V496.058C281.347 494.615 280.417 493.672 278.995 493.672C277.97 493.672 277.122 494.212 276.753 495.087H276.719C276.432 494.185 275.707 493.672 274.716 493.672C273.773 493.672 273.041 494.171 272.734 494.923H272.699V493.809H271.223V501ZM285.865 501.144C287.923 501.144 289.277 499.722 289.277 497.404V497.391C289.277 495.087 287.909 493.672 285.859 493.672C283.815 493.672 282.454 495.094 282.454 497.391V497.404C282.454 499.715 283.801 501.144 285.865 501.144ZM285.872 499.906C284.717 499.906 283.965 498.997 283.965 497.404V497.391C283.965 495.818 284.724 494.909 285.859 494.909C287.014 494.909 287.766 495.818 287.766 497.391V497.404C287.766 498.99 287.028 499.906 285.872 499.906ZM290.418 501H291.895V496.81C291.895 495.688 292.565 494.937 293.604 494.937C294.629 494.937 295.135 495.545 295.135 496.625V501H296.618V496.345C296.618 494.69 295.709 493.672 294.13 493.672C293.043 493.672 292.305 494.164 291.929 494.896H291.895V493.809H290.418V501ZM303.003 501.13C303.953 501.13 304.787 500.638 305.204 499.865H305.232V501H306.715V496.044C306.715 494.602 305.601 493.672 303.844 493.672C302.073 493.672 301 494.622 300.898 495.859L300.891 495.935H302.285L302.299 495.873C302.422 495.299 302.948 494.896 303.803 494.896C304.719 494.896 305.232 495.374 305.232 496.167V496.707L303.277 496.823C301.574 496.926 300.604 497.691 300.604 498.942V498.956C300.604 500.248 301.568 501.13 303.003 501.13ZM302.094 498.922V498.908C302.094 498.3 302.586 497.91 303.475 497.855L305.232 497.746V498.307C305.232 499.243 304.446 499.947 303.406 499.947C302.614 499.947 302.094 499.551 302.094 498.922ZM308.151 501H309.627V496.714C309.627 495.641 310.215 495.019 311.165 495.019C311.452 495.019 311.712 495.053 311.828 495.101V493.727C311.712 493.706 311.528 493.672 311.316 493.672C310.495 493.672 309.894 494.198 309.661 495.039H309.627V493.809H308.151V501ZM315.499 501.144C317.242 501.144 318.35 500.104 318.582 498.963L318.596 498.888H317.195L317.174 498.942C316.99 499.482 316.408 499.934 315.533 499.934C314.358 499.934 313.613 499.141 313.585 497.78H318.678V497.281C318.678 495.121 317.441 493.672 315.424 493.672C313.407 493.672 312.109 495.176 312.109 497.425V497.432C312.109 499.701 313.387 501.144 315.499 501.144ZM315.431 494.882C316.395 494.882 317.092 495.49 317.215 496.734H313.606C313.736 495.531 314.474 494.882 315.431 494.882ZM321.939 501.13C322.889 501.13 323.723 500.638 324.14 499.865H324.167V501H325.651V496.044C325.651 494.602 324.536 493.672 322.78 493.672C321.009 493.672 319.936 494.622 319.833 495.859L319.826 495.935H321.221L321.235 495.873C321.358 495.299 321.884 494.896 322.739 494.896C323.655 494.896 324.167 495.374 324.167 496.167V496.707L322.212 496.823C320.51 496.926 319.539 497.691 319.539 498.942V498.956C319.539 500.248 320.503 501.13 321.939 501.13ZM321.03 498.922V498.908C321.03 498.3 321.522 497.91 322.41 497.855L324.167 497.746V498.307C324.167 499.243 323.381 499.947 322.342 499.947C321.549 499.947 321.03 499.551 321.03 498.922Z" fill="#FDFFFC"/>
<rect x="142" y="440" width="96" height="24" rx="5" fill="#CC2A14"/>
<path d="M164.242 457.164C164.885 457.164 165.473 457.068 165.999 456.877L166.84 458.046H168.433L167.134 456.248C168.241 455.38 168.863 453.931 168.863 452.071V452.058C168.863 448.934 167.086 446.972 164.242 446.972C161.405 446.972 159.621 448.927 159.621 452.058V452.071C159.621 455.209 161.398 457.164 164.242 457.164ZM164.242 455.811C162.369 455.811 161.187 454.368 161.187 452.071V452.058C161.187 449.761 162.376 448.325 164.242 448.325C166.115 448.325 167.291 449.768 167.291 452.058V452.071C167.291 453.356 166.922 454.382 166.259 455.031L165.5 453.979H163.914L165.145 455.688C164.864 455.77 164.563 455.811 164.242 455.811ZM172.596 457.144C173.689 457.144 174.421 456.645 174.797 455.92H174.831V457H176.314V449.809H174.831V454.006C174.831 455.127 174.161 455.872 173.122 455.872C172.097 455.872 171.591 455.271 171.591 454.184V449.809H170.114V454.471C170.114 456.125 171.017 457.144 172.596 457.144ZM178.577 448.701C179.062 448.701 179.438 448.318 179.438 447.854C179.438 447.382 179.062 446.999 178.577 446.999C178.099 446.999 177.716 447.382 177.716 447.854C177.716 448.318 178.099 448.701 178.577 448.701ZM177.839 457H179.315V449.809H177.839V457ZM183.909 457.144C185.652 457.144 186.76 456.104 186.992 454.963L187.006 454.888H185.604L185.584 454.942C185.399 455.482 184.818 455.934 183.943 455.934C182.768 455.934 182.022 455.141 181.995 453.78H187.088V453.281C187.088 451.121 185.851 449.672 183.834 449.672C181.817 449.672 180.519 451.176 180.519 453.425V453.432C180.519 455.701 181.797 457.144 183.909 457.144ZM183.841 450.882C184.805 450.882 185.502 451.49 185.625 452.734H182.016C182.146 451.531 182.884 450.882 183.841 450.882ZM190.759 457.144C191.06 457.144 191.34 457.109 191.511 457.082V455.94C191.401 455.954 191.271 455.968 191.114 455.968C190.492 455.968 190.164 455.749 190.164 455.018V450.984H191.511V449.809H190.164V447.936H188.653V449.809H187.621V450.984H188.653V455.106C188.653 456.542 189.337 457.144 190.759 457.144ZM198.271 457.144C199.967 457.144 201.197 456.241 201.197 454.929V454.922C201.197 453.89 200.637 453.309 199.167 452.967L197.998 452.7C197.226 452.516 196.932 452.215 196.932 451.771V451.764C196.932 451.189 197.431 450.813 198.224 450.813C199.058 450.813 199.55 451.251 199.639 451.88L199.646 451.928H201.033L201.026 451.846C200.951 450.622 199.926 449.672 198.224 449.672C196.569 449.672 195.448 450.554 195.448 451.839V451.846C195.448 452.892 196.125 453.548 197.492 453.862L198.668 454.129C199.44 454.313 199.7 454.58 199.7 455.045V455.052C199.7 455.633 199.167 456.002 198.278 456.002C197.369 456.002 196.877 455.612 196.74 454.949L196.727 454.881H195.264L195.271 454.942C195.421 456.255 196.474 457.144 198.271 457.144ZM202.346 459.393H203.822V455.79H203.856C204.28 456.624 205.107 457.144 206.126 457.144C207.931 457.144 209.113 455.701 209.113 453.411V453.404C209.113 451.107 207.938 449.672 206.105 449.672C205.08 449.672 204.287 450.191 203.856 451.046H203.822V449.809H202.346V459.393ZM205.723 455.872C204.608 455.872 203.815 454.901 203.815 453.411V453.404C203.815 451.907 204.602 450.937 205.723 450.937C206.878 450.937 207.609 451.873 207.609 453.404V453.411C207.609 454.929 206.885 455.872 205.723 455.872ZM213.352 457.144C215.409 457.144 216.763 455.722 216.763 453.404V453.391C216.763 451.087 215.396 449.672 213.345 449.672C211.301 449.672 209.94 451.094 209.94 453.391V453.404C209.94 455.715 211.287 457.144 213.352 457.144ZM213.358 455.906C212.203 455.906 211.451 454.997 211.451 453.404V453.391C211.451 451.818 212.21 450.909 213.345 450.909C214.5 450.909 215.252 451.818 215.252 453.391V453.404C215.252 454.99 214.514 455.906 213.358 455.906ZM220.427 457.144C220.728 457.144 221.008 457.109 221.179 457.082V455.94C221.069 455.954 220.939 455.968 220.782 455.968C220.16 455.968 219.832 455.749 219.832 455.018V450.984H221.179V449.809H219.832V447.936H218.321V449.809H217.289V450.984H218.321V455.106C218.321 456.542 219.005 457.144 220.427 457.144Z" fill="#FDFFFC"/>
<rect x="248" y="440" width="58" height="24" rx="5" fill="#CC2A14"/>
<path d="M267.234 457H268.765V448.455H271.78V447.136H264.212V448.455H267.234V457ZM274.159 457.144C275.902 457.144 277.009 456.104 277.242 454.963L277.255 454.888H275.854L275.833 454.942C275.649 455.482 275.068 455.934 274.193 455.934C273.017 455.934 272.272 455.141 272.245 453.78H277.337V453.281C277.337 451.121 276.1 449.672 274.083 449.672C272.067 449.672 270.768 451.176 270.768 453.425V453.432C270.768 455.701 272.046 457.144 274.159 457.144ZM274.09 450.882C275.054 450.882 275.751 451.49 275.875 452.734H272.265C272.395 451.531 273.133 450.882 274.09 450.882ZM278.486 457H279.962V452.81C279.962 451.688 280.632 450.937 281.671 450.937C282.697 450.937 283.203 451.545 283.203 452.625V457H284.686V452.345C284.686 450.69 283.777 449.672 282.198 449.672C281.111 449.672 280.373 450.164 279.997 450.896H279.962V449.809H278.486V457ZM288.637 457.144C288.938 457.144 289.218 457.109 289.389 457.082V455.94C289.28 455.954 289.15 455.968 288.993 455.968C288.371 455.968 288.042 455.749 288.042 455.018V450.984H289.389V449.809H288.042V447.936H286.532V449.809H285.5V450.984H286.532V455.106C286.532 456.542 287.215 457.144 288.637 457.144Z" fill="#FDFFFC"/>
</g>
<defs>
<linearGradient id="paint0_linear" x1="545.312" y1="1175.58" x2="541.49" y2="760.037" gradientUnits="userSpaceOnUse">
<stop stop-color="#CC2A14"/>
<stop offset="1" stop-color="#FF9F1C"/>
</linearGradient>
<clipPath id="clip0">
<rect width="375" height="812" fill="white"/>
</clipPath>
</defs>
</svg>
