<svg width="375" height="812" viewBox="0 0 375 812" fill="none" xmlns="http://www.w3.org/2000/svg">
<rect width="375" height="812" fill="url(#paint0_linear)"/>
<path d="M60.4932 222.211C63.499 222.211 65.3271 220.743 65.3271 218.432V218.423C65.3271 216.463 64.2021 215.399 61.583 214.846L60.1943 214.556C58.6123 214.213 57.8916 213.633 57.8916 212.684V212.675C57.8916 211.567 58.8936 210.82 60.4668 210.812C61.9697 210.812 62.9893 211.523 63.165 212.701L63.1738 212.824H65.0898L65.0811 212.675C64.9492 210.548 63.1387 209.106 60.4932 209.106C57.8125 209.106 55.9053 210.592 55.8965 212.754V212.763C55.8965 214.644 57.1006 215.786 59.5879 216.313L60.9678 216.604C62.6465 216.973 63.3408 217.526 63.3408 218.546V218.555C63.3408 219.741 62.2686 220.506 60.5723 220.506C58.876 220.506 57.707 219.776 57.5312 218.607L57.5137 218.493H55.5977L55.6064 218.625C55.7646 220.857 57.6455 222.211 60.4932 222.211ZM68.6934 222H70.6533L72.5781 215.074H72.6221L74.5645 222H76.542L79.0732 212.754H77.1924L75.5049 220.031H75.4609L73.5273 212.754H71.6992L69.7744 220.031H69.7393L68.0518 212.754H66.1533L68.6934 222ZM81.2617 211.33C81.8857 211.33 82.3691 210.838 82.3691 210.24C82.3691 209.634 81.8857 209.142 81.2617 209.142C80.6465 209.142 80.1543 209.634 80.1543 210.24C80.1543 210.838 80.6465 211.33 81.2617 211.33ZM80.3125 222H82.2109V212.754H80.3125V222ZM87.4141 222.185C87.8008 222.185 88.1611 222.141 88.3809 222.105V220.638C88.2402 220.655 88.0732 220.673 87.8711 220.673C87.0713 220.673 86.6494 220.392 86.6494 219.451V214.266H88.3809V212.754H86.6494V210.346H84.707V212.754H83.3799V214.266H84.707V219.565C84.707 221.411 85.5859 222.185 87.4141 222.185ZM93.6982 222.185C95.9219 222.185 97.4688 220.761 97.6709 218.906L97.6797 218.845H95.8516L95.8428 218.915C95.6143 219.917 94.8672 220.594 93.6982 220.594C92.2305 220.594 91.2549 219.407 91.2549 217.386V217.377C91.2549 215.399 92.2129 214.169 93.6895 214.169C94.9287 214.169 95.6318 214.934 95.834 215.839L95.8516 215.909H97.6621L97.6533 215.848C97.4951 214.107 96.0537 212.578 93.6719 212.578C91.0352 212.578 89.3125 214.433 89.3125 217.359V217.368C89.3125 220.33 91 222.185 93.6982 222.185ZM99.0947 222H100.993V216.647C100.993 215.206 101.863 214.204 103.173 214.204C104.509 214.204 105.282 215.118 105.282 216.647V222H107.181V216.287C107.181 214.055 105.88 212.578 103.902 212.578C102.522 212.578 101.529 213.202 101.037 214.274H100.993V209.317H99.0947V222ZM116.655 222.185C119.301 222.185 121.041 220.356 121.041 217.377V217.359C121.041 214.397 119.283 212.578 116.646 212.578C114.019 212.578 112.27 214.406 112.27 217.359V217.377C112.27 220.348 114.001 222.185 116.655 222.185ZM116.664 220.594C115.179 220.594 114.212 219.425 114.212 217.377V217.359C114.212 215.338 115.188 214.169 116.646 214.169C118.132 214.169 119.099 215.338 119.099 217.359V217.377C119.099 219.416 118.149 220.594 116.664 220.594ZM122.509 222H124.407V216.612C124.407 215.171 125.269 214.204 126.604 214.204C127.923 214.204 128.573 214.986 128.573 216.375V222H130.48V216.015C130.48 213.888 129.312 212.578 127.281 212.578C125.884 212.578 124.935 213.211 124.451 214.151H124.407V212.754H122.509V222ZM139.428 222.185C140.755 222.185 141.774 221.517 142.328 220.436H142.363V222H144.271V209.317H142.363V214.327H142.328C141.774 213.237 140.72 212.578 139.41 212.578C137.09 212.578 135.561 214.424 135.561 217.368V217.377C135.561 220.321 137.072 222.185 139.428 222.185ZM139.929 220.55C138.426 220.55 137.503 219.346 137.503 217.377V217.368C137.503 215.417 138.435 214.204 139.929 214.204C141.353 214.204 142.372 215.452 142.372 217.368V217.377C142.372 219.302 141.361 220.55 139.929 220.55ZM148.938 222.167C150.159 222.167 151.231 221.534 151.768 220.541H151.803V222H153.71V215.628C153.71 213.773 152.277 212.578 150.019 212.578C147.742 212.578 146.362 213.8 146.23 215.391L146.222 215.487H148.015L148.032 215.408C148.19 214.67 148.867 214.151 149.966 214.151C151.144 214.151 151.803 214.767 151.803 215.786V216.48L149.289 216.63C147.101 216.762 145.853 217.746 145.853 219.354V219.372C145.853 221.033 147.092 222.167 148.938 222.167ZM147.769 219.328V219.311C147.769 218.528 148.401 218.027 149.544 217.957L151.803 217.816V218.537C151.803 219.741 150.792 220.646 149.456 220.646C148.437 220.646 147.769 220.137 147.769 219.328ZM155.556 222H157.454V216.489C157.454 215.109 158.21 214.31 159.432 214.31C159.801 214.31 160.135 214.354 160.284 214.415V212.648C160.135 212.622 159.897 212.578 159.625 212.578C158.57 212.578 157.797 213.255 157.498 214.336H157.454V212.754H155.556V222ZM161.567 222H163.466V218.669L164.257 217.887L167.395 222H169.601L165.654 216.744L169.451 212.754H167.219L163.51 216.7H163.466V209.317H161.567V222ZM174.206 222H176.104V216.287C176.104 215.092 176.904 214.204 178.029 214.204C179.102 214.204 179.778 214.89 179.778 215.962V222H181.642V216.217C181.642 215.048 182.424 214.204 183.549 214.204C184.674 214.204 185.315 214.898 185.315 216.103V222H187.223V215.646C187.223 213.791 186.027 212.578 184.199 212.578C182.881 212.578 181.791 213.272 181.316 214.397H181.272C180.903 213.237 179.972 212.578 178.697 212.578C177.484 212.578 176.544 213.22 176.148 214.187H176.104V212.754H174.206V222ZM193.032 222.185C195.678 222.185 197.418 220.356 197.418 217.377V217.359C197.418 214.397 195.66 212.578 193.023 212.578C190.396 212.578 188.646 214.406 188.646 217.359V217.377C188.646 220.348 190.378 222.185 193.032 222.185ZM193.041 220.594C191.556 220.594 190.589 219.425 190.589 217.377V217.359C190.589 215.338 191.564 214.169 193.023 214.169C194.509 214.169 195.476 215.338 195.476 217.359V217.377C195.476 219.416 194.526 220.594 193.041 220.594ZM202.34 222.185C203.667 222.185 204.687 221.517 205.24 220.436H205.275V222H207.183V209.317H205.275V214.327H205.24C204.687 213.237 203.632 212.578 202.322 212.578C200.002 212.578 198.473 214.424 198.473 217.368V217.377C198.473 220.321 199.984 222.185 202.34 222.185ZM202.841 220.55C201.338 220.55 200.415 219.346 200.415 217.377V217.368C200.415 215.417 201.347 214.204 202.841 214.204C204.265 214.204 205.284 215.452 205.284 217.368V217.377C205.284 219.302 204.273 220.55 202.841 220.55ZM213.08 222.185C215.321 222.185 216.745 220.849 217.044 219.381L217.062 219.284H215.26L215.233 219.354C214.996 220.049 214.249 220.629 213.124 220.629C211.612 220.629 210.654 219.609 210.619 217.86H217.167V217.219C217.167 214.441 215.576 212.578 212.983 212.578C210.391 212.578 208.721 214.512 208.721 217.403V217.412C208.721 220.33 210.364 222.185 213.08 222.185ZM212.992 214.134C214.231 214.134 215.128 214.916 215.286 216.516H210.646C210.812 214.969 211.762 214.134 212.992 214.134ZM225.543 222.185C225.93 222.185 226.29 222.141 226.51 222.105V220.638C226.369 220.655 226.202 220.673 226 220.673C225.2 220.673 224.778 220.392 224.778 219.451V214.266H226.51V212.754H224.778V210.346H222.836V212.754H221.509V214.266H222.836V219.565C222.836 221.411 223.715 222.185 225.543 222.185ZM231.827 222.185C234.473 222.185 236.213 220.356 236.213 217.377V217.359C236.213 214.397 234.455 212.578 231.818 212.578C229.19 212.578 227.441 214.406 227.441 217.359V217.377C227.441 220.348 229.173 222.185 231.827 222.185ZM231.836 220.594C230.351 220.594 229.384 219.425 229.384 217.377V217.359C229.384 215.338 230.359 214.169 231.818 214.169C233.304 214.169 234.271 215.338 234.271 217.359V217.377C234.271 219.416 233.321 220.594 231.836 220.594ZM241.337 222H243.235V216.287C243.235 215.092 244.035 214.204 245.16 214.204C246.232 214.204 246.909 214.89 246.909 215.962V222H248.772V216.217C248.772 215.048 249.555 214.204 250.68 214.204C251.805 214.204 252.446 214.898 252.446 216.103V222H254.354V215.646C254.354 213.791 253.158 212.578 251.33 212.578C250.012 212.578 248.922 213.272 248.447 214.397H248.403C248.034 213.237 247.103 212.578 245.828 212.578C244.615 212.578 243.675 213.22 243.279 214.187H243.235V212.754H241.337V222ZM258.906 222.167C260.128 222.167 261.2 221.534 261.736 220.541H261.771V222H263.679V215.628C263.679 213.773 262.246 212.578 259.987 212.578C257.711 212.578 256.331 213.8 256.199 215.391L256.19 215.487H257.983L258.001 215.408C258.159 214.67 258.836 214.151 259.935 214.151C261.112 214.151 261.771 214.767 261.771 215.786V216.48L259.258 216.63C257.069 216.762 255.821 217.746 255.821 219.354V219.372C255.821 221.033 257.061 222.167 258.906 222.167ZM257.737 219.328V219.311C257.737 218.528 258.37 218.027 259.513 217.957L261.771 217.816V218.537C261.771 219.741 260.761 220.646 259.425 220.646C258.405 220.646 257.737 220.137 257.737 219.328ZM265.63 222H267.528V218.669L268.319 217.887L271.457 222H273.663L269.717 216.744L273.514 212.754H271.281L267.572 216.7H267.528V209.317H265.63V222ZM278.119 222.185C280.36 222.185 281.784 220.849 282.083 219.381L282.101 219.284H280.299L280.272 219.354C280.035 220.049 279.288 220.629 278.163 220.629C276.651 220.629 275.693 219.609 275.658 217.86H282.206V217.219C282.206 214.441 280.615 212.578 278.022 212.578C275.43 212.578 273.76 214.512 273.76 217.403V217.412C273.76 220.33 275.403 222.185 278.119 222.185ZM278.031 214.134C279.271 214.134 280.167 214.916 280.325 216.516H275.685C275.852 214.969 276.801 214.134 278.031 214.134ZM290.582 222.185C290.969 222.185 291.329 222.141 291.549 222.105V220.638C291.408 220.655 291.241 220.673 291.039 220.673C290.239 220.673 289.817 220.392 289.817 219.451V214.266H291.549V212.754H289.817V210.346H287.875V212.754H286.548V214.266H287.875V219.565C287.875 221.411 288.754 222.185 290.582 222.185ZM293.192 222H295.091V216.647C295.091 215.206 295.961 214.204 297.271 214.204C298.606 214.204 299.38 215.118 299.38 216.647V222H301.278V216.287C301.278 214.055 299.978 212.578 298 212.578C296.62 212.578 295.627 213.202 295.135 214.274H295.091V209.317H293.192V222ZM307.07 222.185C309.312 222.185 310.735 220.849 311.034 219.381L311.052 219.284H309.25L309.224 219.354C308.986 220.049 308.239 220.629 307.114 220.629C305.603 220.629 304.645 219.609 304.609 217.86H311.157V217.219C311.157 214.441 309.566 212.578 306.974 212.578C304.381 212.578 302.711 214.512 302.711 217.403V217.412C302.711 220.33 304.354 222.185 307.07 222.185ZM306.982 214.134C308.222 214.134 309.118 214.916 309.276 216.516H304.636C304.803 214.969 305.752 214.134 306.982 214.134ZM58.6562 254.167C59.8779 254.167 60.9502 253.534 61.4863 252.541H61.5215V254H63.4287V247.628C63.4287 245.773 61.9961 244.578 59.7373 244.578C57.4609 244.578 56.0811 245.8 55.9492 247.391L55.9404 247.487H57.7334L57.751 247.408C57.9092 246.67 58.5859 246.151 59.6846 246.151C60.8623 246.151 61.5215 246.767 61.5215 247.786V248.48L59.0078 248.63C56.8193 248.762 55.5713 249.746 55.5713 251.354V251.372C55.5713 253.033 56.8105 254.167 58.6562 254.167ZM57.4873 251.328V251.311C57.4873 250.528 58.1201 250.027 59.2627 249.957L61.5215 249.816V250.537C61.5215 251.741 60.5107 252.646 59.1748 252.646C58.1553 252.646 57.4873 252.137 57.4873 251.328ZM65.2744 257.076H67.1729V252.444H67.2168C67.7617 253.517 68.8252 254.185 70.1348 254.185C72.4551 254.185 73.9756 252.33 73.9756 249.386V249.377C73.9756 246.424 72.4639 244.578 70.1084 244.578C68.79 244.578 67.7705 245.246 67.2168 246.345H67.1729V244.754H65.2744V257.076ZM69.6162 252.55C68.1836 252.55 67.1641 251.302 67.1641 249.386V249.377C67.1641 247.452 68.1748 246.204 69.6162 246.204C71.1016 246.204 72.042 247.408 72.042 249.377V249.386C72.042 251.337 71.1104 252.55 69.6162 252.55ZM75.4521 257.076H77.3506V252.444H77.3945C77.9395 253.517 79.0029 254.185 80.3125 254.185C82.6328 254.185 84.1533 252.33 84.1533 249.386V249.377C84.1533 246.424 82.6416 244.578 80.2861 244.578C78.9678 244.578 77.9482 245.246 77.3945 246.345H77.3506V244.754H75.4521V257.076ZM79.7939 252.55C78.3613 252.55 77.3418 251.302 77.3418 249.386V249.377C77.3418 247.452 78.3525 246.204 79.7939 246.204C81.2793 246.204 82.2197 247.408 82.2197 249.377V249.386C82.2197 251.337 81.2881 252.55 79.7939 252.55ZM92.002 254.167C93.2236 254.167 94.2959 253.534 94.832 252.541H94.8672V254H96.7744V247.628C96.7744 245.773 95.3418 244.578 93.083 244.578C90.8066 244.578 89.4268 245.8 89.2949 247.391L89.2861 247.487H91.0791L91.0967 247.408C91.2549 246.67 91.9316 246.151 93.0303 246.151C94.208 246.151 94.8672 246.767 94.8672 247.786V248.48L92.3535 248.63C90.165 248.762 88.917 249.746 88.917 251.354V251.372C88.917 253.033 90.1562 254.167 92.002 254.167ZM90.833 251.328V251.311C90.833 250.528 91.4658 250.027 92.6084 249.957L94.8672 249.816V250.537C94.8672 251.741 93.8564 252.646 92.5205 252.646C91.501 252.646 90.833 252.137 90.833 251.328ZM102.347 254H104.245V241.317H102.347V254ZM107.225 243.33C107.849 243.33 108.332 242.838 108.332 242.24C108.332 241.634 107.849 241.142 107.225 241.142C106.609 241.142 106.117 241.634 106.117 242.24C106.117 242.838 106.609 243.33 107.225 243.33ZM106.275 254H108.174V244.754H106.275V254ZM113.377 254.185C113.764 254.185 114.124 254.141 114.344 254.105V252.638C114.203 252.655 114.036 252.673 113.834 252.673C113.034 252.673 112.612 252.392 112.612 251.451V246.266H114.344V244.754H112.612V242.346H110.67V244.754H109.343V246.266H110.67V251.565C110.67 253.411 111.549 254.185 113.377 254.185ZM119.16 254.185C119.547 254.185 119.907 254.141 120.127 254.105V252.638C119.986 252.655 119.819 252.673 119.617 252.673C118.817 252.673 118.396 252.392 118.396 251.451V246.266H120.127V244.754H118.396V242.346H116.453V244.754H115.126V246.266H116.453V251.565C116.453 253.411 117.332 254.185 119.16 254.185ZM121.771 254H123.669V241.317H121.771V254ZM129.566 254.185C131.808 254.185 133.231 252.849 133.53 251.381L133.548 251.284H131.746L131.72 251.354C131.482 252.049 130.735 252.629 129.61 252.629C128.099 252.629 127.141 251.609 127.105 249.86H133.653V249.219C133.653 246.441 132.062 244.578 129.47 244.578C126.877 244.578 125.207 246.512 125.207 249.403V249.412C125.207 252.33 126.851 254.185 129.566 254.185ZM129.479 246.134C130.718 246.134 131.614 246.916 131.772 248.516H127.132C127.299 246.969 128.248 246.134 129.479 246.134ZM138.786 254H140.685V248.287C140.685 247.092 141.484 246.204 142.609 246.204C143.682 246.204 144.358 246.89 144.358 247.962V254H146.222V248.217C146.222 247.048 147.004 246.204 148.129 246.204C149.254 246.204 149.896 246.898 149.896 248.103V254H151.803V247.646C151.803 245.791 150.607 244.578 148.779 244.578C147.461 244.578 146.371 245.272 145.896 246.397H145.853C145.483 245.237 144.552 244.578 143.277 244.578C142.064 244.578 141.124 245.22 140.729 246.187H140.685V244.754H138.786V254ZM157.612 254.185C160.258 254.185 161.998 252.356 161.998 249.377V249.359C161.998 246.397 160.24 244.578 157.604 244.578C154.976 244.578 153.227 246.406 153.227 249.359V249.377C153.227 252.348 154.958 254.185 157.612 254.185ZM157.621 252.594C156.136 252.594 155.169 251.425 155.169 249.377V249.359C155.169 247.338 156.145 246.169 157.604 246.169C159.089 246.169 160.056 247.338 160.056 249.359V249.377C160.056 251.416 159.106 252.594 157.621 252.594ZM163.466 254H165.364V248.489C165.364 247.109 166.12 246.31 167.342 246.31C167.711 246.31 168.045 246.354 168.194 246.415V244.648C168.045 244.622 167.808 244.578 167.535 244.578C166.48 244.578 165.707 245.255 165.408 246.336H165.364V244.754H163.466V254ZM172.914 254.185C175.155 254.185 176.579 252.849 176.878 251.381L176.896 251.284H175.094L175.067 251.354C174.83 252.049 174.083 252.629 172.958 252.629C171.446 252.629 170.488 251.609 170.453 249.86H177.001V249.219C177.001 246.441 175.41 244.578 172.817 244.578C170.225 244.578 168.555 246.512 168.555 249.403V249.412C168.555 252.33 170.198 254.185 172.914 254.185ZM172.826 246.134C174.065 246.134 174.962 246.916 175.12 248.516H170.479C170.646 246.969 171.596 246.134 172.826 246.134ZM186.08 254.185C188.321 254.185 189.745 252.849 190.044 251.381L190.062 251.284H188.26L188.233 251.354C187.996 252.049 187.249 252.629 186.124 252.629C184.612 252.629 183.654 251.609 183.619 249.86H190.167V249.219C190.167 246.441 188.576 244.578 185.983 244.578C183.391 244.578 181.721 246.512 181.721 249.403V249.412C181.721 252.33 183.364 254.185 186.08 254.185ZM185.992 246.134C187.231 246.134 188.128 246.916 188.286 248.516H183.646C183.812 246.969 184.762 246.134 185.992 246.134ZM194.359 254.167C195.581 254.167 196.653 253.534 197.189 252.541H197.225V254H199.132V247.628C199.132 245.773 197.699 244.578 195.44 244.578C193.164 244.578 191.784 245.8 191.652 247.391L191.644 247.487H193.437L193.454 247.408C193.612 246.67 194.289 246.151 195.388 246.151C196.565 246.151 197.225 246.767 197.225 247.786V248.48L194.711 248.63C192.522 248.762 191.274 249.746 191.274 251.354V251.372C191.274 253.033 192.514 254.167 194.359 254.167ZM193.19 251.328V251.311C193.19 250.528 193.823 250.027 194.966 249.957L197.225 249.816V250.537C197.225 251.741 196.214 252.646 194.878 252.646C193.858 252.646 193.19 252.137 193.19 251.328ZM204.44 254.185C206.62 254.185 208.202 253.024 208.202 251.337V251.328C208.202 250.001 207.481 249.254 205.592 248.814L204.089 248.472C203.096 248.234 202.718 247.848 202.718 247.276V247.268C202.718 246.529 203.359 246.046 204.379 246.046C205.451 246.046 206.084 246.608 206.198 247.417L206.207 247.479H207.991L207.982 247.373C207.886 245.8 206.567 244.578 204.379 244.578C202.252 244.578 200.811 245.712 200.811 247.364V247.373C200.811 248.718 201.681 249.562 203.438 249.966L204.95 250.309C205.943 250.546 206.277 250.889 206.277 251.486V251.495C206.277 252.242 205.592 252.717 204.449 252.717C203.28 252.717 202.647 252.216 202.472 251.363L202.454 251.275H200.573L200.582 251.354C200.775 253.042 202.129 254.185 204.44 254.185ZM210.751 257.085C212.562 257.085 213.528 256.347 214.214 254.431L217.659 244.754H215.655L213.326 252.277H213.265L210.936 244.754H208.879L212.245 254.009L212.087 254.448C211.771 255.345 211.278 255.582 210.382 255.582C210.127 255.582 209.907 255.547 209.758 255.512V256.997C209.986 257.041 210.382 257.085 210.751 257.085ZM226.396 254.185C229.041 254.185 230.781 252.356 230.781 249.377V249.359C230.781 246.397 229.023 244.578 226.387 244.578C223.759 244.578 222.01 246.406 222.01 249.359V249.377C222.01 252.348 223.741 254.185 226.396 254.185ZM226.404 252.594C224.919 252.594 223.952 251.425 223.952 249.377V249.359C223.952 247.338 224.928 246.169 226.387 246.169C227.872 246.169 228.839 247.338 228.839 249.359V249.377C228.839 251.416 227.89 252.594 226.404 252.594ZM232.249 254H234.147V248.612C234.147 247.171 235.009 246.204 236.345 246.204C237.663 246.204 238.313 246.986 238.313 248.375V254H240.221V248.015C240.221 245.888 239.052 244.578 237.021 244.578C235.624 244.578 234.675 245.211 234.191 246.151H234.147V244.754H232.249V254ZM248.957 254.185C249.344 254.185 249.704 254.141 249.924 254.105V252.638C249.783 252.655 249.616 252.673 249.414 252.673C248.614 252.673 248.192 252.392 248.192 251.451V246.266H249.924V244.754H248.192V242.346H246.25V244.754H244.923V246.266H246.25V251.565C246.25 253.411 247.129 254.185 248.957 254.185ZM251.567 254H253.466V248.647C253.466 247.206 254.336 246.204 255.646 246.204C256.981 246.204 257.755 247.118 257.755 248.647V254H259.653V248.287C259.653 246.055 258.353 244.578 256.375 244.578C254.995 244.578 254.002 245.202 253.51 246.274H253.466V241.317H251.567V254ZM265.445 254.185C267.687 254.185 269.11 252.849 269.409 251.381L269.427 251.284H267.625L267.599 251.354C267.361 252.049 266.614 252.629 265.489 252.629C263.978 252.629 263.02 251.609 262.984 249.86H269.532V249.219C269.532 246.441 267.941 244.578 265.349 244.578C262.756 244.578 261.086 246.512 261.086 249.403V249.412C261.086 252.33 262.729 254.185 265.445 254.185ZM265.357 246.134C266.597 246.134 267.493 246.916 267.651 248.516H263.011C263.178 246.969 264.127 246.134 265.357 246.134ZM278.611 254.185C280.853 254.185 282.276 252.849 282.575 251.381L282.593 251.284H280.791L280.765 251.354C280.527 252.049 279.78 252.629 278.655 252.629C277.144 252.629 276.186 251.609 276.15 249.86H282.698V249.219C282.698 246.441 281.107 244.578 278.515 244.578C275.922 244.578 274.252 246.512 274.252 249.403V249.412C274.252 252.33 275.896 254.185 278.611 254.185ZM278.523 246.134C279.763 246.134 280.659 246.916 280.817 248.516H276.177C276.344 246.969 277.293 246.134 278.523 246.134ZM284.913 257.085C286.724 257.085 287.69 256.347 288.376 254.431L291.821 244.754H289.817L287.488 252.277H287.427L285.098 244.754H283.041L286.407 254.009L286.249 254.448C285.933 255.345 285.44 255.582 284.544 255.582C284.289 255.582 284.069 255.547 283.92 255.512V256.997C284.148 257.041 284.544 257.085 284.913 257.085ZM296.523 254.185C298.765 254.185 300.188 252.849 300.487 251.381L300.505 251.284H298.703L298.677 251.354C298.439 252.049 297.692 252.629 296.567 252.629C295.056 252.629 294.098 251.609 294.062 249.86H300.61V249.219C300.61 246.441 299.02 244.578 296.427 244.578C293.834 244.578 292.164 246.512 292.164 249.403V249.412C292.164 252.33 293.808 254.185 296.523 254.185ZM296.436 246.134C297.675 246.134 298.571 246.916 298.729 248.516H294.089C294.256 246.969 295.205 246.134 296.436 246.134ZM305.55 254.185C307.729 254.185 309.312 253.024 309.312 251.337V251.328C309.312 250.001 308.591 249.254 306.701 248.814L305.198 248.472C304.205 248.234 303.827 247.848 303.827 247.276V247.268C303.827 246.529 304.469 246.046 305.488 246.046C306.561 246.046 307.193 246.608 307.308 247.417L307.316 247.479H309.101L309.092 247.373C308.995 245.8 307.677 244.578 305.488 244.578C303.361 244.578 301.92 245.712 301.92 247.364V247.373C301.92 248.718 302.79 249.562 304.548 249.966L306.06 250.309C307.053 250.546 307.387 250.889 307.387 251.486V251.495C307.387 252.242 306.701 252.717 305.559 252.717C304.39 252.717 303.757 252.216 303.581 251.363L303.563 251.275H301.683L301.691 251.354C301.885 253.042 303.238 254.185 305.55 254.185ZM311.869 254.132C312.511 254.132 313.021 253.622 313.021 252.98C313.021 252.33 312.511 251.829 311.869 251.829C311.219 251.829 310.709 252.33 310.709 252.98C310.709 253.622 311.219 254.132 311.869 254.132ZM59.3154 318H61.2842V307.014H65.1602V305.317H55.4307V307.014H59.3154V318ZM66.9531 318.167C68.1748 318.167 69.2471 317.534 69.7832 316.541H69.8184V318H71.7256V311.628C71.7256 309.773 70.293 308.578 68.0342 308.578C65.7578 308.578 64.3779 309.8 64.2461 311.391L64.2373 311.487H66.0303L66.0479 311.408C66.2061 310.67 66.8828 310.151 67.9814 310.151C69.1592 310.151 69.8184 310.767 69.8184 311.786V312.48L67.3047 312.63C65.1162 312.762 63.8682 313.746 63.8682 315.354V315.372C63.8682 317.033 65.1074 318.167 66.9531 318.167ZM65.7842 315.328V315.311C65.7842 314.528 66.417 314.027 67.5596 313.957L69.8184 313.816V314.537C69.8184 315.741 68.8076 316.646 67.4717 316.646C66.4521 316.646 65.7842 316.137 65.7842 315.328ZM73.5713 321.076H75.4697V316.444H75.5137C76.0586 317.517 77.1221 318.185 78.4316 318.185C80.752 318.185 82.2725 316.33 82.2725 313.386V313.377C82.2725 310.424 80.7607 308.578 78.4053 308.578C77.0869 308.578 76.0674 309.246 75.5137 310.345H75.4697V308.754H73.5713V321.076ZM77.9131 316.55C76.4805 316.55 75.4609 315.302 75.4609 313.386V313.377C75.4609 311.452 76.4717 310.204 77.9131 310.204C79.3984 310.204 80.3389 311.408 80.3389 313.377V313.386C80.3389 315.337 79.4072 316.55 77.9131 316.55ZM92.3184 318.185C94.665 318.185 96.1855 316.321 96.1855 313.377V313.368C96.1855 310.424 94.6562 308.578 92.3359 308.578C91.0264 308.578 89.9717 309.237 89.418 310.327H89.374V305.317H87.4756V318H89.374V316.436H89.418C89.9629 317.517 90.9912 318.185 92.3184 318.185ZM91.8174 316.55C90.376 316.55 89.3652 315.302 89.3652 313.377V313.368C89.3652 311.452 90.3848 310.204 91.8174 310.204C93.3115 310.204 94.2432 311.417 94.2432 313.368V313.377C94.2432 315.346 93.3115 316.55 91.8174 316.55ZM101.6 318.185C103.841 318.185 105.265 316.849 105.563 315.381L105.581 315.284H103.779L103.753 315.354C103.516 316.049 102.769 316.629 101.644 316.629C100.132 316.629 99.1738 315.609 99.1387 313.86H105.687V313.219C105.687 310.441 104.096 308.578 101.503 308.578C98.9102 308.578 97.2402 310.512 97.2402 313.403V313.412C97.2402 316.33 98.8838 318.185 101.6 318.185ZM101.512 310.134C102.751 310.134 103.647 310.916 103.806 312.516H99.165C99.332 310.969 100.281 310.134 101.512 310.134ZM107.233 318H109.132V305.317H107.233V318ZM115.056 318.185C117.701 318.185 119.441 316.356 119.441 313.377V313.359C119.441 310.397 117.684 308.578 115.047 308.578C112.419 308.578 110.67 310.406 110.67 313.359V313.377C110.67 316.348 112.401 318.185 115.056 318.185ZM115.064 316.594C113.579 316.594 112.612 315.425 112.612 313.377V313.359C112.612 311.338 113.588 310.169 115.047 310.169C116.532 310.169 117.499 311.338 117.499 313.359V313.377C117.499 315.416 116.55 316.594 115.064 316.594ZM122.693 318H124.653L126.578 311.074H126.622L128.564 318H130.542L133.073 308.754H131.192L129.505 316.031H129.461L127.527 308.754H125.699L123.774 316.031H123.739L122.052 308.754H120.153L122.693 318ZM141.133 318.185C141.52 318.185 141.88 318.141 142.1 318.105V316.638C141.959 316.655 141.792 316.673 141.59 316.673C140.79 316.673 140.368 316.392 140.368 315.451V310.266H142.1V308.754H140.368V306.346H138.426V308.754H137.099V310.266H138.426V315.565C138.426 317.411 139.305 318.185 141.133 318.185ZM147.417 318.185C150.062 318.185 151.803 316.356 151.803 313.377V313.359C151.803 310.397 150.045 308.578 147.408 308.578C144.78 308.578 143.031 310.406 143.031 313.359V313.377C143.031 316.348 144.763 318.185 147.417 318.185ZM147.426 316.594C145.94 316.594 144.974 315.425 144.974 313.377V313.359C144.974 311.338 145.949 310.169 147.408 310.169C148.894 310.169 149.86 311.338 149.86 313.359V313.377C149.86 315.416 148.911 316.594 147.426 316.594ZM160.979 321.261C163.589 321.261 165.224 319.854 165.224 317.745V308.754H163.316V310.327H163.272C162.728 309.281 161.708 308.578 160.407 308.578C158.061 308.578 156.514 310.397 156.514 313.298V313.307C156.514 316.189 158.043 318.009 160.363 318.009C161.69 318.009 162.745 317.367 163.272 316.365H163.316V317.631C163.316 318.923 162.481 319.731 160.97 319.731C159.783 319.731 158.983 319.327 158.729 318.738L158.693 318.668H156.812L156.821 318.747C157.103 320.162 158.605 321.261 160.979 321.261ZM160.899 316.462C159.396 316.462 158.456 315.267 158.456 313.333V313.324C158.456 311.417 159.396 310.204 160.899 310.204C162.341 310.204 163.316 311.426 163.316 313.324V313.333C163.316 315.24 162.35 316.462 160.899 316.462ZM171.051 318.185C173.292 318.185 174.716 316.849 175.015 315.381L175.032 315.284H173.23L173.204 315.354C172.967 316.049 172.22 316.629 171.095 316.629C169.583 316.629 168.625 315.609 168.59 313.86H175.138V313.219C175.138 310.441 173.547 308.578 170.954 308.578C168.361 308.578 166.691 310.512 166.691 313.403V313.412C166.691 316.33 168.335 318.185 171.051 318.185ZM170.963 310.134C172.202 310.134 173.099 310.916 173.257 312.516H168.616C168.783 310.969 169.732 310.134 170.963 310.134ZM179.857 318.185C180.244 318.185 180.604 318.141 180.824 318.105V316.638C180.684 316.655 180.517 316.673 180.314 316.673C179.515 316.673 179.093 316.392 179.093 315.451V310.266H180.824V308.754H179.093V306.346H177.15V308.754H175.823V310.266H177.15V315.565C177.15 317.411 178.029 318.185 179.857 318.185ZM189.517 318.185C191.696 318.185 193.278 317.024 193.278 315.337V315.328C193.278 314.001 192.558 313.254 190.668 312.814L189.165 312.472C188.172 312.234 187.794 311.848 187.794 311.276V311.268C187.794 310.529 188.436 310.046 189.455 310.046C190.527 310.046 191.16 310.608 191.274 311.417L191.283 311.479H193.067L193.059 311.373C192.962 309.8 191.644 308.578 189.455 308.578C187.328 308.578 185.887 309.712 185.887 311.364V311.373C185.887 312.718 186.757 313.562 188.515 313.966L190.026 314.309C191.02 314.546 191.354 314.889 191.354 315.486V315.495C191.354 316.242 190.668 316.717 189.525 316.717C188.356 316.717 187.724 316.216 187.548 315.363L187.53 315.275H185.649L185.658 315.354C185.852 317.042 187.205 318.185 189.517 318.185ZM197.998 318.185C198.385 318.185 198.745 318.141 198.965 318.105V316.638C198.824 316.655 198.657 316.673 198.455 316.673C197.655 316.673 197.233 316.392 197.233 315.451V310.266H198.965V308.754H197.233V306.346H195.291V308.754H193.964V310.266H195.291V315.565C195.291 317.411 196.17 318.185 197.998 318.185ZM203.113 318.167C204.335 318.167 205.407 317.534 205.943 316.541H205.979V318H207.886V311.628C207.886 309.773 206.453 308.578 204.194 308.578C201.918 308.578 200.538 309.8 200.406 311.391L200.397 311.487H202.19L202.208 311.408C202.366 310.67 203.043 310.151 204.142 310.151C205.319 310.151 205.979 310.767 205.979 311.786V312.48L203.465 312.63C201.276 312.762 200.028 313.746 200.028 315.354V315.372C200.028 317.033 201.268 318.167 203.113 318.167ZM201.944 315.328V315.311C201.944 314.528 202.577 314.027 203.72 313.957L205.979 313.816V314.537C205.979 315.741 204.968 316.646 203.632 316.646C202.612 316.646 201.944 316.137 201.944 315.328ZM209.731 318H211.63V312.489C211.63 311.109 212.386 310.31 213.607 310.31C213.977 310.31 214.311 310.354 214.46 310.415V308.648C214.311 308.622 214.073 308.578 213.801 308.578C212.746 308.578 211.973 309.255 211.674 310.336H211.63V308.754H209.731V318ZM218.881 318.185C219.268 318.185 219.628 318.141 219.848 318.105V316.638C219.707 316.655 219.54 316.673 219.338 316.673C218.538 316.673 218.116 316.392 218.116 315.451V310.266H219.848V308.754H218.116V306.346H216.174V308.754H214.847V310.266H216.174V315.565C216.174 317.411 217.053 318.185 218.881 318.185ZM225.139 318.185C227.38 318.185 228.804 316.849 229.103 315.381L229.12 315.284H227.318L227.292 315.354C227.055 316.049 226.308 316.629 225.183 316.629C223.671 316.629 222.713 315.609 222.678 313.86H229.226V313.219C229.226 310.441 227.635 308.578 225.042 308.578C222.449 308.578 220.779 310.512 220.779 313.403V313.412C220.779 316.33 222.423 318.185 225.139 318.185ZM225.051 310.134C226.29 310.134 227.187 310.916 227.345 312.516H222.704C222.871 310.969 223.82 310.134 225.051 310.134ZM234.156 318.185C235.483 318.185 236.503 317.517 237.057 316.436H237.092V318H238.999V305.317H237.092V310.327H237.057C236.503 309.237 235.448 308.578 234.139 308.578C231.818 308.578 230.289 310.424 230.289 313.368V313.377C230.289 316.321 231.801 318.185 234.156 318.185ZM234.657 316.55C233.154 316.55 232.231 315.346 232.231 313.377V313.368C232.231 311.417 233.163 310.204 234.657 310.204C236.081 310.204 237.101 311.452 237.101 313.368V313.377C237.101 315.302 236.09 316.55 234.657 316.55ZM242.031 318.132C242.673 318.132 243.183 317.622 243.183 316.98C243.183 316.33 242.673 315.829 242.031 315.829C241.381 315.829 240.871 316.33 240.871 316.98C240.871 317.622 241.381 318.132 242.031 318.132Z" fill="#FDFFFC"/>
<path d="M60.9883 145H65.3008L70.9609 128.09H67.0352L63.1797 141.379H63.1094L59.2422 128.09H55.3281L60.9883 145ZM73.9961 130.82C75.0273 130.82 75.8242 130.012 75.8242 129.039C75.8242 128.066 75.0273 127.258 73.9961 127.258C72.9648 127.258 72.168 128.066 72.168 129.039C72.168 130.012 72.9648 130.82 73.9961 130.82ZM72.2852 145H75.707V132.438H72.2852V145ZM83.7227 145.258C87.3086 145.258 89.043 143.137 89.4297 141.285L89.4648 141.156H86.3242L86.3008 141.227C86.0547 141.93 85.1992 142.703 83.793 142.703C82.0469 142.703 80.957 141.531 80.9219 139.527H89.5703V138.473C89.5703 134.676 87.2617 132.18 83.582 132.18C79.9023 132.18 77.5469 134.734 77.5469 138.73V138.742C77.5469 142.762 79.8789 145.258 83.7227 145.258ZM83.6406 134.734C85.0586 134.734 86.0781 135.637 86.2891 137.371H80.957C81.1797 135.672 82.2344 134.734 83.6406 134.734ZM93.7188 145H97.3164L99.5781 136.117H99.6484L101.922 145H105.566L108.895 132.438H105.52L103.609 141.754H103.539L101.301 132.438H98.0195L95.793 141.754H95.7227L93.8242 132.438H90.3789L93.7188 145ZM116.77 130.82C117.801 130.82 118.598 130.012 118.598 129.039C118.598 128.066 117.801 127.258 116.77 127.258C115.738 127.258 114.941 128.066 114.941 129.039C114.941 130.012 115.738 130.82 116.77 130.82ZM115.059 145H118.48V132.438H115.059V145ZM120.777 145H124.199V137.781C124.199 136.141 125.172 135.016 126.707 135.016C128.242 135.016 129.016 135.953 129.016 137.594V145H132.438V136.891C132.438 133.949 130.867 132.18 128.102 132.18C126.203 132.18 124.914 133.059 124.27 134.5H124.199V132.438H120.777V145ZM144.016 145.258C145.832 145.258 147.215 144.344 147.883 142.855H147.953V145H151.375V128.09H147.953V134.617H147.883C147.203 133.094 145.797 132.18 144.016 132.18C140.852 132.18 138.906 134.617 138.906 138.707V138.719C138.906 142.797 140.852 145.258 144.016 145.258ZM145.164 142.422C143.453 142.422 142.387 141.004 142.387 138.719V138.707C142.387 136.41 143.465 135.016 145.164 135.016C146.816 135.016 147.965 136.445 147.965 138.707V138.719C147.965 140.992 146.828 142.422 145.164 142.422ZM157.398 145.199C159.051 145.199 160.387 144.414 161.102 143.125H161.172V145H164.594V136.387C164.594 133.855 162.496 132.18 159.25 132.18C155.934 132.18 153.941 133.844 153.754 136.164L153.742 136.305H156.871L156.895 136.199C157.059 135.391 157.832 134.793 159.109 134.793C160.445 134.793 161.172 135.484 161.172 136.598V137.371L158.066 137.559C154.949 137.758 153.18 139.094 153.18 141.379V141.402C153.18 143.617 154.879 145.199 157.398 145.199ZM156.566 141.227V141.203C156.566 140.312 157.258 139.75 158.582 139.668L161.172 139.504V140.406C161.172 141.719 160.047 142.703 158.512 142.703C157.328 142.703 156.566 142.152 156.566 141.227ZM166.809 145H170.23V137.969C170.23 136.141 171.215 135.133 172.902 135.133C173.395 135.133 173.863 135.203 174.145 135.32V132.309C173.887 132.238 173.535 132.18 173.16 132.18C171.695 132.18 170.676 133.082 170.301 134.629H170.23V132.438H166.809V145ZM175.668 145H179.09V140.84L179.969 139.867L183.566 145H187.516L182.535 137.84L187.281 132.438H183.402L179.16 137.465H179.09V128.09H175.668V145ZM193.223 145H196.645V137.418C196.645 136 197.523 135.016 198.824 135.016C200.09 135.016 200.852 135.812 200.852 137.16V145H204.145V137.359C204.145 135.965 205 135.016 206.301 135.016C207.625 135.016 208.352 135.812 208.352 137.266V145H211.773V136.41C211.773 133.879 210.121 132.18 207.66 132.18C205.82 132.18 204.32 133.188 203.758 134.77H203.688C203.266 133.117 201.988 132.18 200.23 132.18C198.543 132.18 197.23 133.117 196.715 134.547H196.645V132.438H193.223V145ZM219.707 145.258C223.504 145.258 225.93 142.82 225.93 138.719V138.695C225.93 134.629 223.457 132.18 219.695 132.18C215.945 132.18 213.484 134.652 213.484 138.695V138.719C213.484 142.809 215.887 145.258 219.707 145.258ZM219.719 142.574C218.031 142.574 216.965 141.18 216.965 138.719V138.695C216.965 136.27 218.043 134.863 219.695 134.863C221.359 134.863 222.449 136.27 222.449 138.695V138.719C222.449 141.168 221.383 142.574 219.719 142.574ZM232.352 145.258C234.168 145.258 235.551 144.344 236.219 142.855H236.289V145H239.711V128.09H236.289V134.617H236.219C235.539 133.094 234.133 132.18 232.352 132.18C229.188 132.18 227.242 134.617 227.242 138.707V138.719C227.242 142.797 229.188 145.258 232.352 145.258ZM233.5 142.422C231.789 142.422 230.723 141.004 230.723 138.719V138.707C230.723 136.41 231.801 135.016 233.5 135.016C235.152 135.016 236.301 136.445 236.301 138.707V138.719C236.301 140.992 235.164 142.422 233.5 142.422ZM247.715 145.258C251.301 145.258 253.035 143.137 253.422 141.285L253.457 141.156H250.316L250.293 141.227C250.047 141.93 249.191 142.703 247.785 142.703C246.039 142.703 244.949 141.531 244.914 139.527H253.562V138.473C253.562 134.676 251.254 132.18 247.574 132.18C243.895 132.18 241.539 134.734 241.539 138.73V138.742C241.539 142.762 243.871 145.258 247.715 145.258ZM247.633 134.734C249.051 134.734 250.07 135.637 250.281 137.371H244.949C245.172 135.672 246.227 134.734 247.633 134.734Z" fill="#FDFFFC"/>
<defs>
<linearGradient id="paint0_linear" x1="940" y1="-8.25545e-06" x2="850.084" y2="922.033" gradientUnits="userSpaceOnUse">
<stop stop-color="#212A57"/>
<stop offset="0.253472" stop-color="#151736"/>
<stop offset="0.920462" stop-color="#000F1B"/>
</linearGradient>
</defs>
</svg>
